<ttFont>
    <TTGlyph name="A" xMin="104" yMin="-33" xMax="1524" yMax="1487">
      <contour>
        <pt x="846" y="1487" on="1"/>
        <pt x="982" y="1487" on="0"/>
        <pt x="1188" y="1392" on="0"/>
        <pt x="1338" y="1231" on="0"/>
        <pt x="1439" y="1020" on="0"/>
        <pt x="1499" y="789" on="0"/>
        <pt x="1524" y="552" on="0"/>
        <pt x="1524" y="446" on="1"/>
        <pt x="1524" y="353" on="0"/>
        <pt x="1500" y="183" on="0"/>
        <pt x="1486" y="116" on="1"/>
        <pt x="1469" y="38" on="0"/>
        <pt x="1448" y="-31" on="1"/>
        <pt x="1145" y="23" on="1"/>
        <pt x="1174" y="92" on="0"/>
        <pt x="1225" y="268" on="0"/>
        <pt x="1245" y="360" on="1"/>
        <pt x="1124" y="371" on="0"/>
        <pt x="883" y="377" on="0"/>
        <pt x="764" y="377" on="1"/>
        <pt x="671" y="377" on="0"/>
        <pt x="485" y="375" on="0"/>
        <pt x="391" y="369" on="1"/>
        <pt x="411" y="284" on="0"/>
        <pt x="465" y="114" on="0"/>
        <pt x="500" y="25" on="1"/>
        <pt x="184" y="-33" on="1"/>
        <pt x="162" y="13" on="0"/>
        <pt x="144" y="74" on="1"/>
        <pt x="129" y="126" on="0"/>
        <pt x="104" y="275" on="0"/>
        <pt x="104" y="369" on="1"/>
        <pt x="104" y="492" on="0"/>
        <pt x="125" y="753" on="0"/>
        <pt x="182" y="1001" on="0"/>
        <pt x="285" y="1223" on="0"/>
        <pt x="450" y="1390" on="0"/>
        <pt x="685" y="1487" on="0"/>
      </contour>
      <contour>
        <pt x="348" y="776" on="1"/>
        <pt x="348" y="693" on="0"/>
        <pt x="360" y="538" on="0"/>
        <pt x="373" y="463" on="1"/>
        <pt x="473" y="457" on="0"/>
        <pt x="672" y="455" on="0"/>
        <pt x="774" y="455" on="1"/>
        <pt x="895" y="455" on="0"/>
        <pt x="1140" y="458" on="0"/>
        <pt x="1264" y="467" on="1"/>
        <pt x="1282" y="578" on="0"/>
        <pt x="1282" y="676" on="1"/>
        <pt x="1282" y="747" on="0"/>
        <pt x="1261" y="907" on="0"/>
        <pt x="1215" y="1064" on="0"/>
        <pt x="1142" y="1208" on="0"/>
        <pt x="1036" y="1317" on="0"/>
        <pt x="897" y="1382" on="0"/>
        <pt x="809" y="1382" on="1"/>
        <pt x="728" y="1382" on="0"/>
        <pt x="598" y="1330" on="0"/>
        <pt x="495" y="1240" on="0"/>
        <pt x="420" y="1121" on="0"/>
        <pt x="372" y="986" on="0"/>
        <pt x="348" y="844" on="0"/>
      </contour>
    </TTGlyph>
    <TTGlyph name="AE" xMin="104" yMin="-33" xMax="2433" yMax="1487">
      <contour>
        <pt x="2150" y="473" on="1"/>
        <pt x="2104" y="479" on="0"/>
        <pt x="1999" y="487" on="0"/>
        <pt x="1891" y="492" on="0"/>
        <pt x="1785" y="494" on="0"/>
        <pt x="1739" y="494" on="1"/>
        <pt x="1694" y="494" on="0"/>
        <pt x="1606" y="491" on="0"/>
        <pt x="1561" y="489" on="1"/>
        <pt x="1561" y="425" on="0"/>
        <pt x="1561" y="317" on="0"/>
        <pt x="1561" y="220" on="0"/>
        <pt x="1562" y="128" on="0"/>
        <pt x="1563" y="80" on="1"/>
        <pt x="1618" y="83" on="0"/>
        <pt x="1759" y="97" on="0"/>
        <pt x="1912" y="116" on="0"/>
        <pt x="2072" y="143" on="0"/>
        <pt x="2221" y="178" on="0"/>
        <pt x="2351" y="222" on="0"/>
        <pt x="2398" y="248" on="1"/>
        <pt x="2402" y="0" on="1"/>
        <pt x="1130" y="0" on="1"/>
        <pt x="1161" y="72" on="0"/>
        <pt x="1219" y="260" on="0"/>
        <pt x="1241" y="360" on="1"/>
        <pt x="1122" y="371" on="0"/>
        <pt x="882" y="377" on="0"/>
        <pt x="764" y="377" on="1"/>
        <pt x="671" y="377" on="0"/>
        <pt x="485" y="375" on="0"/>
        <pt x="391" y="369" on="1"/>
        <pt x="411" y="284" on="0"/>
        <pt x="465" y="114" on="0"/>
        <pt x="500" y="25" on="1"/>
        <pt x="184" y="-33" on="1"/>
        <pt x="162" y="13" on="0"/>
        <pt x="144" y="74" on="1"/>
        <pt x="129" y="126" on="0"/>
        <pt x="104" y="275" on="0"/>
        <pt x="104" y="369" on="1"/>
        <pt x="104" y="492" on="0"/>
        <pt x="125" y="753" on="0"/>
        <pt x="182" y="1001" on="0"/>
        <pt x="285" y="1223" on="0"/>
        <pt x="450" y="1390" on="0"/>
        <pt x="685" y="1487" on="0"/>
        <pt x="846" y="1487" on="1"/>
        <pt x="925" y="1487" on="0"/>
        <pt x="1061" y="1453" on="0"/>
        <pt x="1177" y="1391" on="0"/>
        <pt x="1272" y="1304" on="0"/>
        <pt x="1311" y="1251" on="1"/>
        <pt x="1317" y="1438" on="1"/>
        <pt x="2433" y="1456" on="1"/>
        <pt x="2417" y="1180" on="1"/>
        <pt x="2374" y="1208" on="0"/>
        <pt x="2243" y="1252" on="0"/>
        <pt x="2087" y="1286" on="0"/>
        <pt x="1918" y="1311" on="0"/>
        <pt x="1756" y="1327" on="0"/>
        <pt x="1613" y="1337" on="0"/>
        <pt x="1561" y="1339" on="1"/>
        <pt x="1561" y="588" on="1"/>
        <pt x="1571" y="588" on="1"/>
        <pt x="1639" y="588" on="0"/>
        <pt x="1788" y="592" on="0"/>
        <pt x="1939" y="600" on="0"/>
        <pt x="2086" y="611" on="0"/>
        <pt x="2154" y="618" on="1"/>
      </contour>
      <contour>
        <pt x="348" y="776" on="1"/>
        <pt x="348" y="693" on="0"/>
        <pt x="360" y="538" on="0"/>
        <pt x="373" y="463" on="1"/>
        <pt x="473" y="457" on="0"/>
        <pt x="672" y="455" on="0"/>
        <pt x="774" y="455" on="1"/>
        <pt x="895" y="455" on="0"/>
        <pt x="1138" y="458" on="0"/>
        <pt x="1262" y="467" on="1"/>
        <pt x="1271" y="524" on="0"/>
        <pt x="1282" y="629" on="0"/>
        <pt x="1282" y="676" on="1"/>
        <pt x="1282" y="747" on="0"/>
        <pt x="1261" y="907" on="0"/>
        <pt x="1215" y="1064" on="0"/>
        <pt x="1142" y="1208" on="0"/>
        <pt x="1036" y="1317" on="0"/>
        <pt x="897" y="1382" on="0"/>
        <pt x="809" y="1382" on="1"/>
        <pt x="728" y="1382" on="0"/>
        <pt x="598" y="1330" on="0"/>
        <pt x="495" y="1240" on="0"/>
        <pt x="420" y="1121" on="0"/>
        <pt x="372" y="986" on="0"/>
        <pt x="348" y="844" on="0"/>
      </contour>
    </TTGlyph>
    <TTGlyph name="AEacute" xMin="104" yMin="-33" xMax="2433" yMax="1896">
      <component glyphName="AE" x="0" y="0" flags="0x204"/>
      <component glyphName="acute" x="1190" y="442" flags="0x4"/>
    </TTGlyph>
    <TTGlyph name="Aacute" xMin="104" yMin="-33" xMax="1524" yMax="1937">
      <component glyphName="A" x="0" y="0" flags="0x204"/>
      <component glyphName="acute" x="801" y="483" flags="0x4"/>
    </TTGlyph>
    <TTGlyph name="Abreve" xMin="104" yMin="-33" xMax="1524" yMax="1905">
      <component glyphName="A" x="0" y="0" flags="0x204"/>
      <component glyphName="breve" x="492" y="510" flags="0x4"/>
    </TTGlyph>
    <TTGlyph name="Acircumflex" xMin="104" yMin="-33" xMax="1524" yMax="1935">
      <component glyphName="A" x="0" y="0" flags="0x204"/>
      <component glyphName="circumflex" x="451" y="483" flags="0x4"/>
    </TTGlyph>
    <TTGlyph name="Adieresis" xMin="104" yMin="-33" xMax="1524" yMax="1798">
      <component glyphName="A" x="0" y="0" flags="0x204"/>
      <component glyphName="dieresis" x="530" y="510" flags="0x4"/>
    </TTGlyph>
    <TTGlyph name="Agrave" xMin="104" yMin="-33" xMax="1524" yMax="1952">
      <component glyphName="A" x="0" y="0" flags="0x204"/>
      <component glyphName="grave" x="330" y="498" flags="0x4"/>
    </TTGlyph>
    <TTGlyph name="Amacron" xMin="104" yMin="-33" xMax="1524" yMax="1745">
      <component glyphName="A" x="0" y="0" flags="0x204"/>
      <component glyphName="macron" x="479" y="393" flags="0x4"/>
    </TTGlyph>
    <TTGlyph name="Aogonek" xMin="104" yMin="-367" xMax="1616" yMax="1487">
      <contour>
        <pt x="1616" y="-150" on="1"/>
        <pt x="1605" y="-199" on="0"/>
        <pt x="1557" y="-279" on="0"/>
        <pt x="1487" y="-336" on="0"/>
        <pt x="1400" y="-367" on="0"/>
        <pt x="1350" y="-367" on="1"/>
        <pt x="1310" y="-367" on="0"/>
        <pt x="1235" y="-343" on="0"/>
        <pt x="1178" y="-298" on="0"/>
        <pt x="1143" y="-231" on="0"/>
        <pt x="1143" y="-188" on="1"/>
        <pt x="1143" y="-134" on="0"/>
        <pt x="1192" y="-35" on="0"/>
        <pt x="1227" y="8" on="1"/>
        <pt x="1145" y="23" on="1"/>
        <pt x="1174" y="92" on="0"/>
        <pt x="1225" y="268" on="0"/>
        <pt x="1245" y="360" on="1"/>
        <pt x="1124" y="371" on="0"/>
        <pt x="883" y="377" on="0"/>
        <pt x="764" y="377" on="1"/>
        <pt x="671" y="377" on="0"/>
        <pt x="485" y="375" on="0"/>
        <pt x="391" y="369" on="1"/>
        <pt x="411" y="284" on="0"/>
        <pt x="465" y="114" on="0"/>
        <pt x="500" y="25" on="1"/>
        <pt x="184" y="-33" on="1"/>
        <pt x="162" y="13" on="0"/>
        <pt x="144" y="74" on="1"/>
        <pt x="129" y="126" on="0"/>
        <pt x="104" y="275" on="0"/>
        <pt x="104" y="369" on="1"/>
        <pt x="104" y="492" on="0"/>
        <pt x="125" y="753" on="0"/>
        <pt x="182" y="1001" on="0"/>
        <pt x="285" y="1223" on="0"/>
        <pt x="450" y="1390" on="0"/>
        <pt x="685" y="1487" on="0"/>
        <pt x="846" y="1487" on="1"/>
        <pt x="982" y="1487" on="0"/>
        <pt x="1188" y="1392" on="0"/>
        <pt x="1338" y="1231" on="0"/>
        <pt x="1439" y="1020" on="0"/>
        <pt x="1499" y="789" on="0"/>
        <pt x="1524" y="552" on="0"/>
        <pt x="1524" y="446" on="1"/>
        <pt x="1524" y="353" on="0"/>
        <pt x="1500" y="183" on="0"/>
        <pt x="1486" y="116" on="1"/>
        <pt x="1469" y="38" on="0"/>
        <pt x="1448" y="-31" on="1"/>
        <pt x="1325" y="-8" on="1"/>
        <pt x="1306" y="-45" on="0"/>
        <pt x="1284" y="-126" on="0"/>
        <pt x="1284" y="-168" on="1"/>
        <pt x="1284" y="-186" on="0"/>
        <pt x="1294" y="-234" on="0"/>
        <pt x="1316" y="-277" on="0"/>
        <pt x="1349" y="-307" on="0"/>
        <pt x="1372" y="-307" on="1"/>
        <pt x="1397" y="-307" on="0"/>
        <pt x="1429" y="-279" on="0"/>
        <pt x="1447" y="-238" on="0"/>
        <pt x="1454" y="-191" on="0"/>
        <pt x="1454" y="-172" on="1"/>
        <pt x="1454" y="-141" on="0"/>
        <pt x="1448" y="-106" on="1"/>
      </contour>
      <contour>
        <pt x="348" y="776" on="1"/>
        <pt x="348" y="693" on="0"/>
        <pt x="360" y="538" on="0"/>
        <pt x="373" y="463" on="1"/>
        <pt x="473" y="457" on="0"/>
        <pt x="672" y="455" on="0"/>
        <pt x="774" y="455" on="1"/>
        <pt x="895" y="455" on="0"/>
        <pt x="1140" y="458" on="0"/>
        <pt x="1264" y="467" on="1"/>
        <pt x="1282" y="578" on="0"/>
        <pt x="1282" y="676" on="1"/>
        <pt x="1282" y="747" on="0"/>
        <pt x="1261" y="907" on="0"/>
        <pt x="1215" y="1064" on="0"/>
        <pt x="1142" y="1208" on="0"/>
        <pt x="1036" y="1317" on="0"/>
        <pt x="897" y="1382" on="0"/>
        <pt x="809" y="1382" on="1"/>
        <pt x="728" y="1382" on="0"/>
        <pt x="598" y="1330" on="0"/>
        <pt x="495" y="1240" on="0"/>
        <pt x="420" y="1121" on="0"/>
        <pt x="372" y="986" on="0"/>
        <pt x="348" y="844" on="0"/>
      </contour>
    </TTGlyph>
    <TTGlyph name="Aring" xMin="104" yMin="-33" xMax="1524" yMax="2001">
      <component glyphName="A" x="0" y="0" flags="0x204"/>
      <component glyphName="ring" x="565" y="510" flags="0x4"/>
    </TTGlyph>
    <TTGlyph name="Atilde" xMin="104" yMin="-33" xMax="1524" yMax="1819">
      <component glyphName="A" x="0" y="0" flags="0x204"/>
      <component glyphName="tilde" x="438" y="473" flags="0x4"/>
    </TTGlyph>
    <TTGlyph name="B" xMin="145" yMin="-6" xMax="1487" yMax="1466">
      <contour>
        <pt x="1481" y="1085" on="1"/>
        <pt x="1487" y="987" on="0"/>
        <pt x="1418" y="826" on="0"/>
        <pt x="1292" y="710" on="0"/>
        <pt x="1121" y="646" on="0"/>
        <pt x="1026" y="647" on="1"/>
        <pt x="1100" y="649" on="0"/>
        <pt x="1229" y="603" on="0"/>
        <pt x="1327" y="525" on="0"/>
        <pt x="1386" y="427" on="0"/>
        <pt x="1389" y="377" on="1"/>
        <pt x="1394" y="292" on="0"/>
        <pt x="1342" y="170" on="0"/>
        <pt x="1246" y="86" on="0"/>
        <pt x="1117" y="35" on="0"/>
        <pt x="974" y="7" on="0"/>
        <pt x="828" y="-3" on="0"/>
        <pt x="764" y="-4" on="1"/>
        <pt x="636" y="-6" on="0"/>
        <pt x="429" y="-6" on="0"/>
        <pt x="354" y="-5" on="1"/>
        <pt x="266" y="-4" on="0"/>
        <pt x="197" y="-2" on="1"/>
        <pt x="194" y="87" on="0"/>
        <pt x="191" y="173" on="1"/>
        <pt x="190" y="210" on="0"/>
        <pt x="187" y="289" on="0"/>
        <pt x="185" y="367" on="0"/>
        <pt x="183" y="440" on="0"/>
        <pt x="182" y="471" on="1"/>
        <pt x="180" y="528" on="0"/>
        <pt x="174" y="670" on="0"/>
        <pt x="168" y="825" on="0"/>
        <pt x="162" y="984" on="0"/>
        <pt x="159" y="1058" on="1"/>
        <pt x="152" y="1232" on="0"/>
        <pt x="145" y="1415" on="1"/>
        <pt x="209" y="1424" on="0"/>
        <pt x="305" y="1433" on="1"/>
        <pt x="387" y="1441" on="0"/>
        <pt x="637" y="1458" on="0"/>
        <pt x="811" y="1464" on="1"/>
        <pt x="871" y="1466" on="0"/>
        <pt x="1015" y="1455" on="0"/>
        <pt x="1160" y="1424" on="0"/>
        <pt x="1297" y="1368" on="0"/>
        <pt x="1406" y="1282" on="0"/>
        <pt x="1476" y="1163" on="0"/>
      </contour>
      <contour>
        <pt x="1210" y="1038" on="1"/>
        <pt x="1205" y="1107" on="0"/>
        <pt x="1158" y="1211" on="0"/>
        <pt x="1082" y="1286" on="0"/>
        <pt x="982" y="1334" on="0"/>
        <pt x="870" y="1361" on="0"/>
        <pt x="750" y="1370" on="0"/>
        <pt x="692" y="1368" on="1"/>
        <pt x="672" y="1367" on="0"/>
        <pt x="582" y="1361" on="0"/>
        <pt x="534" y="1357" on="1"/>
        <pt x="479" y="1353" on="0"/>
        <pt x="414" y="1348" on="1"/>
        <pt x="442" y="674" on="1"/>
        <pt x="481" y="677" on="0"/>
        <pt x="530" y="680" on="1"/>
        <pt x="572" y="682" on="0"/>
        <pt x="690" y="688" on="0"/>
        <pt x="762" y="690" on="1"/>
        <pt x="846" y="693" on="0"/>
        <pt x="1011" y="727" on="0"/>
        <pt x="1141" y="805" on="0"/>
        <pt x="1216" y="937" on="0"/>
      </contour>
      <contour>
        <pt x="1114" y="360" on="1"/>
        <pt x="1109" y="432" on="0"/>
        <pt x="1036" y="521" on="0"/>
        <pt x="923" y="569" on="0"/>
        <pt x="782" y="585" on="0"/>
        <pt x="637" y="584" on="0"/>
        <pt x="501" y="573" on="0"/>
        <pt x="449" y="571" on="1"/>
        <pt x="473" y="92" on="1"/>
        <pt x="515" y="89" on="0"/>
        <pt x="565" y="86" on="1"/>
        <pt x="607" y="84" on="0"/>
        <pt x="719" y="82" on="0"/>
        <pt x="782" y="84" on="1"/>
        <pt x="845" y="86" on="0"/>
        <pt x="968" y="111" on="0"/>
        <pt x="1064" y="172" on="0"/>
        <pt x="1119" y="277" on="0"/>
      </contour>
    </TTGlyph>
    <TTGlyph name="C" xMin="88" yMin="-72" xMax="1599" yMax="1505">
      <contour>
        <pt x="1599" y="928" on="1"/>
        <pt x="1280" y="911" on="1"/>
        <pt x="1278" y="1005" on="0"/>
        <pt x="1224" y="1183" on="0"/>
        <pt x="1117" y="1322" on="0"/>
        <pt x="960" y="1407" on="0"/>
        <pt x="856" y="1407" on="1"/>
        <pt x="765" y="1407" on="0"/>
        <pt x="623" y="1348" on="0"/>
        <pt x="514" y="1248" on="0"/>
        <pt x="437" y="1113" on="0"/>
        <pt x="389" y="962" on="0"/>
        <pt x="367" y="801" on="0"/>
        <pt x="367" y="725" on="1"/>
        <pt x="367" y="645" on="0"/>
        <pt x="386" y="480" on="0"/>
        <pt x="430" y="325" on="0"/>
        <pt x="503" y="188" on="0"/>
        <pt x="612" y="86" on="0"/>
        <pt x="759" y="27" on="0"/>
        <pt x="856" y="27" on="1"/>
        <pt x="960" y="27" on="0"/>
        <pt x="1113" y="101" on="0"/>
        <pt x="1215" y="227" on="0"/>
        <pt x="1269" y="395" on="0"/>
        <pt x="1274" y="489" on="1"/>
        <pt x="1587" y="473" on="1"/>
        <pt x="1549" y="348" on="0"/>
        <pt x="1404" y="146" on="0"/>
        <pt x="1211" y="4" on="0"/>
        <pt x="976" y="-72" on="0"/>
        <pt x="848" y="-72" on="1"/>
        <pt x="671" y="-72" on="0"/>
        <pt x="390" y="47" on="0"/>
        <pt x="193" y="259" on="0"/>
        <pt x="88" y="551" on="0"/>
        <pt x="88" y="725" on="1"/>
        <pt x="88" y="892" on="0"/>
        <pt x="199" y="1178" on="0"/>
        <pt x="400" y="1387" on="0"/>
        <pt x="680" y="1505" on="0"/>
        <pt x="848" y="1505" on="1"/>
        <pt x="982" y="1505" on="0"/>
        <pt x="1227" y="1426" on="0"/>
        <pt x="1426" y="1277" on="0"/>
        <pt x="1568" y="1063" on="0"/>
      </contour>
    </TTGlyph>
    <TTGlyph name="Cacute" xMin="88" yMin="-72" xMax="1599" yMax="1954">
      <component glyphName="C" x="0" y="0" flags="0x204"/>
      <component glyphName="acute" x="754" y="500" flags="0x4"/>
    </TTGlyph>
    <TTGlyph name="Ccaron" xMin="88" yMin="-72" xMax="1599" yMax="1962">
      <component glyphName="C" x="0" y="0" flags="0x204"/>
      <component glyphName="caron" x="467" y="510" flags="0x4"/>
    </TTGlyph>
    <TTGlyph name="Ccedilla" xMin="88" yMin="-496" xMax="1599" yMax="1505">
      <contour>
        <pt x="823" y="-496" on="1"/>
        <pt x="794" y="-496" on="0"/>
        <pt x="731" y="-478" on="0"/>
        <pt x="671" y="-448" on="0"/>
        <pt x="617" y="-410" on="0"/>
        <pt x="596" y="-391" on="1"/>
        <pt x="723" y="-317" on="1"/>
        <pt x="731" y="-365" on="0"/>
        <pt x="793" y="-432" on="0"/>
        <pt x="844" y="-432" on="1"/>
        <pt x="865" y="-432" on="0"/>
        <pt x="898" y="-415" on="0"/>
        <pt x="919" y="-387" on="0"/>
        <pt x="930" y="-351" on="0"/>
        <pt x="930" y="-332" on="1"/>
        <pt x="930" y="-276" on="0"/>
        <pt x="869" y="-215" on="0"/>
        <pt x="813" y="-215" on="1"/>
        <pt x="785" y="-215" on="0"/>
        <pt x="730" y="-225" on="0"/>
        <pt x="702" y="-233" on="1"/>
        <pt x="766" y="-68" on="1"/>
        <pt x="608" y="-54" on="0"/>
        <pt x="356" y="75" on="0"/>
        <pt x="181" y="283" on="0"/>
        <pt x="88" y="561" on="0"/>
        <pt x="88" y="725" on="1"/>
        <pt x="88" y="892" on="0"/>
        <pt x="199" y="1178" on="0"/>
        <pt x="400" y="1387" on="0"/>
        <pt x="680" y="1505" on="0"/>
        <pt x="848" y="1505" on="1"/>
        <pt x="982" y="1505" on="0"/>
        <pt x="1227" y="1426" on="0"/>
        <pt x="1426" y="1277" on="0"/>
        <pt x="1568" y="1063" on="0"/>
        <pt x="1599" y="928" on="1"/>
        <pt x="1280" y="911" on="1"/>
        <pt x="1278" y="1005" on="0"/>
        <pt x="1224" y="1183" on="0"/>
        <pt x="1117" y="1322" on="0"/>
        <pt x="960" y="1407" on="0"/>
        <pt x="856" y="1407" on="1"/>
        <pt x="765" y="1407" on="0"/>
        <pt x="623" y="1348" on="0"/>
        <pt x="514" y="1248" on="0"/>
        <pt x="437" y="1113" on="0"/>
        <pt x="389" y="962" on="0"/>
        <pt x="367" y="801" on="0"/>
        <pt x="367" y="725" on="1"/>
        <pt x="367" y="645" on="0"/>
        <pt x="386" y="480" on="0"/>
        <pt x="430" y="325" on="0"/>
        <pt x="503" y="188" on="0"/>
        <pt x="612" y="86" on="0"/>
        <pt x="759" y="27" on="0"/>
        <pt x="856" y="27" on="1"/>
        <pt x="960" y="27" on="0"/>
        <pt x="1113" y="101" on="0"/>
        <pt x="1215" y="227" on="0"/>
        <pt x="1269" y="395" on="0"/>
        <pt x="1274" y="489" on="1"/>
        <pt x="1587" y="473" on="1"/>
        <pt x="1549" y="348" on="0"/>
        <pt x="1404" y="146" on="0"/>
        <pt x="1211" y="4" on="0"/>
        <pt x="976" y="-72" on="0"/>
        <pt x="848" y="-72" on="1"/>
        <pt x="819" y="-147" on="1"/>
        <pt x="868" y="-123" on="0"/>
        <pt x="924" y="-123" on="1"/>
        <pt x="959" y="-123" on="0"/>
        <pt x="1021" y="-153" on="0"/>
        <pt x="1066" y="-203" on="0"/>
        <pt x="1092" y="-267" on="0"/>
        <pt x="1092" y="-301" on="1"/>
        <pt x="1092" y="-352" on="0"/>
        <pt x="1040" y="-425" on="0"/>
        <pt x="961" y="-473" on="0"/>
        <pt x="866" y="-496" on="0"/>
      </contour>
    </TTGlyph>
    <TTGlyph name="Ccircumflex" xMin="88" yMin="-72" xMax="1599" yMax="1962">
      <component glyphName="C" x="0" y="0" flags="0x204"/>
      <component glyphName="circumflex" x="467" y="510" flags="0x4"/>
    </TTGlyph>
    <TTGlyph name="Cdotaccent" xMin="88" yMin="-72" xMax="1599" yMax="1798">
      <component glyphName="C" x="0" y="0" flags="0x204"/>
      <component glyphName="dotaccent" x="717" y="510" flags="0x4"/>
    </TTGlyph>
    <TTGlyph name="D" xMin="158" yMin="-41" xMax="1503" yMax="1460">
      <contour>
        <pt x="1503" y="725" on="1"/>
        <pt x="1503" y="614" on="0"/>
        <pt x="1442" y="415" on="0"/>
        <pt x="1333" y="245" on="0"/>
        <pt x="1183" y="108" on="0"/>
        <pt x="1002" y="11" on="0"/>
        <pt x="799" y="-41" on="0"/>
        <pt x="692" y="-41" on="1"/>
        <pt x="638" y="-41" on="0"/>
        <pt x="495" y="-39" on="0"/>
        <pt x="346" y="-31" on="0"/>
        <pt x="207" y="-13" on="0"/>
        <pt x="158" y="2" on="1"/>
        <pt x="158" y="12" on="1"/>
        <pt x="158" y="137" on="0"/>
        <pt x="163" y="383" on="0"/>
        <pt x="166" y="508" on="1"/>
        <pt x="171" y="737" on="0"/>
        <pt x="182" y="1190" on="0"/>
        <pt x="188" y="1419" on="1"/>
        <pt x="326" y="1441" on="0"/>
        <pt x="609" y="1460" on="0"/>
        <pt x="750" y="1460" on="1"/>
        <pt x="851" y="1460" on="0"/>
        <pt x="1041" y="1408" on="0"/>
        <pt x="1208" y="1312" on="0"/>
        <pt x="1347" y="1179" on="0"/>
        <pt x="1447" y="1015" on="0"/>
        <pt x="1503" y="827" on="0"/>
      </contour>
      <contour>
        <pt x="1227" y="748" on="1"/>
        <pt x="1227" y="898" on="0"/>
        <pt x="1159" y="1126" on="0"/>
        <pt x="1015" y="1281" on="0"/>
        <pt x="794" y="1360" on="0"/>
        <pt x="641" y="1360" on="1"/>
        <pt x="598" y="1360" on="0"/>
        <pt x="510" y="1359" on="0"/>
        <pt x="465" y="1356" on="1"/>
        <pt x="397" y="72" on="1"/>
        <pt x="472" y="56" on="0"/>
        <pt x="626" y="53" on="0"/>
        <pt x="700" y="53" on="1"/>
        <pt x="789" y="53" on="0"/>
        <pt x="937" y="113" on="0"/>
        <pt x="1054" y="216" on="0"/>
        <pt x="1141" y="354" on="0"/>
        <pt x="1199" y="508" on="0"/>
        <pt x="1227" y="671" on="0"/>
      </contour>
    </TTGlyph>
    <TTGlyph name="Dcaron" xMin="158" yMin="-41" xMax="1503" yMax="1933">
      <component glyphName="D" x="0" y="0" flags="0x204"/>
      <component glyphName="caron" x="426" y="481" flags="0x4"/>
    </TTGlyph>
    <TTGlyph name="Dcroat" xMin="31" yMin="-41" xMax="1520" yMax="1460">
      <component glyphName="Eth" x="0" y="0" flags="0x204"/>
    </TTGlyph>
    <TTGlyph name="E" xMin="154" yMin="0" xMax="1309" yMax="1456">
      <contour>
        <pt x="1024" y="473" on="1"/>
        <pt x="978" y="479" on="0"/>
        <pt x="873" y="487" on="0"/>
        <pt x="765" y="492" on="0"/>
        <pt x="659" y="494" on="0"/>
        <pt x="612" y="494" on="1"/>
        <pt x="567" y="494" on="0"/>
        <pt x="479" y="491" on="0"/>
        <pt x="434" y="489" on="1"/>
        <pt x="434" y="425" on="0"/>
        <pt x="434" y="317" on="0"/>
        <pt x="434" y="220" on="0"/>
        <pt x="435" y="128" on="0"/>
        <pt x="436" y="80" on="1"/>
        <pt x="491" y="83" on="0"/>
        <pt x="632" y="97" on="0"/>
        <pt x="786" y="116" on="0"/>
        <pt x="945" y="143" on="0"/>
        <pt x="1095" y="178" on="0"/>
        <pt x="1226" y="222" on="0"/>
        <pt x="1274" y="248" on="1"/>
        <pt x="1278" y="0" on="1"/>
        <pt x="154" y="0" on="1"/>
        <pt x="190" y="1438" on="1"/>
        <pt x="1309" y="1456" on="1"/>
        <pt x="1290" y="1180" on="1"/>
        <pt x="1248" y="1208" on="0"/>
        <pt x="1117" y="1252" on="0"/>
        <pt x="962" y="1286" on="0"/>
        <pt x="792" y="1311" on="0"/>
        <pt x="629" y="1327" on="0"/>
        <pt x="486" y="1337" on="0"/>
        <pt x="434" y="1339" on="1"/>
        <pt x="434" y="588" on="1"/>
        <pt x="446" y="588" on="1"/>
        <pt x="514" y="588" on="0"/>
        <pt x="662" y="592" on="0"/>
        <pt x="813" y="600" on="0"/>
        <pt x="960" y="611" on="0"/>
        <pt x="1028" y="618" on="1"/>
      </contour>
    </TTGlyph>
    <TTGlyph name="Eacute" xMin="154" yMin="0" xMax="1309" yMax="1905">
      <component glyphName="E" x="0" y="0" flags="0x204"/>
      <component glyphName="acute" x="682" y="451" flags="0x4"/>
    </TTGlyph>
    <TTGlyph name="Ebreve" xMin="154" yMin="0" xMax="1309" yMax="1866">
      <component glyphName="E" x="0" y="0" flags="0x204"/>
      <component glyphName="breve" x="369" y="471" flags="0x4"/>
    </TTGlyph>
    <TTGlyph name="Ecaron" xMin="154" yMin="0" xMax="1309" yMax="1909">
      <component glyphName="E" x="0" y="0" flags="0x204"/>
      <component glyphName="caron" x="326" y="457" flags="0x4"/>
    </TTGlyph>
    <TTGlyph name="Ecircumflex" xMin="154" yMin="0" xMax="1309" yMax="1927">
      <component glyphName="E" x="0" y="0" flags="0x204"/>
      <component glyphName="circumflex" x="367" y="475" flags="0x4"/>
    </TTGlyph>
    <TTGlyph name="Edieresis" xMin="154" yMin="0" xMax="1309" yMax="1747">
      <component glyphName="E" x="0" y="0" flags="0x204"/>
      <component glyphName="dieresis" x="446" y="459" flags="0x4"/>
    </TTGlyph>
    <TTGlyph name="Edotaccent" xMin="154" yMin="0" xMax="1309" yMax="1734">
      <component glyphName="E" x="0" y="0" flags="0x204"/>
      <component glyphName="dotaccent" x="575" y="446" flags="0x4"/>
    </TTGlyph>
    <TTGlyph name="Egrave" xMin="154" yMin="0" xMax="1309" yMax="1900">
      <component glyphName="E" x="0" y="0" flags="0x204"/>
      <component glyphName="grave" x="324" y="446" flags="0x4"/>
    </TTGlyph>
    <TTGlyph name="Emacron" xMin="154" yMin="0" xMax="1309" yMax="1723">
      <component glyphName="E" x="0" y="0" flags="0x204"/>
      <component glyphName="macron" x="356" y="371" flags="0x4"/>
    </TTGlyph>
    <TTGlyph name="Eng" xMin="156" yMin="-489" xMax="1563" yMax="1458">
      <contour>
        <pt x="1563" y="1425" on="1"/>
        <pt x="1563" y="1419" on="0"/>
        <pt x="1559" y="1311" on="0"/>
        <pt x="1551" y="1138" on="0"/>
        <pt x="1538" y="915" on="0"/>
        <pt x="1521" y="675" on="0"/>
        <pt x="1500" y="432" on="0"/>
        <pt x="1476" y="217" on="0"/>
        <pt x="1448" y="47" on="0"/>
        <pt x="1432" y="0" on="1"/>
        <pt x="1390" y="-125" on="0"/>
        <pt x="1279" y="-308" on="0"/>
        <pt x="1123" y="-430" on="0"/>
        <pt x="913" y="-489" on="0"/>
        <pt x="772" y="-489" on="1"/>
        <pt x="697" y="-489" on="0"/>
        <pt x="571" y="-462" on="0"/>
        <pt x="462" y="-414" on="0"/>
        <pt x="369" y="-348" on="0"/>
        <pt x="328" y="-309" on="1"/>
        <pt x="518" y="-195" on="1"/>
        <pt x="545" y="-246" on="0"/>
        <pt x="617" y="-322" on="0"/>
        <pt x="700" y="-372" on="0"/>
        <pt x="791" y="-397" on="0"/>
        <pt x="836" y="-397" on="1"/>
        <pt x="917" y="-397" on="0"/>
        <pt x="1050" y="-337" on="0"/>
        <pt x="1152" y="-229" on="0"/>
        <pt x="1225" y="-81" on="0"/>
        <pt x="1247" y="6" on="1"/>
        <pt x="1196" y="82" on="0"/>
        <pt x="1072" y="272" on="0"/>
        <pt x="939" y="480" on="0"/>
        <pt x="802" y="694" on="0"/>
        <pt x="739" y="794" on="1"/>
        <pt x="589" y="1029" on="0"/>
        <pt x="434" y="1278" on="1"/>
        <pt x="429" y="1006" on="0"/>
        <pt x="427" y="760" on="1"/>
        <pt x="426" y="655" on="0"/>
        <pt x="426" y="437" on="0"/>
        <pt x="427" y="235" on="0"/>
        <pt x="432" y="61" on="0"/>
        <pt x="436" y="0" on="1"/>
        <pt x="223" y="-27" on="1"/>
        <pt x="207" y="57" on="0"/>
        <pt x="185" y="271" on="0"/>
        <pt x="170" y="507" on="0"/>
        <pt x="162" y="752" on="0"/>
        <pt x="160" y="868" on="1"/>
        <pt x="156" y="1139" on="0"/>
        <pt x="160" y="1427" on="1"/>
        <pt x="559" y="1458" on="1"/>
        <pt x="1274" y="217" on="1"/>
        <pt x="1285" y="347" on="0"/>
        <pt x="1289" y="646" on="0"/>
        <pt x="1278" y="964" on="0"/>
        <pt x="1252" y="1290" on="0"/>
        <pt x="1233" y="1448" on="1"/>
      </contour>
    </TTGlyph>
    <TTGlyph name="Eogonek" xMin="154" yMin="-375" xMax="1335" yMax="1456">
      <contour>
        <pt x="1335" y="-158" on="1"/>
        <pt x="1324" y="-207" on="0"/>
        <pt x="1276" y="-287" on="0"/>
        <pt x="1207" y="-344" on="0"/>
        <pt x="1119" y="-375" on="0"/>
        <pt x="1069" y="-375" on="1"/>
        <pt x="1029" y="-375" on="0"/>
        <pt x="955" y="-351" on="0"/>
        <pt x="897" y="-306" on="0"/>
        <pt x="862" y="-240" on="0"/>
        <pt x="862" y="-197" on="1"/>
        <pt x="862" y="-143" on="0"/>
        <pt x="911" y="-43" on="0"/>
        <pt x="946" y="0" on="1"/>
        <pt x="154" y="0" on="1"/>
        <pt x="190" y="1438" on="1"/>
        <pt x="1309" y="1456" on="1"/>
        <pt x="1290" y="1180" on="1"/>
        <pt x="1248" y="1208" on="0"/>
        <pt x="1117" y="1252" on="0"/>
        <pt x="962" y="1286" on="0"/>
        <pt x="792" y="1311" on="0"/>
        <pt x="629" y="1327" on="0"/>
        <pt x="486" y="1337" on="0"/>
        <pt x="434" y="1339" on="1"/>
        <pt x="434" y="588" on="1"/>
        <pt x="446" y="588" on="1"/>
        <pt x="514" y="588" on="0"/>
        <pt x="662" y="592" on="0"/>
        <pt x="813" y="600" on="0"/>
        <pt x="960" y="611" on="0"/>
        <pt x="1028" y="618" on="1"/>
        <pt x="1024" y="473" on="1"/>
        <pt x="978" y="479" on="0"/>
        <pt x="873" y="487" on="0"/>
        <pt x="765" y="492" on="0"/>
        <pt x="659" y="494" on="0"/>
        <pt x="612" y="494" on="1"/>
        <pt x="567" y="494" on="0"/>
        <pt x="479" y="491" on="0"/>
        <pt x="434" y="489" on="1"/>
        <pt x="434" y="425" on="0"/>
        <pt x="434" y="317" on="0"/>
        <pt x="434" y="220" on="0"/>
        <pt x="435" y="128" on="0"/>
        <pt x="436" y="80" on="1"/>
        <pt x="491" y="83" on="0"/>
        <pt x="632" y="97" on="0"/>
        <pt x="786" y="116" on="0"/>
        <pt x="945" y="143" on="0"/>
        <pt x="1095" y="178" on="0"/>
        <pt x="1226" y="222" on="0"/>
        <pt x="1274" y="248" on="1"/>
        <pt x="1278" y="0" on="1"/>
        <pt x="1055" y="0" on="1"/>
        <pt x="1030" y="-40" on="0"/>
        <pt x="1004" y="-130" on="0"/>
        <pt x="1004" y="-176" on="1"/>
        <pt x="1004" y="-194" on="0"/>
        <pt x="1014" y="-242" on="0"/>
        <pt x="1035" y="-285" on="0"/>
        <pt x="1069" y="-315" on="0"/>
        <pt x="1092" y="-315" on="1"/>
        <pt x="1117" y="-315" on="0"/>
        <pt x="1149" y="-287" on="0"/>
        <pt x="1167" y="-246" on="0"/>
        <pt x="1174" y="-199" on="0"/>
        <pt x="1174" y="-180" on="1"/>
        <pt x="1174" y="-165" on="0"/>
        <pt x="1170" y="-132" on="0"/>
        <pt x="1167" y="-115" on="1"/>
      </contour>
    </TTGlyph>
    <TTGlyph name="Eth" xMin="31" yMin="-41" xMax="1520" yMax="1460">
      <contour>
        <pt x="1520" y="725" on="1"/>
        <pt x="1520" y="614" on="0"/>
        <pt x="1459" y="415" on="0"/>
        <pt x="1350" y="245" on="0"/>
        <pt x="1200" y="108" on="0"/>
        <pt x="1019" y="11" on="0"/>
        <pt x="816" y="-41" on="0"/>
        <pt x="709" y="-41" on="1"/>
        <pt x="655" y="-41" on="0"/>
        <pt x="511" y="-39" on="0"/>
        <pt x="362" y="-31" on="0"/>
        <pt x="223" y="-13" on="0"/>
        <pt x="174" y="2" on="1"/>
        <pt x="174" y="12" on="1"/>
        <pt x="174" y="137" on="0"/>
        <pt x="179" y="383" on="0"/>
        <pt x="182" y="508" on="1"/>
        <pt x="182" y="534" on="0"/>
        <pt x="182" y="586" on="0"/>
        <pt x="184" y="612" on="1"/>
        <pt x="141" y="607" on="0"/>
        <pt x="63" y="596" on="0"/>
        <pt x="31" y="588" on="1"/>
        <pt x="31" y="772" on="1"/>
        <pt x="59" y="770" on="0"/>
        <pt x="144" y="768" on="0"/>
        <pt x="186" y="768" on="1"/>
        <pt x="205" y="1419" on="1"/>
        <pt x="342" y="1441" on="0"/>
        <pt x="626" y="1460" on="0"/>
        <pt x="766" y="1460" on="1"/>
        <pt x="867" y="1460" on="0"/>
        <pt x="1057" y="1408" on="0"/>
        <pt x="1224" y="1312" on="0"/>
        <pt x="1364" y="1179" on="0"/>
        <pt x="1464" y="1015" on="0"/>
        <pt x="1520" y="827" on="0"/>
      </contour>
      <contour>
        <pt x="805" y="614" on="1"/>
        <pt x="774" y="617" on="0"/>
        <pt x="693" y="622" on="0"/>
        <pt x="607" y="625" on="0"/>
        <pt x="525" y="627" on="0"/>
        <pt x="494" y="627" on="1"/>
        <pt x="442" y="627" on="1"/>
        <pt x="414" y="72" on="1"/>
        <pt x="488" y="56" on="0"/>
        <pt x="642" y="53" on="0"/>
        <pt x="717" y="53" on="1"/>
        <pt x="806" y="53" on="0"/>
        <pt x="953" y="113" on="0"/>
        <pt x="1070" y="216" on="0"/>
        <pt x="1157" y="354" on="0"/>
        <pt x="1215" y="508" on="0"/>
        <pt x="1243" y="671" on="0"/>
        <pt x="1243" y="748" on="1"/>
        <pt x="1243" y="898" on="0"/>
        <pt x="1175" y="1126" on="0"/>
        <pt x="1031" y="1281" on="0"/>
        <pt x="810" y="1360" on="0"/>
        <pt x="657" y="1360" on="1"/>
        <pt x="614" y="1360" on="0"/>
        <pt x="526" y="1359" on="0"/>
        <pt x="481" y="1356" on="1"/>
        <pt x="451" y="770" on="1"/>
        <pt x="542" y="773" on="0"/>
        <pt x="727" y="786" on="0"/>
        <pt x="805" y="797" on="1"/>
      </contour>
    </TTGlyph>
    <TTGlyph name="Euro" xMin="72" yMin="-72" xMax="1735" yMax="1505">
      <contour>
        <pt x="778" y="451" on="1"/>
        <pt x="741" y="454" on="0"/>
        <pt x="668" y="459" on="0"/>
        <pt x="631" y="461" on="1"/>
        <pt x="650" y="373" on="0"/>
        <pt x="721" y="216" on="0"/>
        <pt x="832" y="97" on="0"/>
        <pt x="990" y="27" on="0"/>
        <pt x="1096" y="27" on="1"/>
        <pt x="1244" y="27" on="0"/>
        <pt x="1441" y="181" on="0"/>
        <pt x="1485" y="322" on="1"/>
        <pt x="1720" y="256" on="1"/>
        <pt x="1666" y="177" on="0"/>
        <pt x="1526" y="55" on="0"/>
        <pt x="1362" y="-29" on="0"/>
        <pt x="1180" y="-72" on="0"/>
        <pt x="1085" y="-72" on="1"/>
        <pt x="944" y="-72" on="0"/>
        <pt x="708" y="5" on="0"/>
        <pt x="524" y="144" on="0"/>
        <pt x="395" y="341" on="0"/>
        <pt x="362" y="461" on="1"/>
        <pt x="288" y="458" on="0"/>
        <pt x="141" y="441" on="0"/>
        <pt x="72" y="424" on="1"/>
        <pt x="131" y="608" on="1"/>
        <pt x="182" y="605" on="0"/>
        <pt x="283" y="604" on="0"/>
        <pt x="334" y="604" on="1"/>
        <pt x="328" y="662" on="0"/>
        <pt x="328" y="725" on="1"/>
        <pt x="328" y="739" on="1"/>
        <pt x="284" y="734" on="0"/>
        <pt x="202" y="720" on="0"/>
        <pt x="162" y="711" on="1"/>
        <pt x="221" y="895" on="1"/>
        <pt x="252" y="893" on="0"/>
        <pt x="311" y="891" on="0"/>
        <pt x="342" y="891" on="1"/>
        <pt x="367" y="1025" on="0"/>
        <pt x="496" y="1251" on="0"/>
        <pt x="688" y="1414" on="0"/>
        <pt x="938" y="1505" on="0"/>
        <pt x="1085" y="1505" on="1"/>
        <pt x="1183" y="1505" on="0"/>
        <pt x="1369" y="1462" on="0"/>
        <pt x="1537" y="1378" on="0"/>
        <pt x="1680" y="1253" on="0"/>
        <pt x="1735" y="1171" on="1"/>
        <pt x="1499" y="1061" on="1"/>
        <pt x="1481" y="1136" on="0"/>
        <pt x="1410" y="1262" on="0"/>
        <pt x="1308" y="1355" on="0"/>
        <pt x="1176" y="1407" on="0"/>
        <pt x="1096" y="1407" on="1"/>
        <pt x="1022" y="1407" on="0"/>
        <pt x="899" y="1367" on="0"/>
        <pt x="799" y="1296" on="0"/>
        <pt x="721" y="1199" on="0"/>
        <pt x="664" y="1085" on="0"/>
        <pt x="626" y="958" on="0"/>
        <pt x="616" y="893" on="1"/>
        <pt x="695" y="896" on="0"/>
        <pt x="848" y="909" on="0"/>
        <pt x="926" y="920" on="1"/>
        <pt x="868" y="737" on="1"/>
        <pt x="802" y="743" on="0"/>
        <pt x="670" y="750" on="0"/>
        <pt x="604" y="750" on="1"/>
        <pt x="604" y="725" on="1"/>
        <pt x="604" y="697" on="0"/>
        <pt x="605" y="639" on="0"/>
        <pt x="608" y="610" on="1"/>
        <pt x="665" y="613" on="0"/>
        <pt x="779" y="625" on="0"/>
        <pt x="836" y="633" on="1"/>
      </contour>
    </TTGlyph>
    <TTGlyph name="F" xMin="160" yMin="4" xMax="1311" yMax="1438">
      <contour>
        <pt x="1174" y="637" on="1"/>
        <pt x="1143" y="641" on="0"/>
        <pt x="1051" y="647" on="0"/>
        <pt x="944" y="652" on="0"/>
        <pt x="829" y="654" on="0"/>
        <pt x="722" y="656" on="0"/>
        <pt x="629" y="657" on="0"/>
        <pt x="598" y="657" on="1"/>
        <pt x="555" y="657" on="0"/>
        <pt x="471" y="657" on="0"/>
        <pt x="428" y="655" on="1"/>
        <pt x="426" y="516" on="0"/>
        <pt x="428" y="244" on="0"/>
        <pt x="428" y="104" on="1"/>
        <pt x="428" y="80" on="0"/>
        <pt x="428" y="33" on="0"/>
        <pt x="430" y="8" on="1"/>
        <pt x="184" y="4" on="1"/>
        <pt x="160" y="1438" on="1"/>
        <pt x="1311" y="1430" on="1"/>
        <pt x="1307" y="1176" on="1"/>
        <pt x="1265" y="1202" on="0"/>
        <pt x="1132" y="1246" on="0"/>
        <pt x="974" y="1281" on="0"/>
        <pt x="801" y="1307" on="0"/>
        <pt x="637" y="1326" on="0"/>
        <pt x="493" y="1338" on="0"/>
        <pt x="442" y="1341" on="1"/>
        <pt x="436" y="1193" on="0"/>
        <pt x="430" y="900" on="0"/>
        <pt x="428" y="752" on="1"/>
        <pt x="432" y="752" on="1"/>
        <pt x="477" y="752" on="0"/>
        <pt x="598" y="754" on="0"/>
        <pt x="734" y="758" on="0"/>
        <pt x="877" y="763" on="0"/>
        <pt x="1013" y="770" on="0"/>
        <pt x="1133" y="777" on="0"/>
        <pt x="1178" y="782" on="1"/>
      </contour>
    </TTGlyph>
    <TTGlyph name="G" xMin="88" yMin="-72" xMax="1624" yMax="1509">
      <contour>
        <pt x="1624" y="690" on="1"/>
        <pt x="1624" y="512" on="0"/>
        <pt x="1501" y="229" on="0"/>
        <pt x="1289" y="33" on="0"/>
        <pt x="1007" y="-72" on="0"/>
        <pt x="848" y="-72" on="1"/>
        <pt x="674" y="-72" on="0"/>
        <pt x="393" y="46" on="0"/>
        <pt x="195" y="257" on="0"/>
        <pt x="88" y="547" on="0"/>
        <pt x="88" y="719" on="1"/>
        <pt x="88" y="884" on="0"/>
        <pt x="201" y="1172" on="0"/>
        <pt x="403" y="1386" on="0"/>
        <pt x="682" y="1509" on="0"/>
        <pt x="848" y="1509" on="1"/>
        <pt x="962" y="1509" on="0"/>
        <pt x="1172" y="1464" on="0"/>
        <pt x="1362" y="1357" on="0"/>
        <pt x="1528" y="1181" on="0"/>
        <pt x="1597" y="1051" on="1"/>
        <pt x="1231" y="997" on="1"/>
        <pt x="1226" y="1088" on="0"/>
        <pt x="1172" y="1239" on="0"/>
        <pt x="1076" y="1348" on="0"/>
        <pt x="942" y="1409" on="0"/>
        <pt x="858" y="1409" on="1"/>
        <pt x="768" y="1409" on="0"/>
        <pt x="624" y="1349" on="0"/>
        <pt x="512" y="1245" on="0"/>
        <pt x="431" y="1108" on="0"/>
        <pt x="379" y="955" on="0"/>
        <pt x="354" y="794" on="0"/>
        <pt x="354" y="719" on="1"/>
        <pt x="354" y="639" on="0"/>
        <pt x="376" y="475" on="0"/>
        <pt x="425" y="321" on="0"/>
        <pt x="503" y="187" on="0"/>
        <pt x="615" y="87" on="0"/>
        <pt x="763" y="29" on="0"/>
        <pt x="858" y="29" on="1"/>
        <pt x="966" y="29" on="0"/>
        <pt x="1137" y="118" on="0"/>
        <pt x="1256" y="264" on="0"/>
        <pt x="1319" y="451" on="0"/>
        <pt x="1319" y="549" on="1"/>
        <pt x="1319" y="563" on="1"/>
        <pt x="1244" y="552" on="0"/>
        <pt x="1087" y="514" on="0"/>
        <pt x="938" y="453" on="0"/>
        <pt x="804" y="366" on="0"/>
        <pt x="750" y="307" on="1"/>
        <pt x="692" y="612" on="1"/>
      </contour>
    </TTGlyph>
    <TTGlyph name="Gbreve" xMin="88" yMin="-72" xMax="1624" yMax="1936">
      <component glyphName="G" x="0" y="0" flags="0x204"/>
      <component glyphName="breve" x="520" y="541" flags="0x4"/>
    </TTGlyph>
    <TTGlyph name="Gcircumflex" xMin="88" yMin="-72" xMax="1624" yMax="1962">
      <component glyphName="G" x="0" y="0" flags="0x204"/>
      <component glyphName="circumflex" x="481" y="510" flags="0x4"/>
    </TTGlyph>
    <TTGlyph name="Gcommaaccent" xMin="88" yMin="-486" xMax="1624" yMax="1509">
      <component glyphName="G" x="0" y="0" flags="0x204"/>
      <component glyphName="uni0326" x="682" y="-50" flags="0x4"/>
    </TTGlyph>
    <TTGlyph name="Gdotaccent" xMin="88" yMin="-72" xMax="1624" yMax="1798">
      <component glyphName="G" x="0" y="0" flags="0x204"/>
      <component glyphName="dotaccent" x="731" y="510" flags="0x4"/>
    </TTGlyph>
    <TTGlyph name="H" xMin="147" yMin="-39" xMax="1542" yMax="1497">
      <contour>
        <pt x="436" y="1456" on="1"/>
        <pt x="424" y="543" on="1"/>
        <pt x="559" y="537" on="0"/>
        <pt x="694" y="537" on="1"/>
        <pt x="739" y="537" on="0"/>
        <pt x="875" y="538" on="0"/>
        <pt x="1025" y="541" on="0"/>
        <pt x="1175" y="545" on="0"/>
        <pt x="1235" y="549" on="1"/>
        <pt x="1247" y="1497" on="1"/>
        <pt x="1542" y="1464" on="1"/>
        <pt x="1434" y="4" on="1"/>
        <pt x="1229" y="4" on="1"/>
        <pt x="1233" y="442" on="1"/>
        <pt x="1168" y="448" on="0"/>
        <pt x="1016" y="455" on="0"/>
        <pt x="868" y="459" on="0"/>
        <pt x="734" y="461" on="0"/>
        <pt x="686" y="461" on="1"/>
        <pt x="620" y="461" on="0"/>
        <pt x="488" y="458" on="0"/>
        <pt x="422" y="453" on="1"/>
        <pt x="416" y="-31" on="1"/>
        <pt x="197" y="-39" on="1"/>
        <pt x="147" y="1423" on="1"/>
      </contour>
    </TTGlyph>
    <TTGlyph name="Hbar" xMin="33" yMin="-39" xMax="1634" yMax="1497">
      <contour>
        <pt x="1634" y="700" on="1"/>
        <pt x="1485" y="707" on="1"/>
        <pt x="1434" y="4" on="1"/>
        <pt x="1229" y="4" on="1"/>
        <pt x="1233" y="442" on="1"/>
        <pt x="1168" y="448" on="0"/>
        <pt x="1016" y="455" on="0"/>
        <pt x="868" y="459" on="0"/>
        <pt x="734" y="461" on="0"/>
        <pt x="686" y="461" on="1"/>
        <pt x="620" y="461" on="0"/>
        <pt x="488" y="458" on="0"/>
        <pt x="422" y="453" on="1"/>
        <pt x="416" y="-31" on="1"/>
        <pt x="197" y="-39" on="1"/>
        <pt x="172" y="707" on="1"/>
        <pt x="33" y="700" on="1"/>
        <pt x="33" y="821" on="1"/>
        <pt x="168" y="815" on="1"/>
        <pt x="147" y="1423" on="1"/>
        <pt x="436" y="1456" on="1"/>
        <pt x="426" y="805" on="1"/>
        <pt x="831" y="796" on="0"/>
        <pt x="1237" y="805" on="1"/>
        <pt x="1247" y="1497" on="1"/>
        <pt x="1542" y="1464" on="1"/>
        <pt x="1493" y="813" on="1"/>
        <pt x="1634" y="821" on="1"/>
      </contour>
      <contour>
        <pt x="694" y="537" on="1"/>
        <pt x="739" y="537" on="0"/>
        <pt x="875" y="538" on="0"/>
        <pt x="1025" y="541" on="0"/>
        <pt x="1175" y="545" on="0"/>
        <pt x="1235" y="549" on="1"/>
        <pt x="1237" y="715" on="1"/>
        <pt x="831" y="727" on="0"/>
        <pt x="426" y="715" on="1"/>
        <pt x="424" y="543" on="1"/>
        <pt x="559" y="537" on="0"/>
      </contour>
    </TTGlyph>
    <TTGlyph name="Hcircumflex" xMin="147" yMin="-39" xMax="1542" yMax="1903">
      <component glyphName="H" x="0" y="0" flags="0x204"/>
      <component glyphName="circumflex" x="467" y="451" flags="0x4"/>
    </TTGlyph>
    <TTGlyph name="I" xMin="152" yMin="-2" xMax="446" yMax="1450">
      <contour>
        <pt x="446" y="1450" on="1"/>
        <pt x="395" y="2" on="1"/>
        <pt x="193" y="-2" on="1"/>
        <pt x="152" y="1432" on="1"/>
      </contour>
    </TTGlyph>
    <TTGlyph name="IJ" xMin="152" yMin="-88" xMax="1983" yMax="1473">
      <component glyphName="I" x="0" y="0" flags="0x4"/>
      <component glyphName="J" x="594" y="0" flags="0x4"/>
    </TTGlyph>
    <TTGlyph name="Iacute" xMin="152" yMin="-2" xMax="754" yMax="1900">
      <component glyphName="I" x="0" y="0" flags="0x204"/>
      <component glyphName="acute" x="258" y="446" flags="0x4"/>
    </TTGlyph>
    <TTGlyph name="Ibreve" xMin="-22" yMin="-2" xMax="619" yMax="1880">
      <component glyphName="I" x="0" y="0" flags="0x204"/>
      <component glyphName="breve" x="-22" y="485" flags="0x4"/>
    </TTGlyph>
    <TTGlyph name="Icircumflex" xMin="-62" yMin="-2" xMax="665" yMax="1905">
      <component glyphName="I" x="0" y="0" flags="0x204"/>
      <component glyphName="circumflex" x="-62" y="453" flags="0x4"/>
    </TTGlyph>
    <TTGlyph name="Idieresis" xMin="16" yMin="-2" xMax="583" yMax="1751">
      <component glyphName="I" x="0" y="0" flags="0x204"/>
      <component glyphName="dieresis" x="16" y="463" flags="0x4"/>
    </TTGlyph>
    <TTGlyph name="Idotaccent" xMin="152" yMin="-2" xMax="446" yMax="1734">
      <component glyphName="I" x="0" y="0" flags="0x204"/>
      <component glyphName="dotaccent" x="182" y="446" flags="0x4"/>
    </TTGlyph>
    <TTGlyph name="Igrave" xMin="-126" yMin="-2" xMax="446" yMax="1905">
      <component glyphName="I" x="0" y="0" flags="0x204"/>
      <component glyphName="grave" x="-126" y="451" flags="0x4"/>
    </TTGlyph>
    <TTGlyph name="Imacron" xMin="-34" yMin="-2" xMax="632" yMax="1723">
      <component glyphName="I" x="0" y="0" flags="0x204"/>
      <component glyphName="macron" x="-34" y="371" flags="0x4"/>
    </TTGlyph>
    <TTGlyph name="Iogonek" xMin="137" yMin="-395" xMax="610" yMax="1450">
      <contour>
        <pt x="610" y="-178" on="1"/>
        <pt x="599" y="-227" on="0"/>
        <pt x="551" y="-307" on="0"/>
        <pt x="482" y="-364" on="0"/>
        <pt x="394" y="-395" on="0"/>
        <pt x="344" y="-395" on="1"/>
        <pt x="304" y="-395" on="0"/>
        <pt x="230" y="-372" on="0"/>
        <pt x="172" y="-327" on="0"/>
        <pt x="137" y="-260" on="0"/>
        <pt x="137" y="-217" on="1"/>
        <pt x="137" y="-157" on="0"/>
        <pt x="196" y="-46" on="0"/>
        <pt x="238" y="0" on="1"/>
        <pt x="193" y="-2" on="1"/>
        <pt x="152" y="1432" on="1"/>
        <pt x="446" y="1450" on="1"/>
        <pt x="395" y="2" on="1"/>
        <pt x="342" y="0" on="1"/>
        <pt x="313" y="-43" on="0"/>
        <pt x="279" y="-144" on="0"/>
        <pt x="279" y="-197" on="1"/>
        <pt x="279" y="-215" on="0"/>
        <pt x="289" y="-263" on="0"/>
        <pt x="310" y="-306" on="0"/>
        <pt x="344" y="-336" on="0"/>
        <pt x="367" y="-336" on="1"/>
        <pt x="392" y="-336" on="0"/>
        <pt x="424" y="-308" on="0"/>
        <pt x="442" y="-267" on="0"/>
        <pt x="449" y="-220" on="0"/>
        <pt x="449" y="-201" on="1"/>
        <pt x="449" y="-185" on="0"/>
        <pt x="445" y="-152" on="0"/>
        <pt x="442" y="-135" on="1"/>
      </contour>
    </TTGlyph>
    <TTGlyph name="Itilde" xMin="-77" yMin="-2" xMax="675" yMax="1764">
      <component glyphName="I" x="0" y="0" flags="0x204"/>
      <component glyphName="tilde" x="-77" y="418" flags="0x4"/>
    </TTGlyph>
    <TTGlyph name="J" xMin="27" yMin="-88" xMax="1389" yMax="1473">
      <contour>
        <pt x="629" y="-88" on="1"/>
        <pt x="485" y="-88" on="0"/>
        <pt x="270" y="-3" on="0"/>
        <pt x="122" y="161" on="0"/>
        <pt x="39" y="400" on="0"/>
        <pt x="27" y="555" on="1"/>
        <pt x="356" y="543" on="1"/>
        <pt x="348" y="502" on="0"/>
        <pt x="340" y="423" on="0"/>
        <pt x="340" y="381" on="1"/>
        <pt x="340" y="283" on="0"/>
        <pt x="404" y="140" on="0"/>
        <pt x="505" y="48" on="0"/>
        <pt x="630" y="4" on="0"/>
        <pt x="692" y="4" on="1"/>
        <pt x="806" y="4" on="0"/>
        <pt x="971" y="119" on="0"/>
        <pt x="1078" y="313" on="0"/>
        <pt x="1128" y="570" on="0"/>
        <pt x="1128" y="711" on="1"/>
        <pt x="1128" y="790" on="0"/>
        <pt x="1103" y="981" on="0"/>
        <pt x="1062" y="1176" on="0"/>
        <pt x="1007" y="1359" on="0"/>
        <pt x="977" y="1430" on="1"/>
        <pt x="1311" y="1473" on="1"/>
        <pt x="1351" y="1324" on="0"/>
        <pt x="1389" y="1019" on="0"/>
        <pt x="1389" y="866" on="1"/>
        <pt x="1389" y="729" on="0"/>
        <pt x="1356" y="481" on="0"/>
        <pt x="1283" y="269" on="0"/>
        <pt x="1165" y="98" on="0"/>
        <pt x="996" y="-23" on="0"/>
        <pt x="772" y="-88" on="0"/>
      </contour>
    </TTGlyph>
    <TTGlyph name="Jcircumflex" xMin="27" yMin="-88" xMax="1487" yMax="1915">
      <component glyphName="J" x="0" y="0" flags="0x204"/>
      <component glyphName="circumflex" x="760" y="463" flags="0x4"/>
    </TTGlyph>
    <TTGlyph name="K" xMin="172" yMin="-55" xMax="1495" yMax="1438">
      <contour>
        <pt x="473" y="1421" on="1"/>
        <pt x="414" y="551" on="1"/>
        <pt x="515" y="606" on="0"/>
        <pt x="703" y="752" on="0"/>
        <pt x="870" y="916" on="0"/>
        <pt x="1012" y="1087" on="0"/>
        <pt x="1121" y="1247" on="0"/>
        <pt x="1193" y="1387" on="0"/>
        <pt x="1206" y="1438" on="1"/>
        <pt x="1495" y="1364" on="1"/>
        <pt x="1463" y="1289" on="0"/>
        <pt x="1339" y="1114" on="0"/>
        <pt x="1172" y="932" on="0"/>
        <pt x="971" y="754" on="0"/>
        <pt x="862" y="676" on="1"/>
        <pt x="1479" y="27" on="1"/>
        <pt x="1159" y="-55" on="1"/>
        <pt x="743" y="596" on="1"/>
        <pt x="658" y="543" on="0"/>
        <pt x="489" y="458" on="0"/>
        <pt x="406" y="430" on="1"/>
        <pt x="377" y="-12" on="1"/>
        <pt x="172" y="-16" on="1"/>
        <pt x="172" y="1434" on="1"/>
      </contour>
    </TTGlyph>
    <TTGlyph name="Kcommaaccent" xMin="172" yMin="-436" xMax="1495" yMax="1438">
      <component glyphName="K" x="0" y="0" flags="0x204"/>
      <component glyphName="uni0326" x="471" y="0" flags="0x4"/>
    </TTGlyph>
    <TTGlyph name="L" xMin="162" yMin="-6" xMax="1274" yMax="1456">
      <contour>
        <pt x="1274" y="283" on="1"/>
        <pt x="1260" y="-2" on="1"/>
        <pt x="184" y="-6" on="1"/>
        <pt x="162" y="1413" on="1"/>
        <pt x="487" y="1456" on="1"/>
        <pt x="471" y="1300" on="0"/>
        <pt x="440" y="971" on="0"/>
        <pt x="416" y="636" on="0"/>
        <pt x="402" y="304" on="0"/>
        <pt x="403" y="145" on="1"/>
        <pt x="403" y="100" on="1"/>
        <pt x="455" y="102" on="0"/>
        <pt x="603" y="113" on="0"/>
        <pt x="771" y="132" on="0"/>
        <pt x="946" y="161" on="0"/>
        <pt x="1105" y="200" on="0"/>
        <pt x="1235" y="251" on="0"/>
      </contour>
    </TTGlyph>
    <TTGlyph name="Lacute" xMin="162" yMin="-6" xMax="1274" yMax="1964">
      <component glyphName="L" x="0" y="0" flags="0x204"/>
      <component glyphName="acute" x="401" y="510" flags="0x4"/>
    </TTGlyph>
    <TTGlyph name="Lcaron" xMin="162" yMin="-6" xMax="1274" yMax="1495">
      <component glyphName="L" x="0" y="0" flags="0x204"/>
      <component glyphName="uni0315" x="555" y="47" flags="0x4"/>
    </TTGlyph>
    <TTGlyph name="Lcommaaccent" xMin="162" yMin="-436" xMax="1274" yMax="1456">
      <component glyphName="L" x="0" y="0" flags="0x204"/>
      <component glyphName="uni0326" x="455" y="0" flags="0x4"/>
    </TTGlyph>
    <TTGlyph name="Ldot" xMin="162" yMin="-6" xMax="1520" yMax="1456">
      <component glyphName="L" x="0" y="0" flags="0x4"/>
      <component glyphName="periodcentered" x="1096" y="0" flags="0x4"/>
    </TTGlyph>
    <TTGlyph name="Lslash" xMin="37" yMin="-6" xMax="1292" yMax="1456">
      <contour>
        <pt x="811" y="786" on="1"/>
        <pt x="780" y="778" on="0"/>
        <pt x="699" y="754" on="0"/>
        <pt x="613" y="727" on="0"/>
        <pt x="531" y="699" on="0"/>
        <pt x="500" y="688" on="1"/>
        <pt x="486" y="682" on="0"/>
        <pt x="454" y="672" on="0"/>
        <pt x="438" y="666" on="1"/>
        <pt x="430" y="532" on="0"/>
        <pt x="420" y="272" on="0"/>
        <pt x="422" y="145" on="1"/>
        <pt x="422" y="100" on="1"/>
        <pt x="474" y="102" on="0"/>
        <pt x="622" y="113" on="0"/>
        <pt x="790" y="132" on="0"/>
        <pt x="965" y="161" on="0"/>
        <pt x="1123" y="200" on="0"/>
        <pt x="1253" y="251" on="0"/>
        <pt x="1292" y="283" on="1"/>
        <pt x="1278" y="-2" on="1"/>
        <pt x="203" y="-6" on="1"/>
        <pt x="193" y="565" on="1"/>
        <pt x="149" y="545" on="0"/>
        <pt x="71" y="503" on="0"/>
        <pt x="37" y="483" on="1"/>
        <pt x="37" y="668" on="1"/>
        <pt x="65" y="677" on="0"/>
        <pt x="148" y="703" on="0"/>
        <pt x="190" y="719" on="1"/>
        <pt x="180" y="1413" on="1"/>
        <pt x="506" y="1456" on="1"/>
        <pt x="489" y="1301" on="0"/>
        <pt x="459" y="978" on="0"/>
        <pt x="446" y="813" on="1"/>
        <pt x="540" y="848" on="0"/>
        <pt x="731" y="928" on="0"/>
        <pt x="811" y="969" on="1"/>
      </contour>
    </TTGlyph>
    <TTGlyph name="M" xMin="66" yMin="-29" xMax="2052" yMax="1464">
      <contour>
        <pt x="66" y="20" on="1"/>
        <pt x="77" y="114" on="0"/>
        <pt x="116" y="350" on="0"/>
        <pt x="169" y="609" on="0"/>
        <pt x="232" y="878" on="0"/>
        <pt x="303" y="1133" on="0"/>
        <pt x="379" y="1361" on="0"/>
        <pt x="418" y="1450" on="1"/>
        <pt x="649" y="1464" on="1"/>
        <pt x="679" y="1406" on="0"/>
        <pt x="748" y="1252" on="0"/>
        <pt x="823" y="1075" on="0"/>
        <pt x="901" y="881" on="0"/>
        <pt x="977" y="682" on="0"/>
        <pt x="1049" y="486" on="0"/>
        <pt x="1081" y="395" on="1"/>
        <pt x="1101" y="499" on="0"/>
        <pt x="1157" y="756" on="0"/>
        <pt x="1228" y="1033" on="0"/>
        <pt x="1312" y="1318" on="0"/>
        <pt x="1360" y="1450" on="1"/>
        <pt x="1632" y="1464" on="1"/>
        <pt x="1692" y="1305" on="0"/>
        <pt x="1761" y="1092" on="1"/>
        <pt x="1820" y="909" on="0"/>
        <pt x="1971" y="383" on="0"/>
        <pt x="2052" y="43" on="1"/>
        <pt x="1704" y="-29" on="1"/>
        <pt x="1703" y="13" on="0"/>
        <pt x="1692" y="142" on="0"/>
        <pt x="1673" y="300" on="0"/>
        <pt x="1647" y="481" on="0"/>
        <pt x="1616" y="671" on="0"/>
        <pt x="1579" y="864" on="0"/>
        <pt x="1538" y="1045" on="0"/>
        <pt x="1493" y="1208" on="0"/>
        <pt x="1470" y="1274" on="1"/>
        <pt x="1435" y="1177" on="0"/>
        <pt x="1373" y="972" on="0"/>
        <pt x="1320" y="768" on="0"/>
        <pt x="1275" y="572" on="0"/>
        <pt x="1257" y="485" on="1"/>
        <pt x="1215" y="280" on="0"/>
        <pt x="1184" y="84" on="1"/>
        <pt x="946" y="53" on="1"/>
        <pt x="946" y="52" on="0"/>
        <pt x="913" y="155" on="0"/>
        <pt x="853" y="330" on="0"/>
        <pt x="771" y="564" on="0"/>
        <pt x="675" y="824" on="0"/>
        <pt x="568" y="1098" on="0"/>
        <pt x="514" y="1225" on="1"/>
        <pt x="472" y="1093" on="0"/>
        <pt x="412" y="787" on="0"/>
        <pt x="371" y="461" on="0"/>
        <pt x="345" y="128" on="0"/>
        <pt x="338" y="-29" on="1"/>
      </contour>
    </TTGlyph>
    <TTGlyph name="N" xMin="156" yMin="-27" xMax="1563" yMax="1458">
      <contour>
        <pt x="1563" y="1425" on="1"/>
        <pt x="1563" y="1425" on="0"/>
        <pt x="1563" y="1345" on="0"/>
        <pt x="1560" y="1205" on="0"/>
        <pt x="1554" y="1016" on="0"/>
        <pt x="1543" y="796" on="0"/>
        <pt x="1527" y="558" on="0"/>
        <pt x="1502" y="321" on="0"/>
        <pt x="1470" y="96" on="0"/>
        <pt x="1448" y="0" on="1"/>
        <pt x="1257" y="-8" on="1"/>
        <pt x="1207" y="67" on="0"/>
        <pt x="1083" y="257" on="0"/>
        <pt x="948" y="466" on="0"/>
        <pt x="809" y="683" on="0"/>
        <pt x="745" y="785" on="1"/>
        <pt x="594" y="1024" on="0"/>
        <pt x="434" y="1278" on="1"/>
        <pt x="429" y="1006" on="0"/>
        <pt x="427" y="760" on="1"/>
        <pt x="426" y="655" on="0"/>
        <pt x="426" y="437" on="0"/>
        <pt x="427" y="235" on="0"/>
        <pt x="432" y="61" on="0"/>
        <pt x="436" y="0" on="1"/>
        <pt x="223" y="-27" on="1"/>
        <pt x="207" y="57" on="0"/>
        <pt x="185" y="271" on="0"/>
        <pt x="170" y="507" on="0"/>
        <pt x="162" y="752" on="0"/>
        <pt x="160" y="868" on="1"/>
        <pt x="156" y="1139" on="0"/>
        <pt x="160" y="1427" on="1"/>
        <pt x="559" y="1458" on="1"/>
        <pt x="1274" y="217" on="1"/>
        <pt x="1285" y="347" on="0"/>
        <pt x="1289" y="646" on="0"/>
        <pt x="1278" y="964" on="0"/>
        <pt x="1252" y="1290" on="0"/>
        <pt x="1233" y="1448" on="1"/>
      </contour>
    </TTGlyph>
    <TTGlyph name="Nacute" xMin="156" yMin="-27" xMax="1563" yMax="1876">
      <component glyphName="N" x="0" y="0" flags="0x204"/>
      <component glyphName="acute" x="791" y="422" flags="0x4"/>
    </TTGlyph>
    <TTGlyph name="Ncaron" xMin="156" yMin="-27" xMax="1563" yMax="1823">
      <component glyphName="N" x="0" y="0" flags="0x204"/>
      <component glyphName="caron" x="487" y="371" flags="0x4"/>
    </TTGlyph>
    <TTGlyph name="Ncommaaccent" xMin="156" yMin="-436" xMax="1563" yMax="1458">
      <component glyphName="N" x="0" y="0" flags="0x204"/>
      <component glyphName="uni0326" x="655" y="0" flags="0x4"/>
    </TTGlyph>
    <TTGlyph name="Ntilde" xMin="156" yMin="-27" xMax="1563" yMax="1823">
      <component glyphName="N" x="0" y="0" flags="0x204"/>
      <component glyphName="tilde" x="485" y="477" flags="0x4"/>
    </TTGlyph>
    <TTGlyph name="O" xMin="88" yMin="-59" xMax="1690" yMax="1501">
      <contour>
        <pt x="1690" y="721" on="1"/>
        <pt x="1690" y="606" on="0"/>
        <pt x="1632" y="401" on="0"/>
        <pt x="1526" y="227" on="0"/>
        <pt x="1378" y="89" on="0"/>
        <pt x="1198" y="-7" on="0"/>
        <pt x="992" y="-59" on="0"/>
        <pt x="881" y="-59" on="1"/>
        <pt x="708" y="-59" on="0"/>
        <pt x="417" y="52" on="0"/>
        <pt x="206" y="256" on="0"/>
        <pt x="88" y="544" on="0"/>
        <pt x="88" y="721" on="1"/>
        <pt x="88" y="834" on="0"/>
        <pt x="144" y="1038" on="0"/>
        <pt x="246" y="1211" on="0"/>
        <pt x="390" y="1351" on="0"/>
        <pt x="567" y="1448" on="0"/>
        <pt x="770" y="1501" on="0"/>
        <pt x="881" y="1501" on="1"/>
        <pt x="992" y="1501" on="0"/>
        <pt x="1199" y="1450" on="0"/>
        <pt x="1379" y="1354" on="0"/>
        <pt x="1527" y="1216" on="0"/>
        <pt x="1632" y="1042" on="0"/>
        <pt x="1690" y="837" on="0"/>
      </contour>
      <contour>
        <pt x="1415" y="721" on="1"/>
        <pt x="1415" y="800" on="0"/>
        <pt x="1388" y="963" on="0"/>
        <pt x="1332" y="1114" on="0"/>
        <pt x="1247" y="1247" on="0"/>
        <pt x="1130" y="1346" on="0"/>
        <pt x="982" y="1403" on="0"/>
        <pt x="891" y="1403" on="1"/>
        <pt x="800" y="1403" on="0"/>
        <pt x="652" y="1345" on="0"/>
        <pt x="536" y="1246" on="0"/>
        <pt x="450" y="1113" on="0"/>
        <pt x="394" y="961" on="0"/>
        <pt x="367" y="799" on="0"/>
        <pt x="367" y="721" on="1"/>
        <pt x="367" y="638" on="0"/>
        <pt x="391" y="472" on="0"/>
        <pt x="443" y="321" on="0"/>
        <pt x="526" y="190" on="0"/>
        <pt x="642" y="94" on="0"/>
        <pt x="795" y="39" on="0"/>
        <pt x="891" y="39" on="1"/>
        <pt x="984" y="39" on="0"/>
        <pt x="1134" y="95" on="0"/>
        <pt x="1251" y="193" on="0"/>
        <pt x="1335" y="324" on="0"/>
        <pt x="1389" y="476" on="0"/>
        <pt x="1415" y="640" on="0"/>
      </contour>
    </TTGlyph>
    <TTGlyph name="OE" xMin="88" yMin="-59" xMax="2570" yMax="1501">
      <contour>
        <pt x="2288" y="473" on="1"/>
        <pt x="2242" y="479" on="0"/>
        <pt x="2136" y="487" on="0"/>
        <pt x="2028" y="492" on="0"/>
        <pt x="1922" y="494" on="0"/>
        <pt x="1876" y="494" on="1"/>
        <pt x="1831" y="494" on="0"/>
        <pt x="1743" y="491" on="0"/>
        <pt x="1698" y="489" on="1"/>
        <pt x="1698" y="425" on="0"/>
        <pt x="1698" y="317" on="0"/>
        <pt x="1698" y="220" on="0"/>
        <pt x="1699" y="128" on="0"/>
        <pt x="1700" y="80" on="1"/>
        <pt x="1755" y="83" on="0"/>
        <pt x="1896" y="97" on="0"/>
        <pt x="2049" y="116" on="0"/>
        <pt x="2209" y="143" on="0"/>
        <pt x="2358" y="178" on="0"/>
        <pt x="2487" y="222" on="0"/>
        <pt x="2535" y="248" on="1"/>
        <pt x="2540" y="0" on="1"/>
        <pt x="1417" y="0" on="1"/>
        <pt x="1419" y="131" on="1"/>
        <pt x="1311" y="40" on="0"/>
        <pt x="1036" y="-59" on="0"/>
        <pt x="881" y="-59" on="1"/>
        <pt x="708" y="-59" on="0"/>
        <pt x="417" y="52" on="0"/>
        <pt x="206" y="256" on="0"/>
        <pt x="88" y="544" on="0"/>
        <pt x="88" y="721" on="1"/>
        <pt x="88" y="834" on="0"/>
        <pt x="144" y="1038" on="0"/>
        <pt x="246" y="1211" on="0"/>
        <pt x="390" y="1351" on="0"/>
        <pt x="567" y="1448" on="0"/>
        <pt x="770" y="1501" on="0"/>
        <pt x="881" y="1501" on="1"/>
        <pt x="1048" y="1501" on="0"/>
        <pt x="1339" y="1388" on="0"/>
        <pt x="1450" y="1286" on="1"/>
        <pt x="1454" y="1438" on="1"/>
        <pt x="2570" y="1456" on="1"/>
        <pt x="2554" y="1180" on="1"/>
        <pt x="2511" y="1208" on="0"/>
        <pt x="2380" y="1252" on="0"/>
        <pt x="2225" y="1286" on="0"/>
        <pt x="2055" y="1311" on="0"/>
        <pt x="1893" y="1327" on="0"/>
        <pt x="1750" y="1337" on="0"/>
        <pt x="1698" y="1339" on="1"/>
        <pt x="1698" y="588" on="1"/>
        <pt x="1708" y="588" on="1"/>
        <pt x="1776" y="588" on="0"/>
        <pt x="1925" y="592" on="0"/>
        <pt x="2076" y="600" on="0"/>
        <pt x="2224" y="611" on="0"/>
        <pt x="2292" y="618" on="1"/>
      </contour>
      <contour>
        <pt x="1415" y="721" on="1"/>
        <pt x="1415" y="800" on="0"/>
        <pt x="1388" y="963" on="0"/>
        <pt x="1332" y="1114" on="0"/>
        <pt x="1247" y="1247" on="0"/>
        <pt x="1130" y="1346" on="0"/>
        <pt x="982" y="1403" on="0"/>
        <pt x="891" y="1403" on="1"/>
        <pt x="800" y="1403" on="0"/>
        <pt x="652" y="1345" on="0"/>
        <pt x="536" y="1246" on="0"/>
        <pt x="450" y="1113" on="0"/>
        <pt x="394" y="961" on="0"/>
        <pt x="367" y="799" on="0"/>
        <pt x="367" y="721" on="1"/>
        <pt x="367" y="638" on="0"/>
        <pt x="391" y="472" on="0"/>
        <pt x="443" y="321" on="0"/>
        <pt x="526" y="190" on="0"/>
        <pt x="642" y="94" on="0"/>
        <pt x="795" y="39" on="0"/>
        <pt x="891" y="39" on="1"/>
        <pt x="984" y="39" on="0"/>
        <pt x="1134" y="95" on="0"/>
        <pt x="1251" y="193" on="0"/>
        <pt x="1335" y="324" on="0"/>
        <pt x="1389" y="476" on="0"/>
        <pt x="1415" y="640" on="0"/>
      </contour>
    </TTGlyph>
    <TTGlyph name="Oacute" xMin="88" yMin="-59" xMax="1690" yMax="1956">
      <component glyphName="O" x="0" y="0" flags="0x204"/>
      <component glyphName="acute" x="868" y="502" flags="0x4"/>
    </TTGlyph>
    <TTGlyph name="Obreve" xMin="88" yMin="-59" xMax="1690" yMax="1921">
      <component glyphName="O" x="0" y="0" flags="0x204"/>
      <component glyphName="breve" x="567" y="526" flags="0x4"/>
    </TTGlyph>
    <TTGlyph name="Ocircumflex" xMin="88" yMin="-59" xMax="1690" yMax="1962">
      <component glyphName="O" x="0" y="0" flags="0x204"/>
      <component glyphName="circumflex" x="524" y="510" flags="0x4"/>
    </TTGlyph>
    <TTGlyph name="Odieresis" xMin="88" yMin="-59" xMax="1690" yMax="1798">
      <component glyphName="O" x="0" y="0" flags="0x204"/>
      <component glyphName="dieresis" x="604" y="510" flags="0x4"/>
    </TTGlyph>
    <TTGlyph name="Ograve" xMin="88" yMin="-59" xMax="1690" yMax="1956">
      <component glyphName="O" x="0" y="0" flags="0x204"/>
      <component glyphName="grave" x="397" y="502" flags="0x4"/>
    </TTGlyph>
    <TTGlyph name="Ohungarumlaut" xMin="88" yMin="-59" xMax="1690" yMax="2005">
      <component glyphName="O" x="0" y="0" flags="0x204"/>
      <component glyphName="hungarumlaut" x="702" y="489" flags="0x4"/>
    </TTGlyph>
    <TTGlyph name="Omacron" xMin="88" yMin="-59" xMax="1690" yMax="1766">
      <component glyphName="O" x="0" y="0" flags="0x204"/>
      <component glyphName="macron" x="571" y="414" flags="0x4"/>
    </TTGlyph>
    <TTGlyph name="Oslash" xMin="88" yMin="-59" xMax="1690" yMax="1501">
      <contour>
        <pt x="1473" y="1434" on="1"/>
        <pt x="1397" y="1331" on="1"/>
        <pt x="1464" y="1279" on="0"/>
        <pt x="1572" y="1148" on="0"/>
        <pt x="1648" y="993" on="0"/>
        <pt x="1690" y="818" on="0"/>
        <pt x="1690" y="721" on="1"/>
        <pt x="1690" y="606" on="0"/>
        <pt x="1632" y="401" on="0"/>
        <pt x="1526" y="227" on="0"/>
        <pt x="1378" y="89" on="0"/>
        <pt x="1198" y="-7" on="0"/>
        <pt x="992" y="-59" on="0"/>
        <pt x="881" y="-59" on="1"/>
        <pt x="762" y="-59" on="0"/>
        <pt x="550" y="-7" on="0"/>
        <pt x="459" y="43" on="1"/>
        <pt x="393" y="-47" on="1"/>
        <pt x="293" y="37" on="1"/>
        <pt x="348" y="121" on="1"/>
        <pt x="224" y="223" on="0"/>
        <pt x="88" y="528" on="0"/>
        <pt x="88" y="721" on="1"/>
        <pt x="88" y="834" on="0"/>
        <pt x="144" y="1038" on="0"/>
        <pt x="246" y="1211" on="0"/>
        <pt x="390" y="1351" on="0"/>
        <pt x="567" y="1448" on="0"/>
        <pt x="770" y="1501" on="0"/>
        <pt x="881" y="1501" on="1"/>
        <pt x="969" y="1501" on="0"/>
        <pt x="1131" y="1469" on="0"/>
        <pt x="1206" y="1440" on="1"/>
        <pt x="1243" y="1495" on="1"/>
      </contour>
      <contour>
        <pt x="1415" y="721" on="1"/>
        <pt x="1415" y="780" on="0"/>
        <pt x="1399" y="902" on="0"/>
        <pt x="1368" y="1021" on="0"/>
        <pt x="1320" y="1133" on="0"/>
        <pt x="1288" y="1182" on="1"/>
        <pt x="553" y="170" on="1"/>
        <pt x="613" y="108" on="0"/>
        <pt x="779" y="39" on="0"/>
        <pt x="891" y="39" on="1"/>
        <pt x="984" y="39" on="0"/>
        <pt x="1134" y="95" on="0"/>
        <pt x="1251" y="193" on="0"/>
        <pt x="1335" y="324" on="0"/>
        <pt x="1389" y="476" on="0"/>
        <pt x="1415" y="640" on="0"/>
      </contour>
      <contour>
        <pt x="367" y="721" on="1"/>
        <pt x="367" y="608" on="0"/>
        <pt x="410" y="386" on="0"/>
        <pt x="461" y="293" on="1"/>
        <pt x="1139" y="1333" on="1"/>
        <pt x="1086" y="1367" on="0"/>
        <pt x="963" y="1403" on="0"/>
        <pt x="891" y="1403" on="1"/>
        <pt x="800" y="1403" on="0"/>
        <pt x="652" y="1345" on="0"/>
        <pt x="536" y="1246" on="0"/>
        <pt x="450" y="1113" on="0"/>
        <pt x="394" y="961" on="0"/>
        <pt x="367" y="799" on="0"/>
      </contour>
    </TTGlyph>
    <TTGlyph name="Oslashacute" xMin="88" yMin="-59" xMax="1690" yMax="1964">
      <component glyphName="Oslash" x="0" y="0" flags="0x204"/>
      <component glyphName="acute" x="795" y="510" flags="0x4"/>
    </TTGlyph>
    <TTGlyph name="Otilde" xMin="88" yMin="-59" xMax="1690" yMax="1827">
      <component glyphName="O" x="0" y="0" flags="0x204"/>
      <component glyphName="tilde" x="512" y="481" flags="0x4"/>
    </TTGlyph>
    <TTGlyph name="P" xMin="162" yMin="-12" xMax="1458" yMax="1436">
      <contour>
        <pt x="1458" y="915" on="1"/>
        <pt x="1458" y="818" on="0"/>
        <pt x="1385" y="670" on="0"/>
        <pt x="1262" y="561" on="0"/>
        <pt x="1102" y="488" on="0"/>
        <pt x="928" y="444" on="0"/>
        <pt x="753" y="426" on="0"/>
        <pt x="676" y="426" on="1"/>
        <pt x="617" y="426" on="0"/>
        <pt x="501" y="430" on="0"/>
        <pt x="442" y="438" on="1"/>
        <pt x="438" y="-10" on="1"/>
        <pt x="180" y="-12" on="1"/>
        <pt x="182" y="340" on="0"/>
        <pt x="168" y="1037" on="0"/>
        <pt x="162" y="1389" on="1"/>
        <pt x="233" y="1403" on="0"/>
        <pt x="391" y="1421" on="0"/>
        <pt x="553" y="1432" on="0"/>
        <pt x="713" y="1436" on="0"/>
        <pt x="786" y="1436" on="1"/>
        <pt x="866" y="1436" on="0"/>
        <pt x="1028" y="1410" on="0"/>
        <pt x="1177" y="1356" on="0"/>
        <pt x="1307" y="1272" on="0"/>
        <pt x="1403" y="1156" on="0"/>
        <pt x="1458" y="1007" on="0"/>
      </contour>
      <contour>
        <pt x="633" y="1335" on="1"/>
        <pt x="582" y="1335" on="0"/>
        <pt x="479" y="1331" on="0"/>
        <pt x="428" y="1325" on="1"/>
        <pt x="444" y="537" on="1"/>
        <pt x="491" y="530" on="0"/>
        <pt x="587" y="528" on="0"/>
        <pt x="637" y="528" on="1"/>
        <pt x="704" y="528" on="0"/>
        <pt x="837" y="544" on="0"/>
        <pt x="957" y="581" on="0"/>
        <pt x="1059" y="642" on="0"/>
        <pt x="1134" y="733" on="0"/>
        <pt x="1176" y="854" on="0"/>
        <pt x="1176" y="934" on="1"/>
        <pt x="1176" y="1008" on="0"/>
        <pt x="1130" y="1125" on="0"/>
        <pt x="1051" y="1214" on="0"/>
        <pt x="945" y="1277" on="0"/>
        <pt x="825" y="1317" on="0"/>
        <pt x="696" y="1335" on="0"/>
      </contour>
    </TTGlyph>
    <TTGlyph name="Q" xMin="88" yMin="-260" xMax="1690" yMax="1501">
      <contour>
        <pt x="1341" y="-260" on="1"/>
        <pt x="1307" y="-197" on="0"/>
        <pt x="1228" y="-71" on="0"/>
        <pt x="1182" y="-6" on="1"/>
        <pt x="1113" y="-32" on="0"/>
        <pt x="961" y="-59" on="0"/>
        <pt x="881" y="-59" on="1"/>
        <pt x="708" y="-59" on="0"/>
        <pt x="417" y="52" on="0"/>
        <pt x="206" y="256" on="0"/>
        <pt x="88" y="544" on="0"/>
        <pt x="88" y="721" on="1"/>
        <pt x="88" y="834" on="0"/>
        <pt x="144" y="1038" on="0"/>
        <pt x="246" y="1211" on="0"/>
        <pt x="390" y="1351" on="0"/>
        <pt x="567" y="1448" on="0"/>
        <pt x="770" y="1501" on="0"/>
        <pt x="881" y="1501" on="1"/>
        <pt x="992" y="1501" on="0"/>
        <pt x="1199" y="1450" on="0"/>
        <pt x="1379" y="1354" on="0"/>
        <pt x="1527" y="1216" on="0"/>
        <pt x="1632" y="1042" on="0"/>
        <pt x="1690" y="837" on="0"/>
        <pt x="1690" y="721" on="1"/>
        <pt x="1690" y="615" on="0"/>
        <pt x="1640" y="424" on="0"/>
        <pt x="1549" y="260" on="0"/>
        <pt x="1421" y="125" on="0"/>
        <pt x="1343" y="74" on="1"/>
        <pt x="1463" y="-22" on="0"/>
        <pt x="1587" y="-78" on="1"/>
      </contour>
      <contour>
        <pt x="1415" y="721" on="1"/>
        <pt x="1415" y="800" on="0"/>
        <pt x="1388" y="963" on="0"/>
        <pt x="1332" y="1114" on="0"/>
        <pt x="1247" y="1247" on="0"/>
        <pt x="1130" y="1346" on="0"/>
        <pt x="982" y="1403" on="0"/>
        <pt x="891" y="1403" on="1"/>
        <pt x="800" y="1403" on="0"/>
        <pt x="652" y="1345" on="0"/>
        <pt x="536" y="1246" on="0"/>
        <pt x="450" y="1113" on="0"/>
        <pt x="394" y="961" on="0"/>
        <pt x="367" y="799" on="0"/>
        <pt x="367" y="721" on="1"/>
        <pt x="367" y="638" on="0"/>
        <pt x="391" y="472" on="0"/>
        <pt x="443" y="321" on="0"/>
        <pt x="526" y="190" on="0"/>
        <pt x="642" y="94" on="0"/>
        <pt x="795" y="39" on="0"/>
        <pt x="891" y="39" on="1"/>
        <pt x="954" y="39" on="0"/>
        <pt x="1062" y="65" on="0"/>
        <pt x="1110" y="88" on="1"/>
        <pt x="1013" y="212" on="0"/>
        <pt x="793" y="436" on="0"/>
        <pt x="684" y="522" on="1"/>
        <pt x="821" y="631" on="1"/>
        <pt x="860" y="577" on="0"/>
        <pt x="951" y="461" on="0"/>
        <pt x="1054" y="343" on="0"/>
        <pt x="1166" y="228" on="0"/>
        <pt x="1225" y="174" on="1"/>
        <pt x="1274" y="224" on="0"/>
        <pt x="1346" y="351" on="0"/>
        <pt x="1392" y="493" on="0"/>
        <pt x="1415" y="646" on="0"/>
      </contour>
    </TTGlyph>
    <TTGlyph name="R" xMin="162" yMin="-37" xMax="1458" yMax="1456">
      <contour>
        <pt x="1458" y="956" on="1"/>
        <pt x="1458" y="872" on="0"/>
        <pt x="1383" y="740" on="0"/>
        <pt x="1258" y="640" on="0"/>
        <pt x="1095" y="570" on="0"/>
        <pt x="1008" y="549" on="1"/>
        <pt x="1458" y="57" on="1"/>
        <pt x="1145" y="-37" on="1"/>
        <pt x="813" y="514" on="1"/>
        <pt x="739" y="508" on="0"/>
        <pt x="676" y="508" on="1"/>
        <pt x="617" y="508" on="0"/>
        <pt x="501" y="512" on="0"/>
        <pt x="442" y="520" on="1"/>
        <pt x="438" y="-10" on="1"/>
        <pt x="180" y="-12" on="1"/>
        <pt x="182" y="340" on="0"/>
        <pt x="168" y="1057" on="0"/>
        <pt x="162" y="1409" on="1"/>
        <pt x="233" y="1424" on="0"/>
        <pt x="391" y="1442" on="0"/>
        <pt x="553" y="1452" on="0"/>
        <pt x="713" y="1456" on="0"/>
        <pt x="786" y="1456" on="1"/>
        <pt x="866" y="1456" on="0"/>
        <pt x="1028" y="1430" on="0"/>
        <pt x="1177" y="1376" on="0"/>
        <pt x="1307" y="1294" on="0"/>
        <pt x="1403" y="1183" on="0"/>
        <pt x="1458" y="1042" on="0"/>
      </contour>
      <contour>
        <pt x="633" y="1356" on="1"/>
        <pt x="582" y="1356" on="0"/>
        <pt x="479" y="1352" on="0"/>
        <pt x="428" y="1346" on="1"/>
        <pt x="444" y="618" on="1"/>
        <pt x="491" y="612" on="0"/>
        <pt x="587" y="610" on="0"/>
        <pt x="637" y="610" on="1"/>
        <pt x="704" y="610" on="0"/>
        <pt x="837" y="630" on="0"/>
        <pt x="957" y="671" on="0"/>
        <pt x="1059" y="732" on="0"/>
        <pt x="1134" y="813" on="0"/>
        <pt x="1176" y="915" on="0"/>
        <pt x="1176" y="975" on="1"/>
        <pt x="1176" y="1045" on="0"/>
        <pt x="1130" y="1156" on="0"/>
        <pt x="1051" y="1241" on="0"/>
        <pt x="945" y="1300" on="0"/>
        <pt x="825" y="1338" on="0"/>
        <pt x="696" y="1356" on="0"/>
      </contour>
    </TTGlyph>
    <TTGlyph name="Racute" xMin="162" yMin="-37" xMax="1458" yMax="1925">
      <component glyphName="R" x="0" y="0" flags="0x204"/>
      <component glyphName="acute" x="700" y="471" flags="0x4"/>
    </TTGlyph>
    <TTGlyph name="Rcaron" xMin="162" yMin="-37" xMax="1458" yMax="1937">
      <component glyphName="R" x="0" y="0" flags="0x204"/>
      <component glyphName="caron" x="406" y="485" flags="0x4"/>
    </TTGlyph>
    <TTGlyph name="Rcommaaccent" xMin="162" yMin="-436" xMax="1458" yMax="1456">
      <component glyphName="R" x="0" y="0" flags="0x204"/>
      <component glyphName="uni0326" x="573" y="0" flags="0x4"/>
    </TTGlyph>
    <TTGlyph name="S" xMin="84" yMin="-70" xMax="1473" yMax="1497">
      <contour>
        <pt x="743" y="-70" on="1"/>
        <pt x="626" y="-70" on="0"/>
        <pt x="422" y="-12" on="0"/>
        <pt x="254" y="104" on="0"/>
        <pt x="125" y="278" on="0"/>
        <pt x="84" y="393" on="1"/>
        <pt x="430" y="412" on="1"/>
        <pt x="438" y="228" on="0"/>
        <pt x="632" y="35" on="0"/>
        <pt x="809" y="35" on="1"/>
        <pt x="878" y="35" on="0"/>
        <pt x="1016" y="63" on="0"/>
        <pt x="1125" y="130" on="0"/>
        <pt x="1194" y="240" on="0"/>
        <pt x="1194" y="322" on="1"/>
        <pt x="1194" y="379" on="0"/>
        <pt x="1150" y="460" on="0"/>
        <pt x="1077" y="514" on="0"/>
        <pt x="982" y="547" on="0"/>
        <pt x="881" y="566" on="0"/>
        <pt x="781" y="576" on="0"/>
        <pt x="739" y="580" on="1"/>
        <pt x="671" y="585" on="0"/>
        <pt x="523" y="607" on="0"/>
        <pt x="380" y="647" on="0"/>
        <pt x="250" y="709" on="0"/>
        <pt x="152" y="804" on="0"/>
        <pt x="94" y="934" on="0"/>
        <pt x="94" y="1022" on="1"/>
        <pt x="94" y="1106" on="0"/>
        <pt x="150" y="1242" on="0"/>
        <pt x="247" y="1347" on="0"/>
        <pt x="374" y="1424" on="0"/>
        <pt x="517" y="1473" on="0"/>
        <pt x="667" y="1497" on="0"/>
        <pt x="737" y="1497" on="1"/>
        <pt x="808" y="1497" on="0"/>
        <pt x="965" y="1479" on="0"/>
        <pt x="1121" y="1437" on="0"/>
        <pt x="1266" y="1370" on="0"/>
        <pt x="1383" y="1272" on="0"/>
        <pt x="1461" y="1141" on="0"/>
        <pt x="1473" y="1057" on="1"/>
        <pt x="1139" y="989" on="1"/>
        <pt x="1145" y="1026" on="0"/>
        <pt x="1145" y="1065" on="1"/>
        <pt x="1145" y="1156" on="0"/>
        <pt x="1071" y="1282" on="0"/>
        <pt x="949" y="1359" on="0"/>
        <pt x="795" y="1393" on="0"/>
        <pt x="715" y="1393" on="1"/>
        <pt x="644" y="1393" on="0"/>
        <pt x="505" y="1356" on="0"/>
        <pt x="394" y="1282" on="0"/>
        <pt x="326" y="1170" on="0"/>
        <pt x="326" y="1094" on="1"/>
        <pt x="326" y="1042" on="0"/>
        <pt x="382" y="966" on="0"/>
        <pt x="473" y="911" on="0"/>
        <pt x="587" y="875" on="0"/>
        <pt x="702" y="852" on="0"/>
        <pt x="806" y="839" on="0"/>
        <pt x="842" y="836" on="1"/>
        <pt x="906" y="829" on="0"/>
        <pt x="1046" y="804" on="0"/>
        <pt x="1182" y="760" on="0"/>
        <pt x="1306" y="694" on="0"/>
        <pt x="1399" y="600" on="0"/>
        <pt x="1454" y="474" on="0"/>
        <pt x="1454" y="393" on="1"/>
        <pt x="1454" y="307" on="0"/>
        <pt x="1386" y="172" on="0"/>
        <pt x="1273" y="69" on="0"/>
        <pt x="1127" y="-4" on="0"/>
        <pt x="969" y="-49" on="0"/>
        <pt x="811" y="-70" on="0"/>
      </contour>
    </TTGlyph>
    <TTGlyph name="Sacute" xMin="84" yMin="-70" xMax="1473" yMax="1960">
      <component glyphName="S" x="0" y="0" flags="0x204"/>
      <component glyphName="acute" x="717" y="506" flags="0x4"/>
    </TTGlyph>
    <TTGlyph name="Scaron" xMin="84" yMin="-70" xMax="1473" yMax="1962">
      <component glyphName="S" x="0" y="0" flags="0x204"/>
      <component glyphName="caron" x="414" y="510" flags="0x4"/>
    </TTGlyph>
    <TTGlyph name="Scedilla" xMin="84" yMin="-496" xMax="1473" yMax="1497">
      <contour>
        <pt x="756" y="-496" on="1"/>
        <pt x="727" y="-496" on="0"/>
        <pt x="664" y="-478" on="0"/>
        <pt x="604" y="-448" on="0"/>
        <pt x="549" y="-410" on="0"/>
        <pt x="528" y="-391" on="1"/>
        <pt x="655" y="-317" on="1"/>
        <pt x="663" y="-365" on="0"/>
        <pt x="725" y="-432" on="0"/>
        <pt x="776" y="-432" on="1"/>
        <pt x="798" y="-432" on="0"/>
        <pt x="830" y="-415" on="0"/>
        <pt x="851" y="-387" on="0"/>
        <pt x="862" y="-351" on="0"/>
        <pt x="862" y="-332" on="1"/>
        <pt x="862" y="-276" on="0"/>
        <pt x="801" y="-215" on="0"/>
        <pt x="745" y="-215" on="1"/>
        <pt x="718" y="-215" on="0"/>
        <pt x="663" y="-225" on="0"/>
        <pt x="635" y="-233" on="1"/>
        <pt x="698" y="-68" on="1"/>
        <pt x="589" y="-62" on="0"/>
        <pt x="399" y="1" on="0"/>
        <pt x="242" y="116" on="0"/>
        <pt x="122" y="283" on="0"/>
        <pt x="84" y="393" on="1"/>
        <pt x="430" y="412" on="1"/>
        <pt x="438" y="228" on="0"/>
        <pt x="632" y="35" on="0"/>
        <pt x="809" y="35" on="1"/>
        <pt x="878" y="35" on="0"/>
        <pt x="1016" y="63" on="0"/>
        <pt x="1125" y="130" on="0"/>
        <pt x="1194" y="240" on="0"/>
        <pt x="1194" y="322" on="1"/>
        <pt x="1194" y="379" on="0"/>
        <pt x="1150" y="460" on="0"/>
        <pt x="1077" y="514" on="0"/>
        <pt x="982" y="547" on="0"/>
        <pt x="881" y="566" on="0"/>
        <pt x="781" y="576" on="0"/>
        <pt x="739" y="580" on="1"/>
        <pt x="671" y="585" on="0"/>
        <pt x="523" y="607" on="0"/>
        <pt x="380" y="647" on="0"/>
        <pt x="250" y="709" on="0"/>
        <pt x="152" y="804" on="0"/>
        <pt x="94" y="934" on="0"/>
        <pt x="94" y="1022" on="1"/>
        <pt x="94" y="1106" on="0"/>
        <pt x="150" y="1242" on="0"/>
        <pt x="247" y="1347" on="0"/>
        <pt x="374" y="1424" on="0"/>
        <pt x="517" y="1473" on="0"/>
        <pt x="667" y="1497" on="0"/>
        <pt x="737" y="1497" on="1"/>
        <pt x="808" y="1497" on="0"/>
        <pt x="965" y="1479" on="0"/>
        <pt x="1121" y="1437" on="0"/>
        <pt x="1266" y="1370" on="0"/>
        <pt x="1383" y="1272" on="0"/>
        <pt x="1461" y="1141" on="0"/>
        <pt x="1473" y="1057" on="1"/>
        <pt x="1139" y="989" on="1"/>
        <pt x="1145" y="1026" on="0"/>
        <pt x="1145" y="1065" on="1"/>
        <pt x="1145" y="1156" on="0"/>
        <pt x="1071" y="1282" on="0"/>
        <pt x="949" y="1359" on="0"/>
        <pt x="795" y="1393" on="0"/>
        <pt x="715" y="1393" on="1"/>
        <pt x="644" y="1393" on="0"/>
        <pt x="505" y="1356" on="0"/>
        <pt x="394" y="1282" on="0"/>
        <pt x="326" y="1170" on="0"/>
        <pt x="326" y="1094" on="1"/>
        <pt x="326" y="1042" on="0"/>
        <pt x="382" y="966" on="0"/>
        <pt x="473" y="911" on="0"/>
        <pt x="587" y="875" on="0"/>
        <pt x="702" y="852" on="0"/>
        <pt x="806" y="839" on="0"/>
        <pt x="842" y="836" on="1"/>
        <pt x="906" y="829" on="0"/>
        <pt x="1046" y="804" on="0"/>
        <pt x="1182" y="760" on="0"/>
        <pt x="1306" y="694" on="0"/>
        <pt x="1399" y="600" on="0"/>
        <pt x="1454" y="474" on="0"/>
        <pt x="1454" y="393" on="1"/>
        <pt x="1454" y="310" on="0"/>
        <pt x="1392" y="180" on="0"/>
        <pt x="1288" y="79" on="0"/>
        <pt x="1151" y="7" on="0"/>
        <pt x="1001" y="-41" on="0"/>
        <pt x="848" y="-65" on="0"/>
        <pt x="780" y="-68" on="1"/>
        <pt x="752" y="-147" on="1"/>
        <pt x="800" y="-123" on="0"/>
        <pt x="856" y="-123" on="1"/>
        <pt x="891" y="-123" on="0"/>
        <pt x="953" y="-153" on="0"/>
        <pt x="998" y="-203" on="0"/>
        <pt x="1024" y="-267" on="0"/>
        <pt x="1024" y="-301" on="1"/>
        <pt x="1024" y="-352" on="0"/>
        <pt x="972" y="-425" on="0"/>
        <pt x="893" y="-473" on="0"/>
        <pt x="799" y="-496" on="0"/>
      </contour>
    </TTGlyph>
    <TTGlyph name="Scircumflex" xMin="84" yMin="-70" xMax="1473" yMax="1962">
      <component glyphName="S" x="0" y="0" flags="0x204"/>
      <component glyphName="circumflex" x="414" y="510" flags="0x4"/>
    </TTGlyph>
    <TTGlyph name="T" xMin="20" yMin="-4" xMax="1343" yMax="1440">
      <contour>
        <pt x="1343" y="1440" on="1"/>
        <pt x="1331" y="1245" on="1"/>
        <pt x="1280" y="1263" on="0"/>
        <pt x="1145" y="1284" on="0"/>
        <pt x="1003" y="1296" on="0"/>
        <pt x="867" y="1300" on="0"/>
        <pt x="813" y="1300" on="1"/>
        <pt x="786" y="1300" on="1"/>
        <pt x="844" y="-4" on="1"/>
        <pt x="537" y="-4" on="1"/>
        <pt x="573" y="1290" on="1"/>
        <pt x="499" y="1284" on="0"/>
        <pt x="344" y="1263" on="0"/>
        <pt x="201" y="1232" on="0"/>
        <pt x="79" y="1190" on="0"/>
        <pt x="39" y="1163" on="1"/>
        <pt x="20" y="1432" on="1"/>
      </contour>
    </TTGlyph>
    <TTGlyph name="Tbar" xMin="20" yMin="-4" xMax="1343" yMax="1440">
      <contour>
        <pt x="1085" y="573" on="1"/>
        <pt x="1017" y="581" on="0"/>
        <pt x="885" y="591" on="0"/>
        <pt x="817" y="594" on="1"/>
        <pt x="844" y="-4" on="1"/>
        <pt x="537" y="-4" on="1"/>
        <pt x="553" y="596" on="1"/>
        <pt x="481" y="593" on="0"/>
        <pt x="337" y="581" on="0"/>
        <pt x="266" y="573" on="1"/>
        <pt x="266" y="758" on="1"/>
        <pt x="338" y="745" on="0"/>
        <pt x="485" y="728" on="0"/>
        <pt x="557" y="725" on="1"/>
        <pt x="573" y="1290" on="1"/>
        <pt x="499" y="1284" on="0"/>
        <pt x="344" y="1263" on="0"/>
        <pt x="201" y="1232" on="0"/>
        <pt x="79" y="1190" on="0"/>
        <pt x="39" y="1163" on="1"/>
        <pt x="20" y="1432" on="1"/>
        <pt x="1343" y="1440" on="1"/>
        <pt x="1331" y="1245" on="1"/>
        <pt x="1280" y="1263" on="0"/>
        <pt x="1145" y="1284" on="0"/>
        <pt x="1003" y="1296" on="0"/>
        <pt x="867" y="1300" on="0"/>
        <pt x="813" y="1300" on="1"/>
        <pt x="786" y="1300" on="1"/>
        <pt x="811" y="725" on="1"/>
        <pt x="880" y="728" on="0"/>
        <pt x="1016" y="744" on="0"/>
        <pt x="1085" y="758" on="1"/>
      </contour>
    </TTGlyph>
    <TTGlyph name="Tcaron" xMin="20" yMin="-4" xMax="1343" yMax="1903">
      <component glyphName="T" x="0" y="0" flags="0x204"/>
      <component glyphName="caron" x="313" y="451" flags="0x4"/>
    </TTGlyph>
    <TTGlyph name="Tcommaaccent" xMin="20" yMin="-436" xMax="1343" yMax="1440">
      <component glyphName="T" x="0" y="0" flags="0x204"/>
      <component glyphName="uni0326" x="481" y="0" flags="0x4"/>
    </TTGlyph>
    <TTGlyph name="Thorn" xMin="152" yMin="-12" xMax="1460" yMax="1477">
      <contour>
        <pt x="432" y="1178" on="1"/>
        <pt x="525" y="1184" on="0"/>
        <pt x="705" y="1190" on="0"/>
        <pt x="788" y="1190" on="1"/>
        <pt x="868" y="1190" on="0"/>
        <pt x="1030" y="1164" on="0"/>
        <pt x="1179" y="1110" on="0"/>
        <pt x="1309" y="1026" on="0"/>
        <pt x="1405" y="911" on="0"/>
        <pt x="1460" y="762" on="0"/>
        <pt x="1460" y="670" on="1"/>
        <pt x="1460" y="573" on="0"/>
        <pt x="1387" y="425" on="0"/>
        <pt x="1264" y="316" on="0"/>
        <pt x="1104" y="243" on="0"/>
        <pt x="930" y="199" on="0"/>
        <pt x="755" y="180" on="0"/>
        <pt x="678" y="180" on="1"/>
        <pt x="619" y="180" on="0"/>
        <pt x="503" y="185" on="0"/>
        <pt x="444" y="193" on="1"/>
        <pt x="440" y="-10" on="1"/>
        <pt x="182" y="-12" on="1"/>
        <pt x="182" y="105" on="0"/>
        <pt x="181" y="305" on="0"/>
        <pt x="178" y="501" on="0"/>
        <pt x="173" y="708" on="0"/>
        <pt x="166" y="955" on="0"/>
        <pt x="157" y="1258" on="0"/>
        <pt x="152" y="1452" on="1"/>
        <pt x="428" y="1477" on="1"/>
      </contour>
      <contour>
        <pt x="1178" y="688" on="1"/>
        <pt x="1178" y="762" on="0"/>
        <pt x="1132" y="879" on="0"/>
        <pt x="1053" y="968" on="0"/>
        <pt x="947" y="1031" on="0"/>
        <pt x="827" y="1071" on="0"/>
        <pt x="697" y="1090" on="0"/>
        <pt x="635" y="1090" on="1"/>
        <pt x="584" y="1090" on="0"/>
        <pt x="484" y="1085" on="0"/>
        <pt x="434" y="1079" on="1"/>
        <pt x="446" y="291" on="1"/>
        <pt x="493" y="285" on="0"/>
        <pt x="589" y="283" on="0"/>
        <pt x="639" y="283" on="1"/>
        <pt x="706" y="283" on="0"/>
        <pt x="839" y="299" on="0"/>
        <pt x="959" y="336" on="0"/>
        <pt x="1061" y="397" on="0"/>
        <pt x="1136" y="487" on="0"/>
        <pt x="1178" y="609" on="0"/>
      </contour>
    </TTGlyph>
    <TTGlyph name="U" xMin="100" yMin="-74" xMax="1524" yMax="1487">
      <contour>
        <pt x="793" y="-74" on="1"/>
        <pt x="674" y="-74" on="0"/>
        <pt x="479" y="-13" on="0"/>
        <pt x="325" y="97" on="0"/>
        <pt x="211" y="247" on="0"/>
        <pt x="137" y="427" on="0"/>
        <pt x="100" y="628" on="0"/>
        <pt x="100" y="733" on="1"/>
        <pt x="100" y="817" on="0"/>
        <pt x="118" y="1014" on="0"/>
        <pt x="159" y="1211" on="0"/>
        <pt x="224" y="1393" on="0"/>
        <pt x="272" y="1464" on="1"/>
        <pt x="596" y="1391" on="1"/>
        <pt x="562" y="1341" on="0"/>
        <pt x="499" y="1214" on="0"/>
        <pt x="444" y="1072" on="0"/>
        <pt x="399" y="921" on="0"/>
        <pt x="366" y="772" on="0"/>
        <pt x="348" y="630" on="0"/>
        <pt x="348" y="569" on="1"/>
        <pt x="348" y="456" on="0"/>
        <pt x="406" y="260" on="0"/>
        <pt x="524" y="114" on="0"/>
        <pt x="706" y="31" on="0"/>
        <pt x="829" y="31" on="1"/>
        <pt x="909" y="31" on="0"/>
        <pt x="1039" y="83" on="0"/>
        <pt x="1141" y="173" on="0"/>
        <pt x="1216" y="293" on="0"/>
        <pt x="1264" y="427" on="0"/>
        <pt x="1288" y="570" on="0"/>
        <pt x="1288" y="637" on="1"/>
        <pt x="1288" y="689" on="0"/>
        <pt x="1269" y="823" on="0"/>
        <pt x="1234" y="969" on="0"/>
        <pt x="1187" y="1119" on="0"/>
        <pt x="1131" y="1256" on="0"/>
        <pt x="1068" y="1371" on="0"/>
        <pt x="1036" y="1409" on="1"/>
        <pt x="1372" y="1487" on="1"/>
        <pt x="1414" y="1407" on="0"/>
        <pt x="1472" y="1225" on="0"/>
        <pt x="1508" y="1035" on="0"/>
        <pt x="1524" y="844" on="0"/>
        <pt x="1524" y="754" on="1"/>
        <pt x="1524" y="586" on="0"/>
        <pt x="1436" y="286" on="0"/>
        <pt x="1255" y="59" on="0"/>
        <pt x="980" y="-74" on="0"/>
      </contour>
    </TTGlyph>
    <TTGlyph name="Uacute" xMin="100" yMin="-74" xMax="1524" yMax="1872">
      <component glyphName="U" x="0" y="0" flags="0x204"/>
      <component glyphName="acute" x="782" y="418" flags="0x4"/>
    </TTGlyph>
    <TTGlyph name="Ubreve" xMin="100" yMin="-74" xMax="1524" yMax="1809">
      <component glyphName="U" x="0" y="0" flags="0x204"/>
      <component glyphName="breve" x="492" y="414" flags="0x4"/>
    </TTGlyph>
    <TTGlyph name="Ucircumflex" xMin="100" yMin="-74" xMax="1524" yMax="1903">
      <component glyphName="U" x="0" y="0" flags="0x204"/>
      <component glyphName="circumflex" x="449" y="451" flags="0x4"/>
    </TTGlyph>
    <TTGlyph name="Udieresis" xMin="100" yMin="-74" xMax="1524" yMax="1722">
      <component glyphName="U" x="0" y="0" flags="0x204"/>
      <component glyphName="dieresis" x="524" y="434" flags="0x4"/>
    </TTGlyph>
    <TTGlyph name="Ugrave" xMin="100" yMin="-74" xMax="1524" yMax="1868">
      <component glyphName="U" x="0" y="0" flags="0x204"/>
      <component glyphName="grave" x="344" y="414" flags="0x4"/>
    </TTGlyph>
    <TTGlyph name="Uhungarumlaut" xMin="100" yMin="-74" xMax="1524" yMax="1917">
      <component glyphName="U" x="0" y="0" flags="0x204"/>
      <component glyphName="hungarumlaut" x="588" y="401" flags="0x4"/>
    </TTGlyph>
    <TTGlyph name="Umacron" xMin="100" yMin="-74" xMax="1524" yMax="1710">
      <component glyphName="U" x="0" y="0" flags="0x204"/>
      <component glyphName="macron" x="479" y="358" flags="0x4"/>
    </TTGlyph>
    <TTGlyph name="Uogonek" xMin="100" yMin="-455" xMax="1524" yMax="1487">
      <contour>
        <pt x="1151" y="-238" on="1"/>
        <pt x="1140" y="-287" on="0"/>
        <pt x="1092" y="-367" on="0"/>
        <pt x="1022" y="-424" on="0"/>
        <pt x="935" y="-455" on="0"/>
        <pt x="885" y="-455" on="1"/>
        <pt x="845" y="-455" on="0"/>
        <pt x="770" y="-431" on="0"/>
        <pt x="713" y="-386" on="0"/>
        <pt x="678" y="-319" on="0"/>
        <pt x="678" y="-276" on="1"/>
        <pt x="678" y="-221" on="0"/>
        <pt x="729" y="-117" on="0"/>
        <pt x="766" y="-72" on="1"/>
        <pt x="652" y="-68" on="0"/>
        <pt x="464" y="-3" on="0"/>
        <pt x="316" y="107" on="0"/>
        <pt x="207" y="257" on="0"/>
        <pt x="135" y="433" on="0"/>
        <pt x="100" y="630" on="0"/>
        <pt x="100" y="733" on="1"/>
        <pt x="100" y="817" on="0"/>
        <pt x="118" y="1014" on="0"/>
        <pt x="159" y="1211" on="0"/>
        <pt x="224" y="1393" on="0"/>
        <pt x="272" y="1464" on="1"/>
        <pt x="596" y="1391" on="1"/>
        <pt x="562" y="1341" on="0"/>
        <pt x="499" y="1214" on="0"/>
        <pt x="444" y="1072" on="0"/>
        <pt x="399" y="921" on="0"/>
        <pt x="366" y="772" on="0"/>
        <pt x="348" y="630" on="0"/>
        <pt x="348" y="569" on="1"/>
        <pt x="348" y="456" on="0"/>
        <pt x="406" y="260" on="0"/>
        <pt x="524" y="114" on="0"/>
        <pt x="706" y="31" on="0"/>
        <pt x="829" y="31" on="1"/>
        <pt x="909" y="31" on="0"/>
        <pt x="1039" y="83" on="0"/>
        <pt x="1141" y="173" on="0"/>
        <pt x="1216" y="293" on="0"/>
        <pt x="1264" y="427" on="0"/>
        <pt x="1288" y="570" on="0"/>
        <pt x="1288" y="637" on="1"/>
        <pt x="1288" y="689" on="0"/>
        <pt x="1269" y="823" on="0"/>
        <pt x="1234" y="969" on="0"/>
        <pt x="1187" y="1119" on="0"/>
        <pt x="1131" y="1256" on="0"/>
        <pt x="1068" y="1371" on="0"/>
        <pt x="1036" y="1409" on="1"/>
        <pt x="1372" y="1487" on="1"/>
        <pt x="1414" y="1407" on="0"/>
        <pt x="1472" y="1225" on="0"/>
        <pt x="1508" y="1035" on="0"/>
        <pt x="1524" y="844" on="0"/>
        <pt x="1524" y="754" on="1"/>
        <pt x="1524" y="596" on="0"/>
        <pt x="1446" y="310" on="0"/>
        <pt x="1285" y="88" on="0"/>
        <pt x="1042" y="-55" on="0"/>
        <pt x="877" y="-70" on="1"/>
        <pt x="851" y="-112" on="0"/>
        <pt x="819" y="-206" on="0"/>
        <pt x="819" y="-256" on="1"/>
        <pt x="819" y="-274" on="0"/>
        <pt x="829" y="-322" on="0"/>
        <pt x="851" y="-365" on="0"/>
        <pt x="884" y="-395" on="0"/>
        <pt x="907" y="-395" on="1"/>
        <pt x="932" y="-395" on="0"/>
        <pt x="964" y="-367" on="0"/>
        <pt x="982" y="-326" on="0"/>
        <pt x="989" y="-279" on="0"/>
        <pt x="989" y="-260" on="1"/>
        <pt x="989" y="-228" on="0"/>
        <pt x="983" y="-195" on="1"/>
      </contour>
    </TTGlyph>
    <TTGlyph name="Uring" xMin="100" yMin="-74" xMax="1524" yMax="1897">
      <component glyphName="U" x="0" y="0" flags="0x204"/>
      <component glyphName="ring" x="563" y="406" flags="0x4"/>
    </TTGlyph>
    <TTGlyph name="Utilde" xMin="100" yMin="-74" xMax="1524" yMax="1764">
      <component glyphName="U" x="0" y="0" flags="0x204"/>
      <component glyphName="tilde" x="436" y="418" flags="0x4"/>
    </TTGlyph>
    <TTGlyph name="V" xMin="33" yMin="-29" xMax="1528" yMax="1464">
      <contour>
        <pt x="1528" y="1417" on="1"/>
        <pt x="1465" y="1201" on="0"/>
        <pt x="1325" y="822" on="0"/>
        <pt x="1187" y="504" on="0"/>
        <pt x="1062" y="253" on="0"/>
        <pt x="965" y="78" on="0"/>
        <pt x="908" y="-14" on="0"/>
        <pt x="907" y="-14" on="1"/>
        <pt x="696" y="-29" on="1"/>
        <pt x="573" y="148" on="0"/>
        <pt x="452" y="370" on="1"/>
        <pt x="401" y="464" on="0"/>
        <pt x="289" y="690" on="0"/>
        <pt x="180" y="949" on="0"/>
        <pt x="76" y="1237" on="0"/>
        <pt x="33" y="1393" on="1"/>
        <pt x="379" y="1464" on="1"/>
        <pt x="396" y="1311" on="0"/>
        <pt x="455" y="1044" on="0"/>
        <pt x="529" y="807" on="0"/>
        <pt x="615" y="595" on="0"/>
        <pt x="705" y="398" on="0"/>
        <pt x="795" y="211" on="0"/>
        <pt x="836" y="119" on="1"/>
        <pt x="929" y="296" on="0"/>
        <pt x="1058" y="650" on="0"/>
        <pt x="1149" y="992" on="0"/>
        <pt x="1210" y="1317" on="0"/>
        <pt x="1233" y="1464" on="1"/>
      </contour>
    </TTGlyph>
    <TTGlyph name="W" xMin="37" yMin="-29" xMax="2187" yMax="1464">
      <contour>
        <pt x="2187" y="1417" on="1"/>
        <pt x="2158" y="1306" on="0"/>
        <pt x="2080" y="1065" on="0"/>
        <pt x="1990" y="822" on="0"/>
        <pt x="1895" y="585" on="0"/>
        <pt x="1850" y="479" on="1"/>
        <pt x="1744" y="229" on="0"/>
        <pt x="1628" y="-14" on="1"/>
        <pt x="1356" y="-29" on="1"/>
        <pt x="1122" y="952" on="1"/>
        <pt x="1098" y="870" on="0"/>
        <pt x="1047" y="693" on="0"/>
        <pt x="994" y="513" on="0"/>
        <pt x="942" y="337" on="0"/>
        <pt x="892" y="177" on="0"/>
        <pt x="847" y="38" on="0"/>
        <pt x="829" y="-14" on="1"/>
        <pt x="557" y="-29" on="1"/>
        <pt x="458" y="196" on="0"/>
        <pt x="363" y="437" on="1"/>
        <pt x="322" y="540" on="0"/>
        <pt x="235" y="772" on="0"/>
        <pt x="150" y="1018" on="0"/>
        <pt x="70" y="1271" on="0"/>
        <pt x="37" y="1393" on="1"/>
        <pt x="383" y="1464" on="1"/>
        <pt x="390" y="1418" on="0"/>
        <pt x="420" y="1239" on="0"/>
        <pt x="464" y="1007" on="0"/>
        <pt x="521" y="740" on="0"/>
        <pt x="590" y="473" on="0"/>
        <pt x="670" y="224" on="0"/>
        <pt x="715" y="125" on="1"/>
        <pt x="752" y="233" on="0"/>
        <pt x="818" y="453" on="0"/>
        <pt x="875" y="666" on="0"/>
        <pt x="925" y="867" on="0"/>
        <pt x="945" y="955" on="1"/>
        <pt x="993" y="1162" on="0"/>
        <pt x="1028" y="1352" on="1"/>
        <pt x="1243" y="1382" on="1"/>
        <pt x="1279" y="1169" on="0"/>
        <pt x="1325" y="950" on="1"/>
        <pt x="1344" y="857" on="0"/>
        <pt x="1390" y="649" on="0"/>
        <pt x="1443" y="436" on="0"/>
        <pt x="1502" y="223" on="0"/>
        <pt x="1534" y="125" on="1"/>
        <pt x="1602" y="294" on="0"/>
        <pt x="1712" y="612" on="0"/>
        <pt x="1804" y="935" on="0"/>
        <pt x="1879" y="1274" on="0"/>
        <pt x="1913" y="1464" on="1"/>
      </contour>
    </TTGlyph>
    <TTGlyph name="Wacute" xMin="37" yMin="-29" xMax="2187" yMax="1831">
      <component glyphName="W" x="0" y="0" flags="0x204"/>
      <component glyphName="acute" x="1108" y="377" flags="0x4"/>
    </TTGlyph>
    <TTGlyph name="Wcircumflex" xMin="37" yMin="-29" xMax="2187" yMax="1819">
      <component glyphName="W" x="0" y="0" flags="0x204"/>
      <component glyphName="circumflex" x="745" y="367" flags="0x4"/>
    </TTGlyph>
    <TTGlyph name="Wdieresis" xMin="37" yMin="-29" xMax="2187" yMax="1671">
      <component glyphName="W" x="0" y="0" flags="0x204"/>
      <component glyphName="dieresis" x="850" y="383" flags="0x4"/>
    </TTGlyph>
    <TTGlyph name="Wgrave" xMin="37" yMin="-29" xMax="2187" yMax="1845">
      <component glyphName="W" x="0" y="0" flags="0x204"/>
      <component glyphName="grave" x="688" y="391" flags="0x4"/>
    </TTGlyph>
    <TTGlyph name="X" xMin="25" yMin="-51" xMax="1477" yMax="1491">
      <contour>
        <pt x="1464" y="1386" on="1"/>
        <pt x="1302" y="1247" on="0"/>
        <pt x="995" y="908" on="0"/>
        <pt x="852" y="719" on="1"/>
        <pt x="992" y="526" on="0"/>
        <pt x="1303" y="178" on="0"/>
        <pt x="1477" y="27" on="1"/>
        <pt x="1155" y="-51" on="1"/>
        <pt x="1056" y="101" on="0"/>
        <pt x="852" y="405" on="0"/>
        <pt x="737" y="561" on="1"/>
        <pt x="629" y="406" on="0"/>
        <pt x="436" y="102" on="0"/>
        <pt x="352" y="-45" on="1"/>
        <pt x="31" y="49" on="1"/>
        <pt x="205" y="186" on="0"/>
        <pt x="509" y="510" on="0"/>
        <pt x="645" y="684" on="1"/>
        <pt x="509" y="862" on="0"/>
        <pt x="204" y="1203" on="0"/>
        <pt x="25" y="1370" on="1"/>
        <pt x="389" y="1477" on="1"/>
        <pt x="471" y="1316" on="0"/>
        <pt x="658" y="999" on="0"/>
        <pt x="764" y="844" on="1"/>
        <pt x="880" y="1008" on="0"/>
        <pt x="1087" y="1333" on="0"/>
        <pt x="1180" y="1491" on="1"/>
      </contour>
    </TTGlyph>
    <TTGlyph name="Y" xMin="31" yMin="-23" xMax="1464" yMax="1450">
      <contour>
        <pt x="1464" y="1364" on="1"/>
        <pt x="1434" y="1255" on="0"/>
        <pt x="1344" y="1002" on="0"/>
        <pt x="1206" y="749" on="0"/>
        <pt x="1011" y="510" on="0"/>
        <pt x="877" y="416" on="1"/>
        <pt x="911" y="-23" on="1"/>
        <pt x="594" y="-4" on="1"/>
        <pt x="666" y="416" on="1"/>
        <pt x="577" y="465" on="0"/>
        <pt x="426" y="603" on="0"/>
        <pt x="298" y="765" on="0"/>
        <pt x="194" y="944" on="0"/>
        <pt x="112" y="1124" on="0"/>
        <pt x="51" y="1298" on="0"/>
        <pt x="31" y="1374" on="1"/>
        <pt x="317" y="1444" on="1"/>
        <pt x="340" y="1267" on="0"/>
        <pt x="396" y="1096" on="1"/>
        <pt x="420" y="1023" on="0"/>
        <pt x="487" y="866" on="0"/>
        <pt x="577" y="712" on="0"/>
        <pt x="693" y="568" on="0"/>
        <pt x="766" y="508" on="1"/>
        <pt x="855" y="578" on="0"/>
        <pt x="981" y="738" on="0"/>
        <pt x="1067" y="907" on="0"/>
        <pt x="1119" y="1079" on="0"/>
        <pt x="1152" y="1242" on="0"/>
        <pt x="1172" y="1389" on="0"/>
        <pt x="1182" y="1450" on="1"/>
      </contour>
    </TTGlyph>
    <TTGlyph name="Yacute" xMin="31" yMin="-23" xMax="1464" yMax="1786">
      <component glyphName="Y" x="0" y="0" flags="0x204"/>
      <component glyphName="acute" x="688" y="332" flags="0x4"/>
    </TTGlyph>
    <TTGlyph name="Ycircumflex" xMin="31" yMin="-23" xMax="1464" yMax="1843">
      <component glyphName="Y" x="0" y="0" flags="0x204"/>
      <component glyphName="circumflex" x="383" y="391" flags="0x4"/>
    </TTGlyph>
    <TTGlyph name="Ydieresis" xMin="31" yMin="-23" xMax="1464" yMax="1691">
      <component glyphName="Y" x="0" y="0" flags="0x204"/>
      <component glyphName="dieresis" x="475" y="403" flags="0x4"/>
    </TTGlyph>
    <TTGlyph name="Ygrave" xMin="31" yMin="-23" xMax="1464" yMax="1812">
      <component glyphName="Y" x="0" y="0" flags="0x204"/>
      <component glyphName="grave" x="334" y="358" flags="0x4"/>
    </TTGlyph>
    <TTGlyph name="Z" xMin="51" yMin="-20" xMax="1430" yMax="1460">
      <contour>
        <pt x="1430" y="1460" on="1"/>
        <pt x="403" y="125" on="1"/>
        <pt x="458" y="129" on="0"/>
        <pt x="623" y="145" on="0"/>
        <pt x="814" y="169" on="0"/>
        <pt x="1017" y="202" on="0"/>
        <pt x="1203" y="244" on="0"/>
        <pt x="1360" y="294" on="0"/>
        <pt x="1409" y="324" on="1"/>
        <pt x="1380" y="-20" on="1"/>
        <pt x="1312" y="-12" on="0"/>
        <pt x="1151" y="0" on="0"/>
        <pt x="977" y="6" on="0"/>
        <pt x="796" y="9" on="0"/>
        <pt x="622" y="10" on="0"/>
        <pt x="460" y="10" on="0"/>
        <pt x="391" y="10" on="1"/>
        <pt x="234" y="10" on="0"/>
        <pt x="78" y="4" on="1"/>
        <pt x="1044" y="1352" on="1"/>
        <pt x="982" y="1351" on="0"/>
        <pt x="820" y="1335" on="0"/>
        <pt x="639" y="1307" on="0"/>
        <pt x="451" y="1268" on="0"/>
        <pt x="276" y="1220" on="0"/>
        <pt x="124" y="1164" on="0"/>
        <pt x="70" y="1133" on="1"/>
        <pt x="51" y="1442" on="1"/>
      </contour>
    </TTGlyph>
    <TTGlyph name="Zacute" xMin="51" yMin="-20" xMax="1430" yMax="1909">
      <component glyphName="Z" x="0" y="0" flags="0x204"/>
      <component glyphName="acute" x="678" y="455" flags="0x4"/>
    </TTGlyph>
    <TTGlyph name="Zcaron" xMin="51" yMin="-20" xMax="1430" yMax="1927">
      <component glyphName="Z" x="0" y="0" flags="0x204"/>
      <component glyphName="caron" x="377" y="475" flags="0x4"/>
    </TTGlyph>
    <TTGlyph name="Zdotaccent" xMin="51" yMin="-20" xMax="1430" yMax="1751">
      <component glyphName="Z" x="0" y="0" flags="0x204"/>
      <component glyphName="dotaccent" x="623" y="463" flags="0x4"/>
    </TTGlyph>
    <TTGlyph name="a" xMin="72" yMin="-18" xMax="1053" yMax="981">
      <contour>
        <pt x="770" y="12" on="1"/>
        <pt x="795" y="117" on="1"/>
        <pt x="760" y="86" on="0"/>
        <pt x="675" y="36" on="0"/>
        <pt x="585" y="1" on="0"/>
        <pt x="496" y="-18" on="0"/>
        <pt x="459" y="-18" on="1"/>
        <pt x="394" y="-18" on="0"/>
        <pt x="256" y="20" on="0"/>
        <pt x="144" y="96" on="0"/>
        <pt x="72" y="210" on="0"/>
        <pt x="72" y="285" on="1"/>
        <pt x="72" y="383" on="0"/>
        <pt x="140" y="527" on="0"/>
        <pt x="257" y="621" on="0"/>
        <pt x="415" y="666" on="0"/>
        <pt x="506" y="666" on="1"/>
        <pt x="549" y="666" on="0"/>
        <pt x="639" y="652" on="0"/>
        <pt x="725" y="624" on="0"/>
        <pt x="803" y="578" on="0"/>
        <pt x="834" y="547" on="1"/>
        <pt x="831" y="601" on="0"/>
        <pt x="808" y="721" on="0"/>
        <pt x="759" y="820" on="0"/>
        <pt x="677" y="885" on="0"/>
        <pt x="614" y="885" on="1"/>
        <pt x="522" y="885" on="0"/>
        <pt x="395" y="790" on="0"/>
        <pt x="371" y="700" on="1"/>
        <pt x="111" y="727" on="1"/>
        <pt x="135" y="789" on="0"/>
        <pt x="223" y="884" on="0"/>
        <pt x="334" y="948" on="0"/>
        <pt x="460" y="981" on="0"/>
        <pt x="524" y="981" on="1"/>
        <pt x="622" y="981" on="0"/>
        <pt x="777" y="925" on="0"/>
        <pt x="895" y="827" on="0"/>
        <pt x="977" y="694" on="0"/>
        <pt x="1029" y="541" on="0"/>
        <pt x="1053" y="374" on="0"/>
        <pt x="1053" y="291" on="1"/>
        <pt x="1053" y="217" on="0"/>
        <pt x="1037" y="72" on="0"/>
        <pt x="1022" y="0" on="1"/>
      </contour>
      <contour>
        <pt x="823" y="295" on="1"/>
        <pt x="826" y="318" on="0"/>
        <pt x="829" y="362" on="0"/>
        <pt x="831" y="385" on="1"/>
        <pt x="826" y="432" on="0"/>
        <pt x="770" y="505" on="0"/>
        <pt x="690" y="556" on="0"/>
        <pt x="596" y="582" on="0"/>
        <pt x="551" y="582" on="1"/>
        <pt x="499" y="582" on="0"/>
        <pt x="409" y="547" on="0"/>
        <pt x="343" y="483" on="0"/>
        <pt x="305" y="395" on="0"/>
        <pt x="305" y="342" on="1"/>
        <pt x="305" y="288" on="0"/>
        <pt x="338" y="199" on="0"/>
        <pt x="398" y="134" on="0"/>
        <pt x="485" y="98" on="0"/>
        <pt x="539" y="98" on="1"/>
        <pt x="587" y="98" on="0"/>
        <pt x="679" y="126" on="0"/>
        <pt x="756" y="177" on="0"/>
        <pt x="811" y="250" on="0"/>
      </contour>
    </TTGlyph>
    <TTGlyph name="aacute" xMin="72" yMin="-18" xMax="1053" yMax="1447">
      <component glyphName="a" x="0" y="0" flags="0x204"/>
      <component glyphName="acute" x="473" y="-7" flags="0x4"/>
    </TTGlyph>
    <TTGlyph name="abreve" xMin="72" yMin="-18" xMax="1053" yMax="1395">
      <component glyphName="a" x="0" y="0" flags="0x204"/>
      <component glyphName="breve" x="248" y="0" flags="0x4"/>
    </TTGlyph>
    <TTGlyph name="acircumflex" xMin="72" yMin="-18" xMax="1053" yMax="1452">
      <component glyphName="a" x="0" y="0" flags="0x204"/>
      <component glyphName="circumflex" x="199" y="0" flags="0x4"/>
    </TTGlyph>
    <TTGlyph name="acute" xMin="0" yMin="1061" xMax="496" yMax="1454">
      <contour>
        <pt x="496" y="1257" on="1"/>
        <pt x="70" y="1061" on="1"/>
        <pt x="0" y="1147" on="1"/>
        <pt x="350" y="1454" on="1"/>
      </contour>
    </TTGlyph>
    <TTGlyph name="adieresis" xMin="72" yMin="-18" xMax="1053" yMax="1288">
      <component glyphName="a" x="0" y="0" flags="0x204"/>
      <component glyphName="dieresis" x="279" y="0" flags="0x4"/>
    </TTGlyph>
    <TTGlyph name="ae" xMin="72" yMin="-51" xMax="1821" yMax="981">
      <contour>
        <pt x="1386" y="281" on="1"/>
        <pt x="1308" y="281" on="0"/>
        <pt x="1153" y="322" on="0"/>
        <pt x="1090" y="367" on="1"/>
        <pt x="1091" y="328" on="0"/>
        <pt x="1099" y="246" on="0"/>
        <pt x="1118" y="169" on="0"/>
        <pt x="1149" y="101" on="0"/>
        <pt x="1198" y="50" on="0"/>
        <pt x="1267" y="20" on="0"/>
        <pt x="1315" y="20" on="1"/>
        <pt x="1360" y="20" on="0"/>
        <pt x="1438" y="53" on="0"/>
        <pt x="1497" y="109" on="0"/>
        <pt x="1535" y="185" on="0"/>
        <pt x="1542" y="229" on="1"/>
        <pt x="1788" y="174" on="1"/>
        <pt x="1759" y="112" on="0"/>
        <pt x="1654" y="26" on="0"/>
        <pt x="1526" y="-27" on="0"/>
        <pt x="1387" y="-51" on="0"/>
        <pt x="1323" y="-51" on="1"/>
        <pt x="1233" y="-51" on="0"/>
        <pt x="1085" y="-10" on="0"/>
        <pt x="1028" y="29" on="1"/>
        <pt x="1022" y="0" on="1"/>
        <pt x="770" y="12" on="1"/>
        <pt x="795" y="117" on="1"/>
        <pt x="760" y="86" on="0"/>
        <pt x="675" y="36" on="0"/>
        <pt x="585" y="1" on="0"/>
        <pt x="496" y="-18" on="0"/>
        <pt x="459" y="-18" on="1"/>
        <pt x="394" y="-18" on="0"/>
        <pt x="256" y="20" on="0"/>
        <pt x="144" y="96" on="0"/>
        <pt x="72" y="210" on="0"/>
        <pt x="72" y="285" on="1"/>
        <pt x="72" y="383" on="0"/>
        <pt x="140" y="527" on="0"/>
        <pt x="257" y="621" on="0"/>
        <pt x="415" y="666" on="0"/>
        <pt x="506" y="666" on="1"/>
        <pt x="549" y="666" on="0"/>
        <pt x="639" y="652" on="0"/>
        <pt x="725" y="624" on="0"/>
        <pt x="803" y="578" on="0"/>
        <pt x="834" y="547" on="1"/>
        <pt x="831" y="601" on="0"/>
        <pt x="808" y="721" on="0"/>
        <pt x="759" y="820" on="0"/>
        <pt x="677" y="885" on="0"/>
        <pt x="614" y="885" on="1"/>
        <pt x="522" y="885" on="0"/>
        <pt x="395" y="790" on="0"/>
        <pt x="371" y="700" on="1"/>
        <pt x="111" y="727" on="1"/>
        <pt x="135" y="789" on="0"/>
        <pt x="223" y="884" on="0"/>
        <pt x="334" y="948" on="0"/>
        <pt x="460" y="981" on="0"/>
        <pt x="524" y="981" on="1"/>
        <pt x="597" y="981" on="0"/>
        <pt x="720" y="949" on="0"/>
        <pt x="822" y="891" on="0"/>
        <pt x="903" y="810" on="0"/>
        <pt x="934" y="762" on="1"/>
        <pt x="1002" y="862" on="0"/>
        <pt x="1219" y="981" on="0"/>
        <pt x="1358" y="981" on="1"/>
        <pt x="1442" y="981" on="0"/>
        <pt x="1608" y="940" on="0"/>
        <pt x="1740" y="853" on="0"/>
        <pt x="1821" y="717" on="0"/>
        <pt x="1821" y="621" on="1"/>
        <pt x="1821" y="527" on="0"/>
        <pt x="1746" y="398" on="0"/>
        <pt x="1624" y="317" on="0"/>
        <pt x="1468" y="281" on="0"/>
      </contour>
      <contour>
        <pt x="1343" y="907" on="1"/>
        <pt x="1275" y="907" on="0"/>
        <pt x="1182" y="826" on="0"/>
        <pt x="1124" y="704" on="0"/>
        <pt x="1096" y="563" on="0"/>
        <pt x="1092" y="502" on="1"/>
        <pt x="1130" y="437" on="0"/>
        <pt x="1256" y="354" on="0"/>
        <pt x="1339" y="354" on="1"/>
        <pt x="1392" y="354" on="0"/>
        <pt x="1476" y="403" on="0"/>
        <pt x="1534" y="481" on="0"/>
        <pt x="1565" y="577" on="0"/>
        <pt x="1565" y="625" on="1"/>
        <pt x="1565" y="673" on="0"/>
        <pt x="1537" y="774" on="0"/>
        <pt x="1482" y="855" on="0"/>
        <pt x="1398" y="907" on="0"/>
      </contour>
      <contour>
        <pt x="823" y="295" on="1"/>
        <pt x="826" y="318" on="0"/>
        <pt x="829" y="362" on="0"/>
        <pt x="831" y="385" on="1"/>
        <pt x="826" y="432" on="0"/>
        <pt x="770" y="505" on="0"/>
        <pt x="690" y="556" on="0"/>
        <pt x="596" y="582" on="0"/>
        <pt x="551" y="582" on="1"/>
        <pt x="499" y="582" on="0"/>
        <pt x="409" y="547" on="0"/>
        <pt x="343" y="483" on="0"/>
        <pt x="305" y="395" on="0"/>
        <pt x="305" y="342" on="1"/>
        <pt x="305" y="288" on="0"/>
        <pt x="338" y="199" on="0"/>
        <pt x="398" y="134" on="0"/>
        <pt x="485" y="98" on="0"/>
        <pt x="539" y="98" on="1"/>
        <pt x="587" y="98" on="0"/>
        <pt x="679" y="126" on="0"/>
        <pt x="756" y="177" on="0"/>
        <pt x="811" y="250" on="0"/>
      </contour>
    </TTGlyph>
    <TTGlyph name="aeacute" xMin="72" yMin="-51" xMax="1821" yMax="1338">
      <component glyphName="ae" x="0" y="0" flags="0x204"/>
      <component glyphName="acute" x="879" y="-116" flags="0x4"/>
    </TTGlyph>
    <TTGlyph name="agrave" xMin="61" yMin="-18" xMax="1053" yMax="1451">
      <component glyphName="a" x="0" y="0" flags="0x204"/>
      <component glyphName="grave" x="61" y="-3" flags="0x4"/>
    </TTGlyph>
    <TTGlyph name="amacron" xMin="72" yMin="-18" xMax="1053" yMax="1232">
      <component glyphName="a" x="0" y="0" flags="0x204"/>
      <component glyphName="macron" x="236" y="-120" flags="0x4"/>
    </TTGlyph>
    <TTGlyph name="ampersand" xMin="133" yMin="-53" xMax="1354" yMax="1370">
      <contour>
        <pt x="1096" y="-53" on="1"/>
        <pt x="1049" y="-24" on="0"/>
        <pt x="952" y="46" on="0"/>
        <pt x="899" y="88" on="1"/>
        <pt x="824" y="31" on="0"/>
        <pt x="641" y="-37" on="0"/>
        <pt x="535" y="-37" on="1"/>
        <pt x="446" y="-37" on="0"/>
        <pt x="299" y="9" on="0"/>
        <pt x="192" y="98" on="0"/>
        <pt x="133" y="230" on="0"/>
        <pt x="133" y="317" on="1"/>
        <pt x="133" y="389" on="0"/>
        <pt x="170" y="502" on="0"/>
        <pt x="231" y="594" on="0"/>
        <pt x="313" y="669" on="0"/>
        <pt x="358" y="702" on="1"/>
        <pt x="318" y="781" on="0"/>
        <pt x="274" y="938" on="0"/>
        <pt x="274" y="1016" on="1"/>
        <pt x="274" y="1089" on="0"/>
        <pt x="324" y="1218" on="0"/>
        <pt x="416" y="1314" on="0"/>
        <pt x="546" y="1370" on="0"/>
        <pt x="627" y="1370" on="1"/>
        <pt x="701" y="1370" on="0"/>
        <pt x="811" y="1321" on="0"/>
        <pt x="883" y="1237" on="0"/>
        <pt x="918" y="1123" on="0"/>
        <pt x="918" y="1059" on="1"/>
        <pt x="918" y="998" on="0"/>
        <pt x="870" y="884" on="0"/>
        <pt x="792" y="775" on="0"/>
        <pt x="691" y="672" on="0"/>
        <pt x="637" y="623" on="1"/>
        <pt x="694" y="557" on="0"/>
        <pt x="827" y="435" on="0"/>
        <pt x="899" y="381" on="1"/>
        <pt x="911" y="421" on="0"/>
        <pt x="924" y="499" on="0"/>
        <pt x="924" y="535" on="1"/>
        <pt x="924" y="569" on="0"/>
        <pt x="918" y="638" on="0"/>
        <pt x="913" y="672" on="1"/>
        <pt x="1217" y="582" on="1"/>
        <pt x="1206" y="514" on="0"/>
        <pt x="1133" y="346" on="0"/>
        <pt x="1071" y="264" on="1"/>
        <pt x="1143" y="219" on="0"/>
        <pt x="1286" y="147" on="0"/>
        <pt x="1354" y="119" on="1"/>
      </contour>
      <contour>
        <pt x="526" y="49" on="1"/>
        <pt x="608" y="49" on="0"/>
        <pt x="739" y="121" on="0"/>
        <pt x="788" y="180" on="1"/>
        <pt x="710" y="249" on="0"/>
        <pt x="559" y="407" on="0"/>
        <pt x="494" y="492" on="1"/>
        <pt x="458" y="457" on="0"/>
        <pt x="395" y="389" on="0"/>
        <pt x="348" y="322" on="0"/>
        <pt x="322" y="256" on="0"/>
        <pt x="322" y="223" on="1"/>
        <pt x="322" y="182" on="0"/>
        <pt x="356" y="118" on="0"/>
        <pt x="413" y="73" on="0"/>
        <pt x="486" y="49" on="0"/>
      </contour>
      <contour>
        <pt x="428" y="1122" on="1"/>
        <pt x="428" y="1039" on="0"/>
        <pt x="472" y="881" on="0"/>
        <pt x="512" y="807" on="1"/>
        <pt x="557" y="838" on="0"/>
        <pt x="637" y="905" on="0"/>
        <pt x="697" y="985" on="0"/>
        <pt x="733" y="1081" on="0"/>
        <pt x="733" y="1141" on="1"/>
        <pt x="733" y="1165" on="0"/>
        <pt x="723" y="1219" on="0"/>
        <pt x="697" y="1264" on="0"/>
        <pt x="652" y="1294" on="0"/>
        <pt x="618" y="1294" on="1"/>
        <pt x="580" y="1294" on="0"/>
        <pt x="512" y="1262" on="0"/>
        <pt x="459" y="1211" on="0"/>
        <pt x="428" y="1150" on="0"/>
      </contour>
    </TTGlyph>
    <TTGlyph name="aogonek" xMin="72" yMin="-375" xMax="1212" yMax="981">
      <contour>
        <pt x="1212" y="-158" on="1"/>
        <pt x="1201" y="-207" on="0"/>
        <pt x="1153" y="-287" on="0"/>
        <pt x="1084" y="-344" on="0"/>
        <pt x="996" y="-375" on="0"/>
        <pt x="946" y="-375" on="1"/>
        <pt x="906" y="-375" on="0"/>
        <pt x="832" y="-351" on="0"/>
        <pt x="774" y="-306" on="0"/>
        <pt x="739" y="-240" on="0"/>
        <pt x="739" y="-197" on="1"/>
        <pt x="739" y="-140" on="0"/>
        <pt x="792" y="-35" on="0"/>
        <pt x="829" y="8" on="1"/>
        <pt x="770" y="12" on="1"/>
        <pt x="795" y="117" on="1"/>
        <pt x="760" y="86" on="0"/>
        <pt x="675" y="36" on="0"/>
        <pt x="585" y="1" on="0"/>
        <pt x="496" y="-18" on="0"/>
        <pt x="459" y="-18" on="1"/>
        <pt x="394" y="-18" on="0"/>
        <pt x="256" y="20" on="0"/>
        <pt x="144" y="96" on="0"/>
        <pt x="72" y="210" on="0"/>
        <pt x="72" y="285" on="1"/>
        <pt x="72" y="383" on="0"/>
        <pt x="140" y="527" on="0"/>
        <pt x="257" y="621" on="0"/>
        <pt x="415" y="666" on="0"/>
        <pt x="506" y="666" on="1"/>
        <pt x="549" y="666" on="0"/>
        <pt x="639" y="652" on="0"/>
        <pt x="725" y="624" on="0"/>
        <pt x="803" y="578" on="0"/>
        <pt x="834" y="547" on="1"/>
        <pt x="831" y="601" on="0"/>
        <pt x="808" y="721" on="0"/>
        <pt x="759" y="820" on="0"/>
        <pt x="677" y="885" on="0"/>
        <pt x="614" y="885" on="1"/>
        <pt x="522" y="885" on="0"/>
        <pt x="395" y="790" on="0"/>
        <pt x="371" y="700" on="1"/>
        <pt x="111" y="727" on="1"/>
        <pt x="135" y="789" on="0"/>
        <pt x="223" y="884" on="0"/>
        <pt x="334" y="948" on="0"/>
        <pt x="460" y="981" on="0"/>
        <pt x="524" y="981" on="1"/>
        <pt x="622" y="981" on="0"/>
        <pt x="777" y="925" on="0"/>
        <pt x="895" y="827" on="0"/>
        <pt x="977" y="694" on="0"/>
        <pt x="1029" y="541" on="0"/>
        <pt x="1053" y="374" on="0"/>
        <pt x="1053" y="291" on="1"/>
        <pt x="1053" y="217" on="0"/>
        <pt x="1037" y="72" on="0"/>
        <pt x="1022" y="0" on="1"/>
        <pt x="934" y="4" on="1"/>
        <pt x="909" y="-36" on="0"/>
        <pt x="881" y="-128" on="0"/>
        <pt x="881" y="-176" on="1"/>
        <pt x="881" y="-194" on="0"/>
        <pt x="891" y="-242" on="0"/>
        <pt x="912" y="-285" on="0"/>
        <pt x="946" y="-315" on="0"/>
        <pt x="969" y="-315" on="1"/>
        <pt x="994" y="-315" on="0"/>
        <pt x="1026" y="-287" on="0"/>
        <pt x="1044" y="-246" on="0"/>
        <pt x="1051" y="-199" on="0"/>
        <pt x="1051" y="-180" on="1"/>
        <pt x="1051" y="-165" on="0"/>
        <pt x="1048" y="-132" on="0"/>
        <pt x="1044" y="-115" on="1"/>
      </contour>
      <contour>
        <pt x="823" y="295" on="1"/>
        <pt x="826" y="318" on="0"/>
        <pt x="829" y="362" on="0"/>
        <pt x="831" y="385" on="1"/>
        <pt x="826" y="432" on="0"/>
        <pt x="770" y="505" on="0"/>
        <pt x="690" y="556" on="0"/>
        <pt x="596" y="582" on="0"/>
        <pt x="551" y="582" on="1"/>
        <pt x="499" y="582" on="0"/>
        <pt x="409" y="547" on="0"/>
        <pt x="343" y="483" on="0"/>
        <pt x="305" y="395" on="0"/>
        <pt x="305" y="342" on="1"/>
        <pt x="305" y="288" on="0"/>
        <pt x="338" y="199" on="0"/>
        <pt x="398" y="134" on="0"/>
        <pt x="485" y="98" on="0"/>
        <pt x="539" y="98" on="1"/>
        <pt x="587" y="98" on="0"/>
        <pt x="679" y="126" on="0"/>
        <pt x="756" y="177" on="0"/>
        <pt x="811" y="250" on="0"/>
      </contour>
    </TTGlyph>
    <TTGlyph name="approxequal" xMin="127" yMin="336" xMax="1100" yMax="1098">
      <contour>
        <pt x="1100" y="930" on="1"/>
        <pt x="1078" y="891" on="0"/>
        <pt x="1007" y="833" on="0"/>
        <pt x="927" y="794" on="0"/>
        <pt x="845" y="774" on="0"/>
        <pt x="813" y="774" on="1"/>
        <pt x="763" y="774" on="0"/>
        <pt x="690" y="803" on="0"/>
        <pt x="634" y="846" on="0"/>
        <pt x="591" y="897" on="0"/>
        <pt x="550" y="940" on="0"/>
        <pt x="508" y="969" on="0"/>
        <pt x="481" y="969" on="1"/>
        <pt x="437" y="969" on="0"/>
        <pt x="373" y="928" on="0"/>
        <pt x="329" y="863" on="0"/>
        <pt x="306" y="784" on="0"/>
        <pt x="305" y="745" on="1"/>
        <pt x="127" y="874" on="1"/>
        <pt x="143" y="918" on="0"/>
        <pt x="198" y="999" on="0"/>
        <pt x="270" y="1061" on="0"/>
        <pt x="358" y="1098" on="0"/>
        <pt x="408" y="1098" on="1"/>
        <pt x="466" y="1098" on="0"/>
        <pt x="544" y="1071" on="0"/>
        <pt x="600" y="1031" on="0"/>
        <pt x="641" y="985" on="0"/>
        <pt x="682" y="945" on="0"/>
        <pt x="729" y="918" on="0"/>
        <pt x="764" y="918" on="1"/>
        <pt x="788" y="918" on="0"/>
        <pt x="826" y="931" on="0"/>
        <pt x="856" y="953" on="0"/>
        <pt x="879" y="980" on="0"/>
        <pt x="887" y="995" on="1"/>
        <pt x="906" y="1029" on="0"/>
        <pt x="915" y="1073" on="1"/>
      </contour>
      <contour>
        <pt x="1100" y="520" on="1"/>
        <pt x="1078" y="482" on="0"/>
        <pt x="1007" y="424" on="0"/>
        <pt x="927" y="385" on="0"/>
        <pt x="845" y="365" on="0"/>
        <pt x="813" y="365" on="1"/>
        <pt x="763" y="365" on="0"/>
        <pt x="690" y="394" on="0"/>
        <pt x="634" y="437" on="0"/>
        <pt x="591" y="487" on="0"/>
        <pt x="550" y="530" on="0"/>
        <pt x="508" y="559" on="0"/>
        <pt x="481" y="559" on="1"/>
        <pt x="437" y="559" on="0"/>
        <pt x="373" y="518" on="0"/>
        <pt x="329" y="453" on="0"/>
        <pt x="306" y="374" on="0"/>
        <pt x="305" y="336" on="1"/>
        <pt x="127" y="465" on="1"/>
        <pt x="143" y="509" on="0"/>
        <pt x="198" y="590" on="0"/>
        <pt x="270" y="651" on="0"/>
        <pt x="358" y="688" on="0"/>
        <pt x="408" y="688" on="1"/>
        <pt x="466" y="688" on="0"/>
        <pt x="544" y="661" on="0"/>
        <pt x="600" y="621" on="0"/>
        <pt x="641" y="575" on="0"/>
        <pt x="682" y="535" on="0"/>
        <pt x="729" y="508" on="0"/>
        <pt x="764" y="508" on="1"/>
        <pt x="788" y="508" on="0"/>
        <pt x="826" y="521" on="0"/>
        <pt x="856" y="543" on="0"/>
        <pt x="879" y="571" on="0"/>
        <pt x="887" y="586" on="1"/>
        <pt x="906" y="620" on="0"/>
        <pt x="915" y="664" on="1"/>
      </contour>
    </TTGlyph>
    <TTGlyph name="aring" xMin="72" yMin="-18" xMax="1053" yMax="1491">
      <component glyphName="a" x="0" y="0" flags="0x204"/>
      <component glyphName="ring" x="313" y="0" flags="0x4"/>
    </TTGlyph>
    <TTGlyph name="asciicircum" xMin="0" yMin="756" xMax="727" yMax="1288">
      <contour>
        <pt x="727" y="915" on="1"/>
        <pt x="604" y="756" on="1"/>
        <pt x="360" y="1155" on="1"/>
        <pt x="145" y="756" on="1"/>
        <pt x="0" y="883" on="1"/>
        <pt x="358" y="1288" on="1"/>
      </contour>
    </TTGlyph>
    <TTGlyph name="asciitilde" xMin="76" yMin="623" xMax="1049" yMax="975">
      <contour>
        <pt x="1049" y="807" on="1"/>
        <pt x="1027" y="769" on="0"/>
        <pt x="956" y="710" on="0"/>
        <pt x="876" y="671" on="0"/>
        <pt x="794" y="651" on="0"/>
        <pt x="762" y="651" on="1"/>
        <pt x="712" y="651" on="0"/>
        <pt x="639" y="680" on="0"/>
        <pt x="583" y="723" on="0"/>
        <pt x="540" y="774" on="0"/>
        <pt x="499" y="817" on="0"/>
        <pt x="457" y="846" on="0"/>
        <pt x="430" y="846" on="1"/>
        <pt x="386" y="846" on="0"/>
        <pt x="321" y="805" on="0"/>
        <pt x="278" y="740" on="0"/>
        <pt x="255" y="661" on="0"/>
        <pt x="254" y="623" on="1"/>
        <pt x="76" y="752" on="1"/>
        <pt x="92" y="795" on="0"/>
        <pt x="147" y="876" on="0"/>
        <pt x="219" y="938" on="0"/>
        <pt x="307" y="975" on="0"/>
        <pt x="356" y="975" on="1"/>
        <pt x="414" y="975" on="0"/>
        <pt x="493" y="948" on="0"/>
        <pt x="549" y="908" on="0"/>
        <pt x="589" y="862" on="0"/>
        <pt x="630" y="822" on="0"/>
        <pt x="678" y="795" on="0"/>
        <pt x="713" y="795" on="1"/>
        <pt x="737" y="795" on="0"/>
        <pt x="775" y="808" on="0"/>
        <pt x="805" y="830" on="0"/>
        <pt x="828" y="857" on="0"/>
        <pt x="836" y="872" on="1"/>
        <pt x="855" y="906" on="0"/>
        <pt x="864" y="950" on="1"/>
      </contour>
    </TTGlyph>
    <TTGlyph name="asterisk" xMin="90" yMin="610" xMax="807" yMax="1350">
      <contour>
        <pt x="807" y="979" on="1"/>
        <pt x="578" y="944" on="1"/>
        <pt x="547" y="938" on="1"/>
        <pt x="748" y="766" on="1"/>
        <pt x="549" y="629" on="1"/>
        <pt x="467" y="893" on="1"/>
        <pt x="348" y="610" on="1"/>
        <pt x="158" y="743" on="1"/>
        <pt x="354" y="938" on="1"/>
        <pt x="340" y="940" on="1"/>
        <pt x="90" y="971" on="1"/>
        <pt x="170" y="1182" on="1"/>
        <pt x="401" y="1055" on="1"/>
        <pt x="348" y="1327" on="1"/>
        <pt x="582" y="1350" on="1"/>
        <pt x="526" y="1073" on="1"/>
        <pt x="735" y="1202" on="1"/>
      </contour>
    </TTGlyph>
    <TTGlyph name="at" xMin="90" yMin="-150" xMax="1534" yMax="1030">
      <contour>
        <pt x="1534" y="479" on="1"/>
        <pt x="1534" y="384" on="0"/>
        <pt x="1479" y="219" on="0"/>
        <pt x="1374" y="96" on="0"/>
        <pt x="1221" y="25" on="0"/>
        <pt x="1124" y="25" on="1"/>
        <pt x="1076" y="25" on="0"/>
        <pt x="994" y="49" on="0"/>
        <pt x="932" y="98" on="0"/>
        <pt x="895" y="172" on="0"/>
        <pt x="891" y="221" on="1"/>
        <pt x="861" y="198" on="0"/>
        <pt x="791" y="159" on="0"/>
        <pt x="719" y="130" on="0"/>
        <pt x="647" y="113" on="0"/>
        <pt x="616" y="113" on="1"/>
        <pt x="581" y="113" on="0"/>
        <pt x="522" y="137" on="0"/>
        <pt x="478" y="180" on="0"/>
        <pt x="453" y="239" on="0"/>
        <pt x="453" y="274" on="1"/>
        <pt x="453" y="321" on="0"/>
        <pt x="491" y="394" on="0"/>
        <pt x="555" y="447" on="0"/>
        <pt x="637" y="483" on="0"/>
        <pt x="725" y="505" on="0"/>
        <pt x="813" y="514" on="0"/>
        <pt x="850" y="514" on="1"/>
        <pt x="873" y="514" on="0"/>
        <pt x="919" y="511" on="0"/>
        <pt x="942" y="506" on="1"/>
        <pt x="947" y="531" on="0"/>
        <pt x="952" y="580" on="0"/>
        <pt x="952" y="606" on="1"/>
        <pt x="952" y="635" on="0"/>
        <pt x="941" y="687" on="0"/>
        <pt x="915" y="726" on="0"/>
        <pt x="872" y="748" on="0"/>
        <pt x="840" y="748" on="1"/>
        <pt x="800" y="748" on="0"/>
        <pt x="748" y="711" on="0"/>
        <pt x="718" y="652" on="0"/>
        <pt x="709" y="582" on="0"/>
        <pt x="711" y="549" on="1"/>
        <pt x="522" y="582" on="1"/>
        <pt x="532" y="640" on="0"/>
        <pt x="587" y="722" on="0"/>
        <pt x="666" y="775" on="0"/>
        <pt x="765" y="799" on="0"/>
        <pt x="819" y="799" on="1"/>
        <pt x="894" y="799" on="0"/>
        <pt x="1009" y="755" on="0"/>
        <pt x="1085" y="674" on="0"/>
        <pt x="1124" y="557" on="0"/>
        <pt x="1124" y="485" on="1"/>
        <pt x="1124" y="445" on="0"/>
        <pt x="1115" y="367" on="0"/>
        <pt x="1105" y="288" on="0"/>
        <pt x="1096" y="210" on="0"/>
        <pt x="1096" y="170" on="1"/>
        <pt x="1096" y="157" on="0"/>
        <pt x="1098" y="122" on="0"/>
        <pt x="1108" y="91" on="0"/>
        <pt x="1129" y="70" on="0"/>
        <pt x="1147" y="70" on="1"/>
        <pt x="1181" y="70" on="0"/>
        <pt x="1232" y="109" on="0"/>
        <pt x="1269" y="171" on="0"/>
        <pt x="1293" y="249" on="0"/>
        <pt x="1307" y="327" on="0"/>
        <pt x="1313" y="398" on="0"/>
        <pt x="1313" y="422" on="1"/>
        <pt x="1313" y="551" on="0"/>
        <pt x="1243" y="756" on="0"/>
        <pt x="1107" y="899" on="0"/>
        <pt x="906" y="975" on="0"/>
        <pt x="776" y="975" on="1"/>
        <pt x="642" y="975" on="0"/>
        <pt x="464" y="892" on="0"/>
        <pt x="358" y="743" on="0"/>
        <pt x="313" y="539" on="0"/>
        <pt x="313" y="418" on="1"/>
        <pt x="313" y="340" on="0"/>
        <pt x="351" y="171" on="0"/>
        <pt x="429" y="23" on="0"/>
        <pt x="550" y="-89" on="0"/>
        <pt x="633" y="-111" on="1"/>
        <pt x="621" y="-150" on="1"/>
        <pt x="511" y="-136" on="0"/>
        <pt x="318" y="-42" on="0"/>
        <pt x="174" y="106" on="0"/>
        <pt x="90" y="300" on="0"/>
        <pt x="90" y="414" on="1"/>
        <pt x="90" y="558" on="0"/>
        <pt x="208" y="786" on="0"/>
        <pt x="404" y="945" on="0"/>
        <pt x="656" y="1030" on="0"/>
        <pt x="791" y="1030" on="1"/>
        <pt x="872" y="1030" on="0"/>
        <pt x="1046" y="1001" on="0"/>
        <pt x="1211" y="942" on="0"/>
        <pt x="1358" y="852" on="0"/>
        <pt x="1469" y="729" on="0"/>
        <pt x="1534" y="574" on="0"/>
      </contour>
      <contour>
        <pt x="893" y="283" on="1"/>
        <pt x="898" y="326" on="0"/>
        <pt x="921" y="414" on="0"/>
        <pt x="932" y="459" on="1"/>
        <pt x="919" y="461" on="0"/>
        <pt x="896" y="461" on="0"/>
        <pt x="885" y="461" on="1"/>
        <pt x="854" y="461" on="0"/>
        <pt x="769" y="447" on="0"/>
        <pt x="691" y="414" on="0"/>
        <pt x="637" y="359" on="0"/>
        <pt x="637" y="317" on="1"/>
        <pt x="637" y="296" on="0"/>
        <pt x="656" y="263" on="0"/>
        <pt x="686" y="240" on="0"/>
        <pt x="725" y="229" on="0"/>
        <pt x="745" y="229" on="1"/>
        <pt x="783" y="229" on="0"/>
        <pt x="859" y="261" on="0"/>
      </contour>
    </TTGlyph>
    <TTGlyph name="atilde" xMin="72" yMin="-18" xMax="1053" yMax="1322">
      <component glyphName="a" x="0" y="0" flags="0x204"/>
      <component glyphName="tilde" x="158" y="-24" flags="0x4"/>
    </TTGlyph>
    <TTGlyph name="b" xMin="94" yMin="-37" xMax="1094" yMax="1434">
      <contour>
        <pt x="846" y="516" on="1"/>
        <pt x="846" y="574" on="0"/>
        <pt x="821" y="707" on="0"/>
        <pt x="762" y="820" on="0"/>
        <pt x="665" y="893" on="0"/>
        <pt x="594" y="891" on="1"/>
        <pt x="542" y="889" on="0"/>
        <pt x="451" y="833" on="0"/>
        <pt x="382" y="746" on="0"/>
        <pt x="340" y="641" on="0"/>
        <pt x="338" y="592" on="1"/>
        <pt x="335" y="518" on="0"/>
        <pt x="328" y="367" on="0"/>
        <pt x="328" y="293" on="1"/>
        <pt x="328" y="256" on="0"/>
        <pt x="375" y="187" on="0"/>
        <pt x="445" y="133" on="0"/>
        <pt x="526" y="100" on="0"/>
        <pt x="561" y="100" on="1"/>
        <pt x="613" y="100" on="0"/>
        <pt x="695" y="138" on="0"/>
        <pt x="759" y="202" on="0"/>
        <pt x="804" y="286" on="0"/>
        <pt x="833" y="379" on="0"/>
        <pt x="846" y="474" on="0"/>
      </contour>
      <contour>
        <pt x="369" y="1434" on="1"/>
        <pt x="348" y="840" on="1"/>
        <pt x="393" y="911" on="0"/>
        <pt x="542" y="991" on="0"/>
        <pt x="635" y="991" on="1"/>
        <pt x="740" y="991" on="0"/>
        <pt x="910" y="913" on="0"/>
        <pt x="1029" y="780" on="0"/>
        <pt x="1094" y="601" on="0"/>
        <pt x="1094" y="500" on="1"/>
        <pt x="1094" y="433" on="0"/>
        <pt x="1060" y="306" on="0"/>
        <pt x="998" y="194" on="0"/>
        <pt x="910" y="100" on="0"/>
        <pt x="801" y="33" on="0"/>
        <pt x="675" y="-4" on="0"/>
        <pt x="606" y="-4" on="1"/>
        <pt x="578" y="-4" on="0"/>
        <pt x="504" y="12" on="0"/>
        <pt x="426" y="41" on="0"/>
        <pt x="351" y="83" on="0"/>
        <pt x="324" y="109" on="1"/>
        <pt x="319" y="-23" on="1"/>
        <pt x="154" y="-37" on="1"/>
        <pt x="94" y="1409" on="1"/>
      </contour>
    </TTGlyph>
    <TTGlyph name="backslash" xMin="113" yMin="-47" xMax="1292" yMax="1495">
      <contour>
        <pt x="1292" y="37" on="1"/>
        <pt x="1192" y="-47" on="1"/>
        <pt x="113" y="1434" on="1"/>
        <pt x="342" y="1495" on="1"/>
      </contour>
    </TTGlyph>
    <TTGlyph name="bar" xMin="121" yMin="-285" xMax="418" yMax="1714">
      <contour>
        <pt x="418" y="1714" on="1"/>
        <pt x="344" y="-279" on="1"/>
        <pt x="162" y="-285" on="1"/>
        <pt x="121" y="1690" on="1"/>
      </contour>
    </TTGlyph>
    <TTGlyph name="braceleft" xMin="72" yMin="-229" xMax="797" yMax="1694">
      <contour>
        <pt x="797" y="141" on="1"/>
        <pt x="707" y="-225" on="1"/>
        <pt x="674" y="-227" on="1"/>
        <pt x="564" y="-229" on="0"/>
        <pt x="371" y="-166" on="0"/>
        <pt x="227" y="-45" on="0"/>
        <pt x="143" y="131" on="0"/>
        <pt x="143" y="244" on="1"/>
        <pt x="143" y="311" on="0"/>
        <pt x="186" y="416" on="0"/>
        <pt x="238" y="498" on="0"/>
        <pt x="281" y="563" on="0"/>
        <pt x="281" y="592" on="1"/>
        <pt x="281" y="610" on="0"/>
        <pt x="263" y="638" on="0"/>
        <pt x="234" y="657" on="0"/>
        <pt x="200" y="666" on="0"/>
        <pt x="184" y="666" on="1"/>
        <pt x="155" y="666" on="0"/>
        <pt x="98" y="645" on="0"/>
        <pt x="72" y="631" on="1"/>
        <pt x="72" y="836" on="1"/>
        <pt x="98" y="822" on="0"/>
        <pt x="155" y="801" on="0"/>
        <pt x="184" y="801" on="1"/>
        <pt x="200" y="801" on="0"/>
        <pt x="234" y="810" on="0"/>
        <pt x="263" y="828" on="0"/>
        <pt x="281" y="856" on="0"/>
        <pt x="281" y="874" on="1"/>
        <pt x="281" y="902" on="0"/>
        <pt x="238" y="967" on="0"/>
        <pt x="186" y="1050" on="0"/>
        <pt x="143" y="1154" on="0"/>
        <pt x="143" y="1223" on="1"/>
        <pt x="143" y="1336" on="0"/>
        <pt x="227" y="1512" on="0"/>
        <pt x="371" y="1633" on="0"/>
        <pt x="564" y="1694" on="0"/>
        <pt x="674" y="1692" on="1"/>
        <pt x="707" y="1692" on="1"/>
        <pt x="797" y="1325" on="1"/>
        <pt x="750" y="1347" on="0"/>
        <pt x="651" y="1370" on="0"/>
        <pt x="600" y="1370" on="1"/>
        <pt x="546" y="1370" on="0"/>
        <pt x="437" y="1339" on="0"/>
        <pt x="350" y="1278" on="0"/>
        <pt x="295" y="1185" on="0"/>
        <pt x="295" y="1124" on="1"/>
        <pt x="295" y="1082" on="0"/>
        <pt x="318" y="1013" on="0"/>
        <pt x="346" y="953" on="0"/>
        <pt x="369" y="901" on="0"/>
        <pt x="369" y="877" on="1"/>
        <pt x="369" y="845" on="0"/>
        <pt x="338" y="793" on="0"/>
        <pt x="290" y="754" on="0"/>
        <pt x="231" y="733" on="0"/>
        <pt x="203" y="733" on="1"/>
        <pt x="231" y="733" on="0"/>
        <pt x="290" y="711" on="0"/>
        <pt x="338" y="673" on="0"/>
        <pt x="369" y="621" on="0"/>
        <pt x="369" y="590" on="1"/>
        <pt x="369" y="565" on="0"/>
        <pt x="346" y="513" on="0"/>
        <pt x="318" y="453" on="0"/>
        <pt x="295" y="384" on="0"/>
        <pt x="295" y="342" on="1"/>
        <pt x="295" y="280" on="0"/>
        <pt x="350" y="188" on="0"/>
        <pt x="437" y="127" on="0"/>
        <pt x="546" y="96" on="0"/>
        <pt x="600" y="96" on="1"/>
        <pt x="651" y="96" on="0"/>
        <pt x="750" y="120" on="0"/>
      </contour>
    </TTGlyph>
    <TTGlyph name="braceright" xMin="66" yMin="-229" xMax="791" yMax="1694">
      <contour>
        <pt x="791" y="631" on="1"/>
        <pt x="766" y="645" on="0"/>
        <pt x="709" y="666" on="0"/>
        <pt x="678" y="666" on="1"/>
        <pt x="662" y="666" on="0"/>
        <pt x="628" y="657" on="0"/>
        <pt x="601" y="638" on="0"/>
        <pt x="584" y="610" on="0"/>
        <pt x="584" y="592" on="1"/>
        <pt x="584" y="563" on="0"/>
        <pt x="626" y="498" on="0"/>
        <pt x="677" y="416" on="0"/>
        <pt x="719" y="311" on="0"/>
        <pt x="719" y="244" on="1"/>
        <pt x="719" y="131" on="0"/>
        <pt x="635" y="-45" on="0"/>
        <pt x="491" y="-166" on="0"/>
        <pt x="298" y="-229" on="0"/>
        <pt x="188" y="-227" on="1"/>
        <pt x="156" y="-225" on="1"/>
        <pt x="66" y="141" on="1"/>
        <pt x="112" y="120" on="0"/>
        <pt x="211" y="96" on="0"/>
        <pt x="262" y="96" on="1"/>
        <pt x="317" y="96" on="0"/>
        <pt x="426" y="127" on="0"/>
        <pt x="513" y="188" on="0"/>
        <pt x="567" y="280" on="0"/>
        <pt x="567" y="342" on="1"/>
        <pt x="567" y="384" on="0"/>
        <pt x="544" y="453" on="0"/>
        <pt x="517" y="513" on="0"/>
        <pt x="494" y="565" on="0"/>
        <pt x="494" y="590" on="1"/>
        <pt x="494" y="621" on="0"/>
        <pt x="525" y="673" on="0"/>
        <pt x="573" y="711" on="0"/>
        <pt x="633" y="733" on="0"/>
        <pt x="662" y="733" on="1"/>
        <pt x="633" y="733" on="0"/>
        <pt x="573" y="754" on="0"/>
        <pt x="525" y="793" on="0"/>
        <pt x="494" y="845" on="0"/>
        <pt x="494" y="877" on="1"/>
        <pt x="494" y="901" on="0"/>
        <pt x="517" y="953" on="0"/>
        <pt x="544" y="1013" on="0"/>
        <pt x="567" y="1082" on="0"/>
        <pt x="567" y="1124" on="1"/>
        <pt x="567" y="1185" on="0"/>
        <pt x="513" y="1278" on="0"/>
        <pt x="426" y="1339" on="0"/>
        <pt x="317" y="1370" on="0"/>
        <pt x="262" y="1370" on="1"/>
        <pt x="211" y="1370" on="0"/>
        <pt x="112" y="1347" on="0"/>
        <pt x="66" y="1325" on="1"/>
        <pt x="156" y="1692" on="1"/>
        <pt x="188" y="1692" on="1"/>
        <pt x="298" y="1694" on="0"/>
        <pt x="491" y="1633" on="0"/>
        <pt x="635" y="1512" on="0"/>
        <pt x="719" y="1336" on="0"/>
        <pt x="719" y="1223" on="1"/>
        <pt x="719" y="1154" on="0"/>
        <pt x="677" y="1050" on="0"/>
        <pt x="626" y="967" on="0"/>
        <pt x="584" y="902" on="0"/>
        <pt x="584" y="874" on="1"/>
        <pt x="584" y="856" on="0"/>
        <pt x="601" y="828" on="0"/>
        <pt x="628" y="810" on="0"/>
        <pt x="662" y="801" on="0"/>
        <pt x="678" y="801" on="1"/>
        <pt x="709" y="801" on="0"/>
        <pt x="766" y="822" on="0"/>
        <pt x="791" y="836" on="1"/>
      </contour>
    </TTGlyph>
    <TTGlyph name="bracketleft" xMin="139" yMin="-211" xMax="772" yMax="1708">
      <contour>
        <pt x="772" y="90" on="1"/>
        <pt x="741" y="-195" on="1"/>
        <pt x="139" y="-211" on="1"/>
        <pt x="139" y="1659" on="1"/>
        <pt x="735" y="1708" on="1"/>
        <pt x="735" y="1464" on="1"/>
        <pt x="708" y="1479" on="0"/>
        <pt x="626" y="1503" on="0"/>
        <pt x="536" y="1522" on="0"/>
        <pt x="449" y="1535" on="0"/>
        <pt x="418" y="1538" on="1"/>
        <pt x="279" y="-90" on="1"/>
        <pt x="332" y="-85" on="0"/>
        <pt x="465" y="-49" on="0"/>
        <pt x="600" y="2" on="0"/>
        <pt x="726" y="61" on="0"/>
      </contour>
    </TTGlyph>
    <TTGlyph name="bracketright" xMin="55" yMin="-211" xMax="688" yMax="1708">
      <contour>
        <pt x="688" y="-160" on="1"/>
        <pt x="92" y="-211" on="1"/>
        <pt x="92" y="33" on="1"/>
        <pt x="119" y="18" on="0"/>
        <pt x="201" y="-6" on="0"/>
        <pt x="291" y="-24" on="0"/>
        <pt x="378" y="-37" on="0"/>
        <pt x="410" y="-41" on="1"/>
        <pt x="547" y="1589" on="1"/>
        <pt x="495" y="1583" on="0"/>
        <pt x="362" y="1546" on="0"/>
        <pt x="226" y="1495" on="0"/>
        <pt x="100" y="1435" on="0"/>
        <pt x="55" y="1407" on="1"/>
        <pt x="86" y="1692" on="1"/>
        <pt x="688" y="1708" on="1"/>
      </contour>
    </TTGlyph>
    <TTGlyph name="breve" xMin="0" yMin="1040" xMax="641" yMax="1395">
      <contour>
        <pt x="641" y="1337" on="1"/>
        <pt x="630" y="1280" on="0"/>
        <pt x="574" y="1172" on="0"/>
        <pt x="491" y="1090" on="0"/>
        <pt x="384" y="1040" on="0"/>
        <pt x="322" y="1040" on="1"/>
        <pt x="258" y="1040" on="0"/>
        <pt x="150" y="1087" on="0"/>
        <pt x="67" y="1167" on="0"/>
        <pt x="12" y="1275" on="0"/>
        <pt x="0" y="1335" on="1"/>
        <pt x="213" y="1395" on="1"/>
        <pt x="208" y="1369" on="0"/>
        <pt x="201" y="1314" on="0"/>
        <pt x="201" y="1286" on="1"/>
        <pt x="201" y="1263" on="0"/>
        <pt x="213" y="1207" on="0"/>
        <pt x="239" y="1157" on="0"/>
        <pt x="280" y="1124" on="0"/>
        <pt x="309" y="1124" on="1"/>
        <pt x="350" y="1124" on="0"/>
        <pt x="402" y="1168" on="0"/>
        <pt x="432" y="1232" on="0"/>
        <pt x="444" y="1307" on="0"/>
        <pt x="444" y="1339" on="1"/>
        <pt x="444" y="1353" on="0"/>
        <pt x="442" y="1381" on="0"/>
        <pt x="442" y="1395" on="1"/>
      </contour>
    </TTGlyph>
    <TTGlyph name="brokenbar" xMin="131" yMin="-285" xMax="426" yMax="1714">
      <contour>
        <pt x="387" y="637" on="1"/>
        <pt x="354" y="-279" on="1"/>
        <pt x="152" y="-285" on="1"/>
        <pt x="141" y="637" on="1"/>
      </contour>
      <contour>
        <pt x="426" y="1714" on="1"/>
        <pt x="397" y="911" on="1"/>
        <pt x="139" y="911" on="1"/>
        <pt x="131" y="1690" on="1"/>
      </contour>
    </TTGlyph>
    <TTGlyph name="bullet" xMin="152" yMin="442" xMax="680" yMax="971">
      <contour>
        <pt x="680" y="707" on="1"/>
        <pt x="680" y="652" on="0"/>
        <pt x="638" y="556" on="0"/>
        <pt x="566" y="484" on="0"/>
        <pt x="470" y="442" on="0"/>
        <pt x="416" y="442" on="1"/>
        <pt x="361" y="442" on="0"/>
        <pt x="265" y="484" on="0"/>
        <pt x="193" y="556" on="0"/>
        <pt x="152" y="652" on="0"/>
        <pt x="152" y="707" on="1"/>
        <pt x="152" y="761" on="0"/>
        <pt x="193" y="857" on="0"/>
        <pt x="265" y="929" on="0"/>
        <pt x="361" y="971" on="0"/>
        <pt x="416" y="971" on="1"/>
        <pt x="470" y="971" on="0"/>
        <pt x="566" y="929" on="0"/>
        <pt x="638" y="857" on="0"/>
        <pt x="680" y="761" on="0"/>
      </contour>
    </TTGlyph>
    <TTGlyph name="c" xMin="74" yMin="-41" xMax="1083" yMax="1001">
      <contour>
        <pt x="1083" y="639" on="1"/>
        <pt x="825" y="610" on="1"/>
        <pt x="825" y="651" on="1"/>
        <pt x="825" y="699" on="0"/>
        <pt x="794" y="798" on="0"/>
        <pt x="735" y="880" on="0"/>
        <pt x="649" y="932" on="0"/>
        <pt x="594" y="932" on="1"/>
        <pt x="540" y="932" on="0"/>
        <pt x="458" y="885" on="0"/>
        <pt x="398" y="808" on="0"/>
        <pt x="359" y="708" on="0"/>
        <pt x="336" y="602" on="0"/>
        <pt x="326" y="498" on="0"/>
        <pt x="326" y="455" on="1"/>
        <pt x="326" y="415" on="0"/>
        <pt x="332" y="322" on="0"/>
        <pt x="350" y="228" on="0"/>
        <pt x="383" y="141" on="0"/>
        <pt x="437" y="74" on="0"/>
        <pt x="514" y="33" on="0"/>
        <pt x="567" y="33" on="1"/>
        <pt x="620" y="33" on="0"/>
        <pt x="707" y="83" on="0"/>
        <pt x="770" y="162" on="0"/>
        <pt x="808" y="258" on="0"/>
        <pt x="813" y="303" on="1"/>
        <pt x="1079" y="297" on="1"/>
        <pt x="1061" y="213" on="0"/>
        <pt x="951" y="87" on="0"/>
        <pt x="802" y="2" on="0"/>
        <pt x="632" y="-41" on="0"/>
        <pt x="553" y="-41" on="1"/>
        <pt x="448" y="-41" on="0"/>
        <pt x="272" y="33" on="0"/>
        <pt x="145" y="163" on="0"/>
        <pt x="74" y="342" on="0"/>
        <pt x="74" y="446" on="1"/>
        <pt x="74" y="562" on="0"/>
        <pt x="150" y="765" on="0"/>
        <pt x="288" y="915" on="0"/>
        <pt x="479" y="1001" on="0"/>
        <pt x="594" y="1001" on="1"/>
        <pt x="688" y="1001" on="0"/>
        <pt x="849" y="957" on="0"/>
        <pt x="975" y="867" on="0"/>
        <pt x="1062" y="731" on="0"/>
      </contour>
    </TTGlyph>
    <TTGlyph name="cacute" xMin="74" yMin="-41" xMax="1083" yMax="1451">
      <component glyphName="c" x="0" y="0" flags="0x204"/>
      <component glyphName="acute" x="510" y="-3" flags="0x4"/>
    </TTGlyph>
    <TTGlyph name="caron" xMin="0" yMin="1042" xMax="727" yMax="1452">
      <contour>
        <pt x="727" y="1292" on="1"/>
        <pt x="358" y="1042" on="1"/>
        <pt x="0" y="1325" on="1"/>
        <pt x="145" y="1452" on="1"/>
        <pt x="352" y="1176" on="1"/>
        <pt x="604" y="1452" on="1"/>
      </contour>
    </TTGlyph>
    <TTGlyph name="ccaron" xMin="74" yMin="-41" xMax="1083" yMax="1452">
      <component glyphName="c" x="0" y="0" flags="0x204"/>
      <component glyphName="caron" x="209" y="0" flags="0x4"/>
    </TTGlyph>
    <TTGlyph name="ccedilla" xMin="74" yMin="-496" xMax="1083" yMax="1001">
      <contour>
        <pt x="557" y="-496" on="1"/>
        <pt x="528" y="-496" on="0"/>
        <pt x="465" y="-478" on="0"/>
        <pt x="405" y="-448" on="0"/>
        <pt x="351" y="-410" on="0"/>
        <pt x="330" y="-391" on="1"/>
        <pt x="457" y="-317" on="1"/>
        <pt x="465" y="-365" on="0"/>
        <pt x="527" y="-432" on="0"/>
        <pt x="578" y="-432" on="1"/>
        <pt x="599" y="-432" on="0"/>
        <pt x="632" y="-415" on="0"/>
        <pt x="653" y="-387" on="0"/>
        <pt x="664" y="-351" on="0"/>
        <pt x="664" y="-332" on="1"/>
        <pt x="664" y="-276" on="0"/>
        <pt x="603" y="-215" on="0"/>
        <pt x="547" y="-215" on="1"/>
        <pt x="519" y="-215" on="0"/>
        <pt x="464" y="-225" on="0"/>
        <pt x="436" y="-233" on="1"/>
        <pt x="510" y="-39" on="1"/>
        <pt x="413" y="-31" on="0"/>
        <pt x="253" y="48" on="0"/>
        <pt x="138" y="177" on="0"/>
        <pt x="74" y="347" on="0"/>
        <pt x="74" y="446" on="1"/>
        <pt x="74" y="562" on="0"/>
        <pt x="150" y="765" on="0"/>
        <pt x="288" y="915" on="0"/>
        <pt x="479" y="1001" on="0"/>
        <pt x="594" y="1001" on="1"/>
        <pt x="688" y="1001" on="0"/>
        <pt x="849" y="957" on="0"/>
        <pt x="975" y="867" on="0"/>
        <pt x="1062" y="731" on="0"/>
        <pt x="1083" y="639" on="1"/>
        <pt x="825" y="610" on="1"/>
        <pt x="825" y="651" on="1"/>
        <pt x="825" y="699" on="0"/>
        <pt x="794" y="798" on="0"/>
        <pt x="735" y="880" on="0"/>
        <pt x="649" y="932" on="0"/>
        <pt x="594" y="932" on="1"/>
        <pt x="540" y="932" on="0"/>
        <pt x="458" y="885" on="0"/>
        <pt x="398" y="808" on="0"/>
        <pt x="359" y="708" on="0"/>
        <pt x="336" y="602" on="0"/>
        <pt x="326" y="498" on="0"/>
        <pt x="326" y="455" on="1"/>
        <pt x="326" y="415" on="0"/>
        <pt x="332" y="322" on="0"/>
        <pt x="350" y="228" on="0"/>
        <pt x="383" y="141" on="0"/>
        <pt x="437" y="74" on="0"/>
        <pt x="514" y="33" on="0"/>
        <pt x="567" y="33" on="1"/>
        <pt x="620" y="33" on="0"/>
        <pt x="707" y="83" on="0"/>
        <pt x="770" y="162" on="0"/>
        <pt x="808" y="258" on="0"/>
        <pt x="813" y="303" on="1"/>
        <pt x="1079" y="297" on="1"/>
        <pt x="1061" y="219" on="0"/>
        <pt x="962" y="98" on="0"/>
        <pt x="827" y="14" on="0"/>
        <pt x="670" y="-34" on="0"/>
        <pt x="594" y="-39" on="1"/>
        <pt x="553" y="-147" on="1"/>
        <pt x="602" y="-123" on="0"/>
        <pt x="657" y="-123" on="1"/>
        <pt x="693" y="-123" on="0"/>
        <pt x="754" y="-153" on="0"/>
        <pt x="799" y="-203" on="0"/>
        <pt x="825" y="-267" on="0"/>
        <pt x="825" y="-301" on="1"/>
        <pt x="825" y="-352" on="0"/>
        <pt x="774" y="-425" on="0"/>
        <pt x="695" y="-473" on="0"/>
        <pt x="600" y="-496" on="0"/>
      </contour>
    </TTGlyph>
    <TTGlyph name="ccircumflex" xMin="74" yMin="-41" xMax="1083" yMax="1452">
      <component glyphName="c" x="0" y="0" flags="0x204"/>
      <component glyphName="circumflex" x="209" y="0" flags="0x4"/>
    </TTGlyph>
    <TTGlyph name="cdotaccent" xMin="74" yMin="-41" xMax="1083" yMax="1288">
      <component glyphName="c" x="0" y="0" flags="0x204"/>
      <component glyphName="dotaccent" x="459" y="0" flags="0x4"/>
    </TTGlyph>
    <TTGlyph name="cedilla" xMin="0" yMin="-496" xMax="496" yMax="27">
      <contour>
        <pt x="227" y="-496" on="1"/>
        <pt x="198" y="-496" on="0"/>
        <pt x="135" y="-478" on="0"/>
        <pt x="75" y="-448" on="0"/>
        <pt x="21" y="-410" on="0"/>
        <pt x="0" y="-391" on="1"/>
        <pt x="127" y="-317" on="1"/>
        <pt x="135" y="-365" on="0"/>
        <pt x="197" y="-432" on="0"/>
        <pt x="248" y="-432" on="1"/>
        <pt x="269" y="-432" on="0"/>
        <pt x="302" y="-415" on="0"/>
        <pt x="323" y="-387" on="0"/>
        <pt x="334" y="-351" on="0"/>
        <pt x="334" y="-332" on="1"/>
        <pt x="334" y="-276" on="0"/>
        <pt x="273" y="-215" on="0"/>
        <pt x="217" y="-215" on="1"/>
        <pt x="189" y="-215" on="0"/>
        <pt x="134" y="-225" on="0"/>
        <pt x="106" y="-233" on="1"/>
        <pt x="207" y="27" on="1"/>
        <pt x="279" y="0" on="1"/>
        <pt x="223" y="-147" on="1"/>
        <pt x="272" y="-123" on="0"/>
        <pt x="328" y="-123" on="1"/>
        <pt x="363" y="-123" on="0"/>
        <pt x="425" y="-153" on="0"/>
        <pt x="470" y="-203" on="0"/>
        <pt x="496" y="-267" on="0"/>
        <pt x="496" y="-301" on="1"/>
        <pt x="496" y="-352" on="0"/>
        <pt x="444" y="-425" on="0"/>
        <pt x="365" y="-473" on="0"/>
        <pt x="270" y="-496" on="0"/>
      </contour>
    </TTGlyph>
    <TTGlyph name="cent" xMin="94" yMin="-25" xMax="811" yMax="1421">
      <contour>
        <pt x="745" y="1401" on="1"/>
        <pt x="610" y="1053" on="1"/>
        <pt x="686" y="1025" on="0"/>
        <pt x="789" y="905" on="0"/>
        <pt x="811" y="811" on="1"/>
        <pt x="618" y="791" on="1"/>
        <pt x="620" y="802" on="0"/>
        <pt x="621" y="817" on="0"/>
        <pt x="621" y="825" on="1"/>
        <pt x="621" y="858" on="0"/>
        <pt x="600" y="926" on="0"/>
        <pt x="560" y="981" on="0"/>
        <pt x="502" y="1016" on="0"/>
        <pt x="465" y="1016" on="1"/>
        <pt x="428" y="1016" on="0"/>
        <pt x="372" y="984" on="0"/>
        <pt x="331" y="931" on="0"/>
        <pt x="304" y="863" on="0"/>
        <pt x="288" y="790" on="0"/>
        <pt x="281" y="718" on="0"/>
        <pt x="281" y="688" on="1"/>
        <pt x="281" y="645" on="0"/>
        <pt x="292" y="543" on="0"/>
        <pt x="326" y="454" on="0"/>
        <pt x="390" y="395" on="0"/>
        <pt x="444" y="395" on="1"/>
        <pt x="480" y="395" on="0"/>
        <pt x="540" y="430" on="0"/>
        <pt x="583" y="485" on="0"/>
        <pt x="609" y="554" on="0"/>
        <pt x="612" y="588" on="1"/>
        <pt x="809" y="582" on="1"/>
        <pt x="795" y="520" on="0"/>
        <pt x="717" y="427" on="0"/>
        <pt x="611" y="366" on="0"/>
        <pt x="490" y="336" on="0"/>
        <pt x="434" y="336" on="1"/>
        <pt x="424" y="336" on="1"/>
        <pt x="381" y="-25" on="1"/>
        <pt x="193" y="-4" on="1"/>
        <pt x="330" y="350" on="1"/>
        <pt x="277" y="366" on="0"/>
        <pt x="190" y="428" on="0"/>
        <pt x="128" y="513" on="0"/>
        <pt x="94" y="619" on="0"/>
        <pt x="94" y="680" on="1"/>
        <pt x="94" y="762" on="0"/>
        <pt x="148" y="906" on="0"/>
        <pt x="246" y="1013" on="0"/>
        <pt x="383" y="1075" on="0"/>
        <pt x="465" y="1075" on="1"/>
        <pt x="477" y="1075" on="0"/>
        <pt x="501" y="1073" on="0"/>
        <pt x="512" y="1073" on="1"/>
        <pt x="557" y="1421" on="1"/>
      </contour>
    </TTGlyph>
    <TTGlyph name="circumflex" xMin="0" yMin="1042" xMax="727" yMax="1452">
      <contour>
        <pt x="727" y="1202" on="1"/>
        <pt x="604" y="1042" on="1"/>
        <pt x="352" y="1319" on="1"/>
        <pt x="145" y="1042" on="1"/>
        <pt x="0" y="1169" on="1"/>
        <pt x="358" y="1452" on="1"/>
      </contour>
    </TTGlyph>
    <TTGlyph name="colon" xMin="117" yMin="-68" xMax="442" yMax="952">
      <contour>
        <pt x="442" y="94" on="1"/>
        <pt x="442" y="60" on="0"/>
        <pt x="416" y="1" on="0"/>
        <pt x="372" y="-43" on="0"/>
        <pt x="313" y="-68" on="0"/>
        <pt x="279" y="-68" on="1"/>
        <pt x="246" y="-68" on="0"/>
        <pt x="187" y="-43" on="0"/>
        <pt x="143" y="1" on="0"/>
        <pt x="117" y="60" on="0"/>
        <pt x="117" y="94" on="1"/>
        <pt x="117" y="128" on="0"/>
        <pt x="143" y="187" on="0"/>
        <pt x="187" y="231" on="0"/>
        <pt x="246" y="256" on="0"/>
        <pt x="279" y="256" on="1"/>
        <pt x="313" y="256" on="0"/>
        <pt x="372" y="231" on="0"/>
        <pt x="416" y="187" on="0"/>
        <pt x="442" y="128" on="0"/>
      </contour>
      <contour>
        <pt x="442" y="791" on="1"/>
        <pt x="442" y="757" on="0"/>
        <pt x="416" y="698" on="0"/>
        <pt x="372" y="654" on="0"/>
        <pt x="313" y="629" on="0"/>
        <pt x="279" y="629" on="1"/>
        <pt x="246" y="629" on="0"/>
        <pt x="187" y="654" on="0"/>
        <pt x="143" y="698" on="0"/>
        <pt x="117" y="757" on="0"/>
        <pt x="117" y="791" on="1"/>
        <pt x="117" y="825" on="0"/>
        <pt x="143" y="883" on="0"/>
        <pt x="187" y="927" on="0"/>
        <pt x="246" y="952" on="0"/>
        <pt x="279" y="952" on="1"/>
        <pt x="313" y="952" on="0"/>
        <pt x="372" y="927" on="0"/>
        <pt x="416" y="883" on="0"/>
        <pt x="442" y="825" on="0"/>
      </contour>
    </TTGlyph>
    <TTGlyph name="comma" xMin="102" yMin="-254" xMax="440" yMax="256">
      <contour>
        <pt x="178" y="-207" on="1"/>
        <pt x="203" y="-179" on="0"/>
        <pt x="240" y="-112" on="0"/>
        <pt x="240" y="-74" on="1"/>
        <pt x="240" y="-66" on="1"/>
        <pt x="211" y="-61" on="0"/>
        <pt x="160" y="-33" on="0"/>
        <pt x="123" y="9" on="0"/>
        <pt x="102" y="63" on="0"/>
        <pt x="102" y="94" on="1"/>
        <pt x="102" y="128" on="0"/>
        <pt x="128" y="187" on="0"/>
        <pt x="172" y="231" on="0"/>
        <pt x="231" y="256" on="0"/>
        <pt x="264" y="256" on="1"/>
        <pt x="307" y="256" on="0"/>
        <pt x="373" y="218" on="0"/>
        <pt x="417" y="156" on="0"/>
        <pt x="440" y="79" on="0"/>
        <pt x="440" y="39" on="1"/>
        <pt x="440" y="-6" on="0"/>
        <pt x="416" y="-94" on="0"/>
        <pt x="371" y="-172" on="0"/>
        <pt x="306" y="-234" on="0"/>
        <pt x="264" y="-254" on="1"/>
      </contour>
    </TTGlyph>
    <TTGlyph name="copyright" xMin="139" yMin="231" xMax="1110" yMax="1130">
      <contour>
        <pt x="621" y="231" on="1"/>
        <pt x="516" y="231" on="0"/>
        <pt x="339" y="295" on="0"/>
        <pt x="211" y="413" on="0"/>
        <pt x="139" y="579" on="0"/>
        <pt x="139" y="682" on="1"/>
        <pt x="139" y="779" on="0"/>
        <pt x="214" y="944" on="0"/>
        <pt x="344" y="1063" on="0"/>
        <pt x="520" y="1130" on="0"/>
        <pt x="621" y="1130" on="1"/>
        <pt x="721" y="1130" on="0"/>
        <pt x="899" y="1065" on="0"/>
        <pt x="1033" y="947" on="0"/>
        <pt x="1110" y="782" on="0"/>
        <pt x="1110" y="682" on="1"/>
        <pt x="1110" y="582" on="0"/>
        <pt x="1033" y="416" on="0"/>
        <pt x="899" y="297" on="0"/>
        <pt x="721" y="231" on="0"/>
      </contour>
      <contour>
        <pt x="625" y="1063" on="1"/>
        <pt x="526" y="1063" on="0"/>
        <pt x="383" y="993" on="0"/>
        <pt x="290" y="884" on="0"/>
        <pt x="246" y="748" on="0"/>
        <pt x="246" y="682" on="1"/>
        <pt x="246" y="611" on="0"/>
        <pt x="286" y="474" on="0"/>
        <pt x="376" y="366" on="0"/>
        <pt x="520" y="299" on="0"/>
        <pt x="625" y="299" on="1"/>
        <pt x="726" y="299" on="0"/>
        <pt x="870" y="367" on="0"/>
        <pt x="961" y="477" on="0"/>
        <pt x="1004" y="614" on="0"/>
        <pt x="1004" y="682" on="1"/>
        <pt x="1004" y="749" on="0"/>
        <pt x="960" y="884" on="0"/>
        <pt x="867" y="994" on="0"/>
        <pt x="724" y="1063" on="0"/>
      </contour>
      <contour>
        <pt x="766" y="741" on="1"/>
        <pt x="765" y="777" on="0"/>
        <pt x="746" y="841" on="0"/>
        <pt x="708" y="891" on="0"/>
        <pt x="654" y="920" on="0"/>
        <pt x="618" y="920" on="1"/>
        <pt x="571" y="920" on="0"/>
        <pt x="505" y="875" on="0"/>
        <pt x="464" y="805" on="0"/>
        <pt x="446" y="719" on="0"/>
        <pt x="446" y="678" on="1"/>
        <pt x="446" y="635" on="0"/>
        <pt x="462" y="547" on="0"/>
        <pt x="501" y="477" on="0"/>
        <pt x="567" y="432" on="0"/>
        <pt x="618" y="432" on="1"/>
        <pt x="654" y="432" on="0"/>
        <pt x="706" y="457" on="0"/>
        <pt x="742" y="502" on="0"/>
        <pt x="762" y="564" on="0"/>
        <pt x="764" y="600" on="1"/>
        <pt x="887" y="592" on="1"/>
        <pt x="872" y="544" on="0"/>
        <pt x="819" y="468" on="0"/>
        <pt x="747" y="415" on="0"/>
        <pt x="661" y="387" on="0"/>
        <pt x="614" y="387" on="1"/>
        <pt x="549" y="387" on="0"/>
        <pt x="446" y="431" on="0"/>
        <pt x="374" y="508" on="0"/>
        <pt x="336" y="615" on="0"/>
        <pt x="336" y="678" on="1"/>
        <pt x="336" y="739" on="0"/>
        <pt x="377" y="845" on="0"/>
        <pt x="451" y="921" on="0"/>
        <pt x="553" y="965" on="0"/>
        <pt x="614" y="965" on="1"/>
        <pt x="663" y="965" on="0"/>
        <pt x="753" y="936" on="0"/>
        <pt x="826" y="880" on="0"/>
        <pt x="879" y="799" on="0"/>
        <pt x="891" y="748" on="1"/>
      </contour>
    </TTGlyph>
    <TTGlyph name="currency" xMin="18" yMin="528" xMax="573" yMax="1024">
      <contour>
        <pt x="395" y="750" on="1"/>
        <pt x="395" y="772" on="0"/>
        <pt x="383" y="815" on="0"/>
        <pt x="358" y="849" on="0"/>
        <pt x="321" y="870" on="0"/>
        <pt x="297" y="870" on="1"/>
        <pt x="272" y="870" on="0"/>
        <pt x="238" y="848" on="0"/>
        <pt x="217" y="813" on="0"/>
        <pt x="207" y="771" on="0"/>
        <pt x="207" y="750" on="1"/>
        <pt x="207" y="728" on="0"/>
        <pt x="217" y="687" on="0"/>
        <pt x="238" y="655" on="0"/>
        <pt x="272" y="635" on="0"/>
        <pt x="297" y="635" on="1"/>
        <pt x="321" y="635" on="0"/>
        <pt x="358" y="654" on="0"/>
        <pt x="383" y="686" on="0"/>
        <pt x="395" y="727" on="0"/>
      </contour>
      <contour>
        <pt x="573" y="889" on="1"/>
        <pt x="492" y="831" on="1"/>
        <pt x="508" y="796" on="0"/>
        <pt x="508" y="752" on="1"/>
        <pt x="508" y="696" on="0"/>
        <pt x="479" y="655" on="1"/>
        <pt x="496" y="640" on="0"/>
        <pt x="528" y="608" on="0"/>
        <pt x="545" y="594" on="1"/>
        <pt x="469" y="528" on="1"/>
        <pt x="454" y="544" on="0"/>
        <pt x="425" y="574" on="0"/>
        <pt x="408" y="590" on="1"/>
        <pt x="358" y="561" on="0"/>
        <pt x="297" y="561" on="1"/>
        <pt x="262" y="561" on="0"/>
        <pt x="200" y="578" on="0"/>
        <pt x="174" y="594" on="1"/>
        <pt x="156" y="578" on="0"/>
        <pt x="121" y="545" on="0"/>
        <pt x="104" y="528" on="1"/>
        <pt x="45" y="594" on="1"/>
        <pt x="113" y="659" on="1"/>
        <pt x="102" y="679" on="0"/>
        <pt x="92" y="726" on="0"/>
        <pt x="92" y="752" on="1"/>
        <pt x="92" y="772" on="0"/>
        <pt x="98" y="810" on="0"/>
        <pt x="106" y="827" on="1"/>
        <pt x="83" y="843" on="0"/>
        <pt x="40" y="875" on="0"/>
        <pt x="18" y="891" on="1"/>
        <pt x="145" y="1024" on="1"/>
        <pt x="161" y="999" on="0"/>
        <pt x="194" y="953" on="0"/>
        <pt x="213" y="928" on="1"/>
        <pt x="251" y="942" on="0"/>
        <pt x="297" y="942" on="1"/>
        <pt x="341" y="942" on="0"/>
        <pt x="379" y="930" on="1"/>
        <pt x="399" y="953" on="0"/>
        <pt x="438" y="999" on="0"/>
        <pt x="455" y="1024" on="1"/>
      </contour>
    </TTGlyph>
    <TTGlyph name="d" xMin="76" yMin="-57" xMax="1110" yMax="1423">
      <contour>
        <pt x="874" y="639" on="1"/>
        <pt x="874" y="677" on="0"/>
        <pt x="829" y="748" on="0"/>
        <pt x="759" y="802" on="0"/>
        <pt x="673" y="834" on="0"/>
        <pt x="633" y="834" on="1"/>
        <pt x="551" y="834" on="0"/>
        <pt x="433" y="762" on="0"/>
        <pt x="358" y="647" on="0"/>
        <pt x="322" y="504" on="0"/>
        <pt x="322" y="432" on="1"/>
        <pt x="322" y="367" on="0"/>
        <pt x="349" y="230" on="0"/>
        <pt x="412" y="116" on="0"/>
        <pt x="516" y="43" on="0"/>
        <pt x="594" y="43" on="1"/>
        <pt x="655" y="43" on="0"/>
        <pt x="746" y="97" on="0"/>
        <pt x="811" y="182" on="0"/>
        <pt x="853" y="289" on="0"/>
        <pt x="864" y="342" on="1"/>
        <pt x="867" y="416" on="0"/>
        <pt x="874" y="567" on="0"/>
      </contour>
      <contour>
        <pt x="1110" y="1409" on="1"/>
        <pt x="1071" y="-41" on="1"/>
        <pt x="887" y="-35" on="1"/>
        <pt x="879" y="143" on="1"/>
        <pt x="859" y="95" on="0"/>
        <pt x="794" y="20" on="0"/>
        <pt x="709" y="-31" on="0"/>
        <pt x="608" y="-57" on="0"/>
        <pt x="553" y="-57" on="1"/>
        <pt x="446" y="-57" on="0"/>
        <pt x="270" y="15" on="0"/>
        <pt x="145" y="143" on="0"/>
        <pt x="76" y="321" on="0"/>
        <pt x="76" y="426" on="1"/>
        <pt x="76" y="540" on="0"/>
        <pt x="151" y="731" on="0"/>
        <pt x="286" y="868" on="0"/>
        <pt x="476" y="941" on="0"/>
        <pt x="590" y="938" on="1"/>
        <pt x="624" y="937" on="0"/>
        <pt x="695" y="926" on="0"/>
        <pt x="763" y="904" on="0"/>
        <pt x="826" y="870" on="0"/>
        <pt x="852" y="846" on="1"/>
        <pt x="831" y="1423" on="1"/>
      </contour>
    </TTGlyph>
    <TTGlyph name="dagger" xMin="94" yMin="-285" xMax="872" yMax="1714">
      <contour>
        <pt x="633" y="1714" on="1"/>
        <pt x="616" y="1274" on="1"/>
        <pt x="681" y="1277" on="0"/>
        <pt x="807" y="1286" on="0"/>
        <pt x="872" y="1294" on="1"/>
        <pt x="868" y="1178" on="1"/>
        <pt x="803" y="1181" on="0"/>
        <pt x="677" y="1186" on="0"/>
        <pt x="612" y="1188" on="1"/>
        <pt x="559" y="-279" on="1"/>
        <pt x="336" y="-285" on="1"/>
        <pt x="336" y="1188" on="1"/>
        <pt x="274" y="1186" on="0"/>
        <pt x="154" y="1183" on="0"/>
        <pt x="94" y="1178" on="1"/>
        <pt x="94" y="1274" on="1"/>
        <pt x="153" y="1271" on="0"/>
        <pt x="269" y="1270" on="0"/>
        <pt x="328" y="1270" on="1"/>
        <pt x="336" y="1270" on="1"/>
        <pt x="336" y="1690" on="1"/>
      </contour>
    </TTGlyph>
    <TTGlyph name="daggerdbl" xMin="100" yMin="-285" xMax="879" yMax="1714">
      <contour>
        <pt x="639" y="1714" on="1"/>
        <pt x="623" y="1274" on="1"/>
        <pt x="688" y="1277" on="0"/>
        <pt x="814" y="1286" on="0"/>
        <pt x="879" y="1294" on="1"/>
        <pt x="874" y="1178" on="1"/>
        <pt x="809" y="1181" on="0"/>
        <pt x="684" y="1186" on="0"/>
        <pt x="618" y="1188" on="1"/>
        <pt x="586" y="309" on="1"/>
        <pt x="660" y="311" on="0"/>
        <pt x="804" y="317" on="0"/>
        <pt x="879" y="322" on="1"/>
        <pt x="879" y="225" on="1"/>
        <pt x="762" y="231" on="0"/>
        <pt x="645" y="231" on="1"/>
        <pt x="584" y="231" on="1"/>
        <pt x="565" y="-279" on="1"/>
        <pt x="342" y="-285" on="1"/>
        <pt x="342" y="223" on="1"/>
        <pt x="221" y="217" on="0"/>
        <pt x="100" y="205" on="1"/>
        <pt x="104" y="322" on="1"/>
        <pt x="163" y="317" on="0"/>
        <pt x="282" y="311" on="0"/>
        <pt x="342" y="309" on="1"/>
        <pt x="342" y="1188" on="1"/>
        <pt x="280" y="1186" on="0"/>
        <pt x="160" y="1183" on="0"/>
        <pt x="100" y="1178" on="1"/>
        <pt x="100" y="1274" on="1"/>
        <pt x="159" y="1271" on="0"/>
        <pt x="275" y="1270" on="0"/>
        <pt x="334" y="1270" on="1"/>
        <pt x="342" y="1270" on="1"/>
        <pt x="342" y="1690" on="1"/>
      </contour>
    </TTGlyph>
    <TTGlyph name="dcaron" xMin="76" yMin="-57" xMax="1425" yMax="1448">
      <component glyphName="d" x="0" y="0" flags="0x4"/>
      <component glyphName="uni0315" x="1122" y="0" flags="0x4"/>
    </TTGlyph>
    <TTGlyph name="dcroat" xMin="76" yMin="-57" xMax="1241" yMax="1423">
      <contour>
        <pt x="1241" y="1061" on="1"/>
        <pt x="1213" y="1064" on="0"/>
        <pt x="1138" y="1069" on="0"/>
        <pt x="1100" y="1069" on="1"/>
        <pt x="1071" y="-41" on="1"/>
        <pt x="887" y="-35" on="1"/>
        <pt x="879" y="143" on="1"/>
        <pt x="859" y="95" on="0"/>
        <pt x="794" y="20" on="0"/>
        <pt x="709" y="-31" on="0"/>
        <pt x="608" y="-57" on="0"/>
        <pt x="553" y="-57" on="1"/>
        <pt x="446" y="-57" on="0"/>
        <pt x="270" y="15" on="0"/>
        <pt x="145" y="143" on="0"/>
        <pt x="76" y="321" on="0"/>
        <pt x="76" y="426" on="1"/>
        <pt x="76" y="540" on="0"/>
        <pt x="151" y="731" on="0"/>
        <pt x="286" y="868" on="0"/>
        <pt x="476" y="941" on="0"/>
        <pt x="590" y="938" on="1"/>
        <pt x="624" y="937" on="0"/>
        <pt x="695" y="926" on="0"/>
        <pt x="763" y="904" on="0"/>
        <pt x="826" y="870" on="0"/>
        <pt x="852" y="846" on="1"/>
        <pt x="844" y="1065" on="1"/>
        <pt x="796" y="1062" on="0"/>
        <pt x="705" y="1047" on="0"/>
        <pt x="670" y="1036" on="1"/>
        <pt x="670" y="1206" on="1"/>
        <pt x="685" y="1205" on="0"/>
        <pt x="728" y="1204" on="0"/>
        <pt x="776" y="1203" on="0"/>
        <pt x="822" y="1202" on="0"/>
        <pt x="840" y="1202" on="1"/>
        <pt x="831" y="1423" on="1"/>
        <pt x="1110" y="1409" on="1"/>
        <pt x="1104" y="1212" on="1"/>
        <pt x="1141" y="1216" on="0"/>
        <pt x="1210" y="1224" on="0"/>
        <pt x="1241" y="1229" on="1"/>
      </contour>
      <contour>
        <pt x="874" y="639" on="1"/>
        <pt x="874" y="677" on="0"/>
        <pt x="829" y="748" on="0"/>
        <pt x="759" y="802" on="0"/>
        <pt x="673" y="834" on="0"/>
        <pt x="633" y="834" on="1"/>
        <pt x="551" y="834" on="0"/>
        <pt x="433" y="762" on="0"/>
        <pt x="358" y="647" on="0"/>
        <pt x="322" y="504" on="0"/>
        <pt x="322" y="432" on="1"/>
        <pt x="322" y="367" on="0"/>
        <pt x="349" y="230" on="0"/>
        <pt x="412" y="116" on="0"/>
        <pt x="516" y="43" on="0"/>
        <pt x="594" y="43" on="1"/>
        <pt x="655" y="43" on="0"/>
        <pt x="746" y="97" on="0"/>
        <pt x="811" y="182" on="0"/>
        <pt x="853" y="289" on="0"/>
        <pt x="864" y="342" on="1"/>
        <pt x="867" y="416" on="0"/>
        <pt x="874" y="567" on="0"/>
      </contour>
    </TTGlyph>
    <TTGlyph name="degree" xMin="92" yMin="1012" xMax="508" yMax="1393">
      <contour>
        <pt x="508" y="1202" on="1"/>
        <pt x="508" y="1160" on="0"/>
        <pt x="472" y="1090" on="0"/>
        <pt x="413" y="1040" on="0"/>
        <pt x="337" y="1012" on="0"/>
        <pt x="297" y="1012" on="1"/>
        <pt x="255" y="1012" on="0"/>
        <pt x="180" y="1038" on="0"/>
        <pt x="124" y="1087" on="0"/>
        <pt x="92" y="1157" on="0"/>
        <pt x="92" y="1202" on="1"/>
        <pt x="92" y="1247" on="0"/>
        <pt x="124" y="1317" on="0"/>
        <pt x="179" y="1367" on="0"/>
        <pt x="254" y="1393" on="0"/>
        <pt x="297" y="1393" on="1"/>
        <pt x="341" y="1393" on="0"/>
        <pt x="418" y="1368" on="0"/>
        <pt x="475" y="1319" on="0"/>
        <pt x="508" y="1248" on="0"/>
      </contour>
      <contour>
        <pt x="395" y="1200" on="1"/>
        <pt x="395" y="1222" on="0"/>
        <pt x="383" y="1266" on="0"/>
        <pt x="358" y="1300" on="0"/>
        <pt x="321" y="1321" on="0"/>
        <pt x="297" y="1321" on="1"/>
        <pt x="272" y="1321" on="0"/>
        <pt x="238" y="1299" on="0"/>
        <pt x="217" y="1264" on="0"/>
        <pt x="207" y="1221" on="0"/>
        <pt x="207" y="1200" on="1"/>
        <pt x="207" y="1179" on="0"/>
        <pt x="217" y="1137" on="0"/>
        <pt x="238" y="1105" on="0"/>
        <pt x="272" y="1085" on="0"/>
        <pt x="297" y="1085" on="1"/>
        <pt x="321" y="1085" on="0"/>
        <pt x="358" y="1104" on="0"/>
        <pt x="383" y="1136" on="0"/>
        <pt x="395" y="1178" on="0"/>
      </contour>
    </TTGlyph>
    <TTGlyph name="dieresis" xMin="0" yMin="1059" xMax="567" yMax="1288">
      <contour>
        <pt x="567" y="1174" on="1"/>
        <pt x="567" y="1150" on="0"/>
        <pt x="549" y="1108" on="0"/>
        <pt x="518" y="1077" on="0"/>
        <pt x="477" y="1059" on="0"/>
        <pt x="453" y="1059" on="1"/>
        <pt x="430" y="1059" on="0"/>
        <pt x="388" y="1077" on="0"/>
        <pt x="356" y="1108" on="0"/>
        <pt x="338" y="1150" on="0"/>
        <pt x="338" y="1174" on="1"/>
        <pt x="338" y="1198" on="0"/>
        <pt x="356" y="1239" on="0"/>
        <pt x="388" y="1270" on="0"/>
        <pt x="430" y="1288" on="0"/>
        <pt x="453" y="1288" on="1"/>
        <pt x="477" y="1288" on="0"/>
        <pt x="518" y="1270" on="0"/>
        <pt x="549" y="1239" on="0"/>
        <pt x="567" y="1198" on="0"/>
      </contour>
      <contour>
        <pt x="227" y="1174" on="1"/>
        <pt x="227" y="1150" on="0"/>
        <pt x="209" y="1108" on="0"/>
        <pt x="179" y="1077" on="0"/>
        <pt x="138" y="1059" on="0"/>
        <pt x="115" y="1059" on="1"/>
        <pt x="91" y="1059" on="0"/>
        <pt x="49" y="1077" on="0"/>
        <pt x="18" y="1108" on="0"/>
        <pt x="0" y="1150" on="0"/>
        <pt x="0" y="1174" on="1"/>
        <pt x="0" y="1198" on="0"/>
        <pt x="18" y="1239" on="0"/>
        <pt x="49" y="1270" on="0"/>
        <pt x="91" y="1288" on="0"/>
        <pt x="115" y="1288" on="1"/>
        <pt x="138" y="1288" on="0"/>
        <pt x="179" y="1270" on="0"/>
        <pt x="209" y="1239" on="0"/>
        <pt x="227" y="1198" on="0"/>
      </contour>
    </TTGlyph>
    <TTGlyph name="divide" xMin="113" yMin="340" xMax="887" yMax="1151">
      <contour>
        <pt x="887" y="655" on="1"/>
        <pt x="856" y="658" on="0"/>
        <pt x="775" y="663" on="0"/>
        <pt x="689" y="666" on="0"/>
        <pt x="606" y="668" on="0"/>
        <pt x="575" y="668" on="1"/>
        <pt x="526" y="668" on="0"/>
        <pt x="405" y="665" on="0"/>
        <pt x="280" y="657" on="0"/>
        <pt x="161" y="641" on="0"/>
        <pt x="113" y="629" on="1"/>
        <pt x="113" y="813" on="1"/>
        <pt x="134" y="812" on="0"/>
        <pt x="197" y="811" on="0"/>
        <pt x="263" y="810" on="0"/>
        <pt x="326" y="809" on="0"/>
        <pt x="348" y="809" on="1"/>
        <pt x="407" y="809" on="0"/>
        <pt x="546" y="812" on="0"/>
        <pt x="689" y="819" on="0"/>
        <pt x="828" y="830" on="0"/>
        <pt x="887" y="838" on="1"/>
      </contour>
      <contour>
        <pt x="625" y="1018" on="1"/>
        <pt x="625" y="990" on="0"/>
        <pt x="604" y="942" on="0"/>
        <pt x="568" y="906" on="0"/>
        <pt x="519" y="885" on="0"/>
        <pt x="492" y="885" on="1"/>
        <pt x="464" y="885" on="0"/>
        <pt x="415" y="906" on="0"/>
        <pt x="379" y="942" on="0"/>
        <pt x="358" y="990" on="0"/>
        <pt x="358" y="1018" on="1"/>
        <pt x="358" y="1046" on="0"/>
        <pt x="379" y="1094" on="0"/>
        <pt x="415" y="1130" on="0"/>
        <pt x="464" y="1151" on="0"/>
        <pt x="492" y="1151" on="1"/>
        <pt x="519" y="1151" on="0"/>
        <pt x="568" y="1130" on="0"/>
        <pt x="604" y="1094" on="0"/>
        <pt x="625" y="1046" on="0"/>
      </contour>
      <contour>
        <pt x="618" y="459" on="1"/>
        <pt x="618" y="434" on="0"/>
        <pt x="599" y="391" on="0"/>
        <pt x="567" y="359" on="0"/>
        <pt x="524" y="340" on="0"/>
        <pt x="500" y="340" on="1"/>
        <pt x="475" y="340" on="0"/>
        <pt x="432" y="359" on="0"/>
        <pt x="401" y="391" on="0"/>
        <pt x="383" y="434" on="0"/>
        <pt x="383" y="459" on="1"/>
        <pt x="383" y="483" on="0"/>
        <pt x="402" y="527" on="0"/>
        <pt x="433" y="559" on="0"/>
        <pt x="476" y="578" on="0"/>
        <pt x="500" y="578" on="1"/>
        <pt x="524" y="578" on="0"/>
        <pt x="567" y="559" on="0"/>
        <pt x="599" y="527" on="0"/>
        <pt x="618" y="483" on="0"/>
      </contour>
    </TTGlyph>
    <TTGlyph name="dollar" xMin="88" yMin="-59" xMax="758" yMax="1481">
      <contour>
        <pt x="496" y="1481" on="1"/>
        <pt x="449" y="1069" on="1"/>
        <pt x="500" y="1066" on="0"/>
        <pt x="602" y="1036" on="0"/>
        <pt x="685" y="979" on="0"/>
        <pt x="740" y="890" on="0"/>
        <pt x="745" y="829" on="1"/>
        <pt x="545" y="815" on="1"/>
        <pt x="546" y="855" on="0"/>
        <pt x="531" y="925" on="0"/>
        <pt x="493" y="976" on="0"/>
        <pt x="431" y="1006" on="0"/>
        <pt x="385" y="1006" on="1"/>
        <pt x="366" y="1006" on="0"/>
        <pt x="322" y="994" on="0"/>
        <pt x="285" y="972" on="0"/>
        <pt x="260" y="937" on="0"/>
        <pt x="260" y="915" on="1"/>
        <pt x="260" y="880" on="0"/>
        <pt x="306" y="839" on="0"/>
        <pt x="370" y="814" on="0"/>
        <pt x="441" y="801" on="0"/>
        <pt x="467" y="795" on="1"/>
        <pt x="509" y="786" on="0"/>
        <pt x="611" y="752" on="0"/>
        <pt x="699" y="695" on="0"/>
        <pt x="758" y="611" on="0"/>
        <pt x="758" y="553" on="1"/>
        <pt x="758" y="494" on="0"/>
        <pt x="698" y="413" on="0"/>
        <pt x="606" y="363" on="0"/>
        <pt x="499" y="342" on="0"/>
        <pt x="451" y="342" on="1"/>
        <pt x="498" y="-37" on="1"/>
        <pt x="315" y="-59" on="1"/>
        <pt x="360" y="348" on="1"/>
        <pt x="311" y="357" on="0"/>
        <pt x="219" y="399" on="0"/>
        <pt x="145" y="463" on="0"/>
        <pt x="95" y="553" on="0"/>
        <pt x="88" y="610" on="1"/>
        <pt x="295" y="604" on="1"/>
        <pt x="295" y="582" on="1"/>
        <pt x="295" y="501" on="0"/>
        <pt x="385" y="412" on="0"/>
        <pt x="463" y="412" on="1"/>
        <pt x="487" y="412" on="0"/>
        <pt x="531" y="421" on="0"/>
        <pt x="565" y="442" on="0"/>
        <pt x="586" y="478" on="0"/>
        <pt x="586" y="504" on="1"/>
        <pt x="586" y="535" on="0"/>
        <pt x="547" y="579" on="0"/>
        <pt x="491" y="610" on="0"/>
        <pt x="428" y="630" on="0"/>
        <pt x="403" y="637" on="1"/>
        <pt x="364" y="647" on="0"/>
        <pt x="259" y="674" on="0"/>
        <pt x="164" y="720" on="0"/>
        <pt x="98" y="789" on="0"/>
        <pt x="98" y="842" on="1"/>
        <pt x="98" y="893" on="0"/>
        <pt x="147" y="970" on="0"/>
        <pt x="223" y="1024" on="0"/>
        <pt x="316" y="1057" on="0"/>
        <pt x="360" y="1063" on="1"/>
        <pt x="313" y="1458" on="1"/>
      </contour>
    </TTGlyph>
    <TTGlyph name="dotaccent" xMin="0" yMin="1059" xMax="227" yMax="1288">
      <contour>
        <pt x="227" y="1174" on="1"/>
        <pt x="227" y="1150" on="0"/>
        <pt x="209" y="1108" on="0"/>
        <pt x="179" y="1077" on="0"/>
        <pt x="138" y="1059" on="0"/>
        <pt x="115" y="1059" on="1"/>
        <pt x="91" y="1059" on="0"/>
        <pt x="49" y="1077" on="0"/>
        <pt x="18" y="1108" on="0"/>
        <pt x="0" y="1150" on="0"/>
        <pt x="0" y="1174" on="1"/>
        <pt x="0" y="1198" on="0"/>
        <pt x="18" y="1239" on="0"/>
        <pt x="49" y="1270" on="0"/>
        <pt x="91" y="1288" on="0"/>
        <pt x="115" y="1288" on="1"/>
        <pt x="138" y="1288" on="0"/>
        <pt x="179" y="1270" on="0"/>
        <pt x="209" y="1239" on="0"/>
        <pt x="227" y="1198" on="0"/>
      </contour>
    </TTGlyph>
    <TTGlyph name="dotlessi" xMin="125" yMin="-59" xMax="406" yMax="918">
      <contour>
        <pt x="406" y="903" on="1"/>
        <pt x="328" y="-59" on="1"/>
        <pt x="137" y="-39" on="1"/>
        <pt x="125" y="918" on="1"/>
      </contour>
    </TTGlyph>
    <TTGlyph name="dotlessj" xMin="-545" yMin="-526" xMax="397" yMax="918">
      <contour>
        <pt x="387" y="918" on="1"/>
        <pt x="392" y="845" on="0"/>
        <pt x="397" y="701" on="0"/>
        <pt x="397" y="629" on="1"/>
        <pt x="397" y="563" on="0"/>
        <pt x="391" y="394" on="0"/>
        <pt x="373" y="207" on="0"/>
        <pt x="340" y="12" on="0"/>
        <pt x="285" y="-172" on="0"/>
        <pt x="205" y="-334" on="0"/>
        <pt x="95" y="-455" on="0"/>
        <pt x="-49" y="-526" on="0"/>
        <pt x="-141" y="-526" on="1"/>
        <pt x="-211" y="-526" on="0"/>
        <pt x="-339" y="-482" on="0"/>
        <pt x="-444" y="-403" on="0"/>
        <pt x="-523" y="-293" on="0"/>
        <pt x="-545" y="-227" on="1"/>
        <pt x="-236" y="-147" on="1"/>
        <pt x="-236" y="-160" on="0"/>
        <pt x="-238" y="-187" on="0"/>
        <pt x="-238" y="-201" on="1"/>
        <pt x="-238" y="-233" on="0"/>
        <pt x="-228" y="-321" on="0"/>
        <pt x="-197" y="-401" on="0"/>
        <pt x="-141" y="-457" on="0"/>
        <pt x="-96" y="-457" on="1"/>
        <pt x="-58" y="-457" on="0"/>
        <pt x="4" y="-405" on="0"/>
        <pt x="52" y="-319" on="0"/>
        <pt x="88" y="-205" on="0"/>
        <pt x="114" y="-80" on="0"/>
        <pt x="131" y="46" on="0"/>
        <pt x="141" y="159" on="0"/>
        <pt x="145" y="250" on="0"/>
        <pt x="145" y="276" on="1"/>
        <pt x="145" y="354" on="0"/>
        <pt x="137" y="519" on="0"/>
        <pt x="123" y="683" on="0"/>
        <pt x="105" y="839" on="0"/>
        <pt x="96" y="907" on="1"/>
      </contour>
    </TTGlyph>
    <TTGlyph name="e" xMin="76" yMin="-51" xMax="1057" yMax="981">
      <contour>
        <pt x="623" y="281" on="1"/>
        <pt x="544" y="281" on="0"/>
        <pt x="389" y="322" on="0"/>
        <pt x="326" y="367" on="1"/>
        <pt x="327" y="328" on="0"/>
        <pt x="335" y="246" on="0"/>
        <pt x="354" y="169" on="0"/>
        <pt x="385" y="101" on="0"/>
        <pt x="434" y="50" on="0"/>
        <pt x="503" y="20" on="0"/>
        <pt x="551" y="20" on="1"/>
        <pt x="596" y="20" on="0"/>
        <pt x="674" y="53" on="0"/>
        <pt x="733" y="109" on="0"/>
        <pt x="771" y="185" on="0"/>
        <pt x="778" y="229" on="1"/>
        <pt x="1024" y="174" on="1"/>
        <pt x="995" y="112" on="0"/>
        <pt x="890" y="26" on="0"/>
        <pt x="762" y="-27" on="0"/>
        <pt x="623" y="-51" on="0"/>
        <pt x="559" y="-51" on="1"/>
        <pt x="444" y="-51" on="0"/>
        <pt x="264" y="17" on="0"/>
        <pt x="141" y="145" on="0"/>
        <pt x="76" y="328" on="0"/>
        <pt x="76" y="442" on="1"/>
        <pt x="76" y="553" on="0"/>
        <pt x="152" y="750" on="0"/>
        <pt x="288" y="896" on="0"/>
        <pt x="479" y="981" on="0"/>
        <pt x="594" y="981" on="1"/>
        <pt x="678" y="981" on="0"/>
        <pt x="844" y="940" on="0"/>
        <pt x="976" y="853" on="0"/>
        <pt x="1057" y="717" on="0"/>
        <pt x="1057" y="621" on="1"/>
        <pt x="1057" y="527" on="0"/>
        <pt x="982" y="398" on="0"/>
        <pt x="860" y="317" on="0"/>
        <pt x="704" y="281" on="0"/>
      </contour>
      <contour>
        <pt x="580" y="907" on="1"/>
        <pt x="534" y="907" on="0"/>
        <pt x="463" y="870" on="0"/>
        <pt x="408" y="806" on="0"/>
        <pt x="370" y="724" on="0"/>
        <pt x="344" y="634" on="0"/>
        <pt x="330" y="542" on="0"/>
        <pt x="328" y="502" on="1"/>
        <pt x="366" y="437" on="0"/>
        <pt x="492" y="354" on="0"/>
        <pt x="575" y="354" on="1"/>
        <pt x="628" y="354" on="0"/>
        <pt x="712" y="403" on="0"/>
        <pt x="770" y="481" on="0"/>
        <pt x="801" y="577" on="0"/>
        <pt x="801" y="625" on="1"/>
        <pt x="801" y="673" on="0"/>
        <pt x="773" y="774" on="0"/>
        <pt x="718" y="855" on="0"/>
        <pt x="635" y="907" on="0"/>
      </contour>
    </TTGlyph>
    <TTGlyph name="eacute" xMin="76" yMin="-51" xMax="1057" yMax="1443">
      <component glyphName="e" x="0" y="0" flags="0x204"/>
      <component glyphName="acute" x="553" y="-11" flags="0x4"/>
    </TTGlyph>
    <TTGlyph name="ebreve" xMin="76" yMin="-51" xMax="1057" yMax="1395">
      <component glyphName="e" x="0" y="0" flags="0x204"/>
      <component glyphName="breve" x="242" y="0" flags="0x4"/>
    </TTGlyph>
    <TTGlyph name="ecaron" xMin="76" yMin="-51" xMax="1057" yMax="1449">
      <component glyphName="e" x="0" y="0" flags="0x204"/>
      <component glyphName="caron" x="223" y="-3" flags="0x4"/>
    </TTGlyph>
    <TTGlyph name="ecircumflex" xMin="76" yMin="-51" xMax="1057" yMax="1428">
      <component glyphName="e" x="0" y="0" flags="0x204"/>
      <component glyphName="circumflex" x="203" y="-24" flags="0x4"/>
    </TTGlyph>
    <TTGlyph name="edieresis" xMin="76" yMin="-51" xMax="1057" yMax="1288">
      <component glyphName="e" x="0" y="0" flags="0x204"/>
      <component glyphName="dieresis" x="283" y="0" flags="0x4"/>
    </TTGlyph>
    <TTGlyph name="edotaccent" xMin="76" yMin="-51" xMax="1057" yMax="1273">
      <component glyphName="e" x="0" y="0" flags="0x204"/>
      <component glyphName="dotaccent" x="475" y="-15" flags="0x4"/>
    </TTGlyph>
    <TTGlyph name="egrave" xMin="76" yMin="-51" xMax="1057" yMax="1435">
      <component glyphName="e" x="0" y="0" flags="0x204"/>
      <component glyphName="grave" x="125" y="-19" flags="0x4"/>
    </TTGlyph>
    <TTGlyph name="eight" xMin="96" yMin="-66" xMax="1255" yMax="1466">
      <contour>
        <pt x="1255" y="387" on="1"/>
        <pt x="1255" y="307" on="0"/>
        <pt x="1208" y="178" on="0"/>
        <pt x="1126" y="77" on="0"/>
        <pt x="1014" y="4" on="0"/>
        <pt x="885" y="-43" on="0"/>
        <pt x="745" y="-66" on="0"/>
        <pt x="676" y="-66" on="1"/>
        <pt x="606" y="-66" on="0"/>
        <pt x="466" y="-43" on="0"/>
        <pt x="337" y="4" on="0"/>
        <pt x="226" y="77" on="0"/>
        <pt x="143" y="178" on="0"/>
        <pt x="96" y="307" on="0"/>
        <pt x="96" y="387" on="1"/>
        <pt x="96" y="463" on="0"/>
        <pt x="149" y="588" on="0"/>
        <pt x="240" y="686" on="0"/>
        <pt x="362" y="757" on="0"/>
        <pt x="430" y="778" on="1"/>
        <pt x="379" y="789" on="0"/>
        <pt x="290" y="850" on="0"/>
        <pt x="224" y="936" on="0"/>
        <pt x="186" y="1038" on="0"/>
        <pt x="186" y="1090" on="1"/>
        <pt x="186" y="1189" on="0"/>
        <pt x="274" y="1331" on="0"/>
        <pt x="415" y="1423" on="0"/>
        <pt x="590" y="1466" on="0"/>
        <pt x="676" y="1466" on="1"/>
        <pt x="734" y="1466" on="0"/>
        <pt x="853" y="1448" on="0"/>
        <pt x="962" y="1409" on="0"/>
        <pt x="1058" y="1349" on="0"/>
        <pt x="1128" y="1266" on="0"/>
        <pt x="1169" y="1157" on="0"/>
        <pt x="1169" y="1090" on="1"/>
        <pt x="1169" y="1039" on="0"/>
        <pt x="1131" y="943" on="0"/>
        <pt x="1067" y="860" on="0"/>
        <pt x="983" y="796" on="0"/>
        <pt x="938" y="778" on="1"/>
        <pt x="1005" y="763" on="0"/>
        <pt x="1120" y="688" on="0"/>
        <pt x="1206" y="583" on="0"/>
        <pt x="1255" y="455" on="0"/>
      </contour>
      <contour>
        <pt x="893" y="1096" on="1"/>
        <pt x="893" y="1150" on="0"/>
        <pt x="872" y="1250" on="0"/>
        <pt x="822" y="1327" on="0"/>
        <pt x="738" y="1372" on="0"/>
        <pt x="676" y="1372" on="1"/>
        <pt x="610" y="1372" on="0"/>
        <pt x="526" y="1329" on="0"/>
        <pt x="477" y="1254" on="0"/>
        <pt x="459" y="1153" on="0"/>
        <pt x="459" y="1096" on="1"/>
        <pt x="459" y="1041" on="0"/>
        <pt x="481" y="945" on="0"/>
        <pt x="531" y="873" on="0"/>
        <pt x="614" y="831" on="0"/>
        <pt x="676" y="831" on="1"/>
        <pt x="738" y="831" on="0"/>
        <pt x="822" y="872" on="0"/>
        <pt x="872" y="944" on="0"/>
        <pt x="893" y="1040" on="0"/>
      </contour>
      <contour>
        <pt x="979" y="385" on="1"/>
        <pt x="979" y="452" on="0"/>
        <pt x="938" y="574" on="0"/>
        <pt x="860" y="667" on="0"/>
        <pt x="747" y="721" on="0"/>
        <pt x="676" y="721" on="1"/>
        <pt x="603" y="721" on="0"/>
        <pt x="490" y="667" on="0"/>
        <pt x="413" y="575" on="0"/>
        <pt x="373" y="453" on="0"/>
        <pt x="373" y="385" on="1"/>
        <pt x="373" y="312" on="0"/>
        <pt x="408" y="184" on="0"/>
        <pt x="482" y="90" on="0"/>
        <pt x="597" y="35" on="0"/>
        <pt x="676" y="35" on="1"/>
        <pt x="754" y="35" on="0"/>
        <pt x="868" y="91" on="0"/>
        <pt x="943" y="187" on="0"/>
        <pt x="979" y="314" on="0"/>
      </contour>
    </TTGlyph>
    <TTGlyph name="ellipsis" xMin="102" yMin="-68" xMax="1489" yMax="256">
      <contour>
        <pt x="428" y="94" on="1"/>
        <pt x="428" y="60" on="0"/>
        <pt x="402" y="1" on="0"/>
        <pt x="357" y="-43" on="0"/>
        <pt x="298" y="-68" on="0"/>
        <pt x="264" y="-68" on="1"/>
        <pt x="231" y="-68" on="0"/>
        <pt x="172" y="-43" on="0"/>
        <pt x="128" y="1" on="0"/>
        <pt x="102" y="60" on="0"/>
        <pt x="102" y="94" on="1"/>
        <pt x="102" y="128" on="0"/>
        <pt x="128" y="187" on="0"/>
        <pt x="172" y="231" on="0"/>
        <pt x="231" y="256" on="0"/>
        <pt x="264" y="256" on="1"/>
        <pt x="298" y="256" on="0"/>
        <pt x="357" y="231" on="0"/>
        <pt x="402" y="187" on="0"/>
        <pt x="428" y="128" on="0"/>
      </contour>
      <contour>
        <pt x="958" y="94" on="1"/>
        <pt x="958" y="60" on="0"/>
        <pt x="932" y="1" on="0"/>
        <pt x="888" y="-43" on="0"/>
        <pt x="829" y="-68" on="0"/>
        <pt x="795" y="-68" on="1"/>
        <pt x="762" y="-68" on="0"/>
        <pt x="703" y="-43" on="0"/>
        <pt x="659" y="1" on="0"/>
        <pt x="633" y="60" on="0"/>
        <pt x="633" y="94" on="1"/>
        <pt x="633" y="128" on="0"/>
        <pt x="659" y="187" on="0"/>
        <pt x="703" y="231" on="0"/>
        <pt x="762" y="256" on="0"/>
        <pt x="795" y="256" on="1"/>
        <pt x="829" y="256" on="0"/>
        <pt x="888" y="231" on="0"/>
        <pt x="932" y="187" on="0"/>
        <pt x="958" y="128" on="0"/>
      </contour>
      <contour>
        <pt x="1489" y="94" on="1"/>
        <pt x="1489" y="60" on="0"/>
        <pt x="1463" y="1" on="0"/>
        <pt x="1418" y="-43" on="0"/>
        <pt x="1359" y="-68" on="0"/>
        <pt x="1325" y="-68" on="1"/>
        <pt x="1292" y="-68" on="0"/>
        <pt x="1233" y="-43" on="0"/>
        <pt x="1189" y="1" on="0"/>
        <pt x="1163" y="60" on="0"/>
        <pt x="1163" y="94" on="1"/>
        <pt x="1163" y="128" on="0"/>
        <pt x="1189" y="187" on="0"/>
        <pt x="1233" y="231" on="0"/>
        <pt x="1292" y="256" on="0"/>
        <pt x="1325" y="256" on="1"/>
        <pt x="1359" y="256" on="0"/>
        <pt x="1418" y="231" on="0"/>
        <pt x="1463" y="187" on="0"/>
        <pt x="1489" y="128" on="0"/>
      </contour>
    </TTGlyph>
    <TTGlyph name="emacron" xMin="76" yMin="-51" xMax="1057" yMax="1240">
      <component glyphName="e" x="0" y="0" flags="0x204"/>
      <component glyphName="macron" x="229" y="-112" flags="0x4"/>
    </TTGlyph>
    <TTGlyph name="emdash" xMin="133" yMin="629" xMax="1362" yMax="813">
      <contour>
        <pt x="1362" y="629" on="1"/>
        <pt x="133" y="629" on="1"/>
        <pt x="133" y="813" on="1"/>
        <pt x="1362" y="813" on="1"/>
      </contour>
    </TTGlyph>
    <TTGlyph name="endash" xMin="133" yMin="629" xMax="952" yMax="813">
      <contour>
        <pt x="952" y="629" on="1"/>
        <pt x="133" y="629" on="1"/>
        <pt x="133" y="813" on="1"/>
        <pt x="952" y="813" on="1"/>
      </contour>
    </TTGlyph>
    <TTGlyph name="eng" xMin="109" yMin="-526" xMax="1077" yMax="997">
      <contour>
        <pt x="385" y="958" on="1"/>
        <pt x="375" y="776" on="1"/>
        <pt x="402" y="825" on="0"/>
        <pt x="475" y="910" on="0"/>
        <pt x="566" y="969" on="0"/>
        <pt x="673" y="997" on="0"/>
        <pt x="733" y="989" on="1"/>
        <pt x="828" y="975" on="0"/>
        <pt x="960" y="887" on="0"/>
        <pt x="1041" y="751" on="0"/>
        <pt x="1077" y="571" on="0"/>
        <pt x="1077" y="465" on="1"/>
        <pt x="1077" y="410" on="0"/>
        <pt x="1062" y="266" on="0"/>
        <pt x="1030" y="106" on="0"/>
        <pt x="981" y="-62" on="0"/>
        <pt x="913" y="-220" on="0"/>
        <pt x="826" y="-360" on="0"/>
        <pt x="718" y="-465" on="0"/>
        <pt x="588" y="-526" on="0"/>
        <pt x="512" y="-526" on="1"/>
        <pt x="442" y="-526" on="0"/>
        <pt x="315" y="-482" on="0"/>
        <pt x="209" y="-403" on="0"/>
        <pt x="130" y="-293" on="0"/>
        <pt x="109" y="-227" on="1"/>
        <pt x="418" y="-147" on="1"/>
        <pt x="418" y="-160" on="0"/>
        <pt x="416" y="-187" on="0"/>
        <pt x="416" y="-201" on="1"/>
        <pt x="416" y="-233" on="0"/>
        <pt x="426" y="-321" on="0"/>
        <pt x="456" y="-401" on="0"/>
        <pt x="512" y="-457" on="0"/>
        <pt x="557" y="-457" on="1"/>
        <pt x="592" y="-457" on="0"/>
        <pt x="654" y="-391" on="0"/>
        <pt x="707" y="-280" on="0"/>
        <pt x="753" y="-132" on="0"/>
        <pt x="790" y="33" on="0"/>
        <pt x="818" y="205" on="0"/>
        <pt x="836" y="364" on="0"/>
        <pt x="846" y="501" on="0"/>
        <pt x="846" y="549" on="1"/>
        <pt x="846" y="624" on="0"/>
        <pt x="820" y="740" on="0"/>
        <pt x="765" y="820" on="0"/>
        <pt x="679" y="862" on="0"/>
        <pt x="618" y="862" on="1"/>
        <pt x="565" y="862" on="0"/>
        <pt x="483" y="805" on="0"/>
        <pt x="421" y="715" on="0"/>
        <pt x="377" y="602" on="0"/>
        <pt x="362" y="545" on="1"/>
        <pt x="336" y="6" on="1"/>
        <pt x="150" y="-10" on="1"/>
        <pt x="111" y="936" on="1"/>
      </contour>
    </TTGlyph>
    <TTGlyph name="eogonek" xMin="76" yMin="-412" xMax="1061" yMax="981">
      <contour>
        <pt x="1061" y="-195" on="1"/>
        <pt x="1050" y="-244" on="0"/>
        <pt x="1002" y="-324" on="0"/>
        <pt x="932" y="-381" on="0"/>
        <pt x="845" y="-412" on="0"/>
        <pt x="795" y="-412" on="1"/>
        <pt x="755" y="-412" on="0"/>
        <pt x="680" y="-388" on="0"/>
        <pt x="623" y="-343" on="0"/>
        <pt x="588" y="-276" on="0"/>
        <pt x="588" y="-233" on="1"/>
        <pt x="588" y="-182" on="0"/>
        <pt x="632" y="-86" on="0"/>
        <pt x="666" y="-43" on="1"/>
        <pt x="638" y="-48" on="0"/>
        <pt x="584" y="-51" on="0"/>
        <pt x="559" y="-51" on="1"/>
        <pt x="444" y="-51" on="0"/>
        <pt x="264" y="17" on="0"/>
        <pt x="141" y="145" on="0"/>
        <pt x="76" y="328" on="0"/>
        <pt x="76" y="442" on="1"/>
        <pt x="76" y="553" on="0"/>
        <pt x="152" y="750" on="0"/>
        <pt x="288" y="896" on="0"/>
        <pt x="479" y="981" on="0"/>
        <pt x="594" y="981" on="1"/>
        <pt x="678" y="981" on="0"/>
        <pt x="844" y="940" on="0"/>
        <pt x="976" y="853" on="0"/>
        <pt x="1057" y="717" on="0"/>
        <pt x="1057" y="621" on="1"/>
        <pt x="1057" y="527" on="0"/>
        <pt x="982" y="398" on="0"/>
        <pt x="860" y="317" on="0"/>
        <pt x="704" y="281" on="0"/>
        <pt x="623" y="281" on="1"/>
        <pt x="544" y="281" on="0"/>
        <pt x="389" y="322" on="0"/>
        <pt x="326" y="367" on="1"/>
        <pt x="327" y="328" on="0"/>
        <pt x="335" y="246" on="0"/>
        <pt x="354" y="169" on="0"/>
        <pt x="385" y="101" on="0"/>
        <pt x="434" y="50" on="0"/>
        <pt x="503" y="20" on="0"/>
        <pt x="551" y="20" on="1"/>
        <pt x="596" y="20" on="0"/>
        <pt x="674" y="53" on="0"/>
        <pt x="733" y="109" on="0"/>
        <pt x="771" y="185" on="0"/>
        <pt x="778" y="229" on="1"/>
        <pt x="1024" y="174" on="1"/>
        <pt x="992" y="105" on="0"/>
        <pt x="868" y="14" on="0"/>
        <pt x="795" y="-12" on="1"/>
        <pt x="766" y="-57" on="0"/>
        <pt x="729" y="-160" on="0"/>
        <pt x="729" y="-213" on="1"/>
        <pt x="729" y="-231" on="0"/>
        <pt x="739" y="-279" on="0"/>
        <pt x="761" y="-322" on="0"/>
        <pt x="794" y="-352" on="0"/>
        <pt x="817" y="-352" on="1"/>
        <pt x="842" y="-352" on="0"/>
        <pt x="874" y="-324" on="0"/>
        <pt x="892" y="-283" on="0"/>
        <pt x="899" y="-236" on="0"/>
        <pt x="899" y="-217" on="1"/>
        <pt x="899" y="-185" on="0"/>
        <pt x="893" y="-152" on="1"/>
      </contour>
      <contour>
        <pt x="580" y="907" on="1"/>
        <pt x="534" y="907" on="0"/>
        <pt x="463" y="870" on="0"/>
        <pt x="408" y="806" on="0"/>
        <pt x="370" y="724" on="0"/>
        <pt x="344" y="634" on="0"/>
        <pt x="330" y="542" on="0"/>
        <pt x="328" y="502" on="1"/>
        <pt x="366" y="437" on="0"/>
        <pt x="492" y="354" on="0"/>
        <pt x="575" y="354" on="1"/>
        <pt x="628" y="354" on="0"/>
        <pt x="712" y="403" on="0"/>
        <pt x="770" y="481" on="0"/>
        <pt x="801" y="577" on="0"/>
        <pt x="801" y="625" on="1"/>
        <pt x="801" y="673" on="0"/>
        <pt x="773" y="774" on="0"/>
        <pt x="718" y="855" on="0"/>
        <pt x="635" y="907" on="0"/>
      </contour>
    </TTGlyph>
</ttFont>
